<?xml version="1.0" encoding="UTF-8" standalone="no"?>
<!-- Created with Inkscape (http://www.inkscape.org/) -->

<svg
   xmlns:dc="http://purl.org/dc/elements/1.1/"
   xmlns:cc="http://creativecommons.org/ns#"
   xmlns:rdf="http://www.w3.org/1999/02/22-rdf-syntax-ns#"
   xmlns:svg="http://www.w3.org/2000/svg"
   xmlns="http://www.w3.org/2000/svg"
   xmlns:xlink="http://www.w3.org/1999/xlink"
   xmlns:sodipodi="http://sodipodi.sourceforge.net/DTD/sodipodi-0.dtd"
   xmlns:inkscape="http://www.inkscape.org/namespaces/inkscape"
   width="417.16391"
   height="439.99637"
   id="svg4498"
   version="1.1"
   inkscape:version="0.91 r13725"
   sodipodi:docname="find.svg">
  <defs
     id="defs4500">
    <filter
       filterUnits="objectBoundingBox"
       height="2"
       id="filter-2"
       width="2"
       x="-0.5"
       y="-0.5">
      <feOffset
         dx="0"
         dy="4"
         in="SourceAlpha"
         result="shadowOffsetOuter1"
         id="feOffset12" />
      <feGaussianBlur
         in="shadowOffsetOuter1"
         result="shadowBlurOuter1"
         stdDeviation="2"
         id="feGaussianBlur14" />
      <feColorMatrix
         in="shadowBlurOuter1"
         type="matrix"
         values="0 0 0 0 0   0 0 0 0 0   0 0 0 0 0  0 0 0 0.5 0"
         id="feColorMatrix16" />
    </filter>
    <filter
       filterUnits="objectBoundingBox"
       height="2"
       id="filter-4"
       width="2"
       x="-0.5"
       y="-0.5">
      <feOffset
         dx="0"
         dy="4"
         in="SourceAlpha"
         result="shadowOffsetOuter1"
         id="feOffset20" />
      <feGaussianBlur
         in="shadowOffsetOuter1"
         result="shadowBlurOuter1"
         stdDeviation="2"
         id="feGaussianBlur22" />
      <feColorMatrix
         in="shadowBlurOuter1"
         type="matrix"
         values="0 0 0 0 0   0 0 0 0 0   0 0 0 0 0  0 0 0 0.5 0"
         id="feColorMatrix24" />
    </filter>
  </defs>
  <sodipodi:namedview
     id="base"
     pagecolor="#ffffff"
     bordercolor="#666666"
     borderopacity="1.0"
     inkscape:pageopacity="0.0"
     inkscape:pageshadow="2"
     inkscape:zoom="0.35"
     inkscape:cx="966.15785"
     inkscape:cy="-77.968485"
     inkscape:document-units="px"
     inkscape:current-layer="layer1"
     showgrid="false"
     inkscape:window-width="1920"
     inkscape:window-height="1017"
     inkscape:window-x="1912"
     inkscape:window-y="-8"
     inkscape:window-maximized="1"
     showborder="true"
     inkscape:showpageshadow="true"
     borderlayer="false"
     fit-margin-top="0"
     fit-margin-left="0"
     fit-margin-right="0"
     fit-margin-bottom="0" />
  <metadata
     id="metadata4503">
    <rdf:RDF>
      <cc:Work
         rdf:about="">
        <dc:format>image/svg+xml</dc:format>
        <dc:type
           rdf:resource="http://purl.org/dc/dcmitype/StillImage" />
        <dc:title></dc:title>
      </cc:Work>
    </rdf:RDF>
  </metadata>
  <g
     inkscape:label="Calque 1"
     inkscape:groupmode="layer"
     id="layer1"
     transform="translate(-193.41361,-113.83898)">
    <use
       transform="matrix(0.70710678,0.70710678,-0.70710678,0.70710678,186.13998,-30.486288)"
       height="100%"
       width="100%"
       y="0"
       x="0"
       style="fill:#fbf0b8;fill-rule:evenodd"
       id="use32"
       xlink:href="#path-1" />
    <use
       transform="matrix(0.70710678,0.70710678,-0.70710678,0.70710678,186.13998,-30.486288)"
       height="100%"
       width="100%"
       y="0"
       x="0"
       style="fill:#fbf0b8;fill-rule:evenodd"
       id="use32-1"
       xlink:href="#path-1" />
    <use
       transform="matrix(0.70710678,0.70710678,-0.70710678,0.70710678,186.13998,-30.486288)"
       height="100%"
       width="100%"
       y="0"
       x="0"
       style="fill:#fbf0b8;fill-rule:evenodd"
       id="use32-8"
       xlink:href="#path-1" />
    <g
       id="Layer_1"
       transform="matrix(11.375,0,0,11.375,130.42857,-223.35215)">
      <g
         style="opacity:0.2"
         id="g9"
         transform="translate(-8.288854,15.824176)">
        <g
           id="g11">
          <path
             style="fill:#231f20"
             inkscape:connector-curvature="0"
             d="m 48,52.5 c -0.64,0 -1.28,-0.244 -1.768,-0.732 l -12,-12 c -0.977,-0.977 -0.977,-2.559 0,-3.535 0.976,-0.977 2.56,-0.977 3.535,0 l 12,12 c 0.977,0.977 0.977,2.559 0,3.535 C 49.28,52.256 48.64,52.5 48,52.5 Z"
             id="path13" />
        </g>
      </g>
      <g
         id="g15"
         transform="translate(-8.288854,15.824176)">
        <path
           style="fill:#e46000;fill-opacity:1"
           inkscape:connector-curvature="0"
           d="m 48,50.5 c -0.64,0 -1.28,-0.244 -1.768,-0.732 l -12,-12 c -0.977,-0.977 -0.977,-2.559 0,-3.535 0.976,-0.977 2.56,-0.977 3.535,0 l 12,12 c 0.977,0.977 0.977,2.559 0,3.535 C 49.28,50.256 48.64,50.5 48,50.5 Z"
           id="path17" />
      </g>
      <g
         id="g19">
        <circle
           style="fill:#ff974b;fill-opacity:1"
           r="10.566899"
           cx="-17.050783"
           cy="45.471848"
           transform="matrix(0.70710678,-0.70710678,0.70710678,0.70710678,0,0)"
           id="ellipse21" />
      </g>
      <g
         style="opacity:0.2"
         id="g23"
         transform="translate(-8.288854,15.824176)">
        <g
           id="g25">
          <path
             style="fill:#231f20"
             inkscape:connector-curvature="0"
             d="m 28.386,19.819 c 2.704,0 5.409,1.032 7.472,3.095 4.127,4.127 4.127,10.817 0,14.944 -2.063,2.063 -4.768,3.095 -7.472,3.095 -2.704,0 -5.409,-1.032 -7.472,-3.095 -4.127,-4.127 -4.127,-10.817 0,-14.944 2.063,-2.063 4.768,-3.095 7.472,-3.095 z m 0,-4 c -3.891,0 -7.549,1.515 -10.3,4.267 -5.68,5.68 -5.68,14.921 0,20.601 2.751,2.751 6.409,4.267 10.3,4.267 3.891,0 7.549,-1.515 10.3,-4.267 5.68,-5.68 5.68,-14.921 0,-20.601 -2.751,-2.752 -6.409,-4.267 -10.3,-4.267 l 0,0 z"
             id="path27" />
        </g>
      </g>
      <g
         id="g29"
         transform="translate(-8.288854,15.824176)">
        <path
           style="fill:#ffffff"
           inkscape:connector-curvature="0"
           d="m 28.386,17.819 c 2.704,0 5.409,1.032 7.472,3.095 4.127,4.127 4.127,10.817 0,14.944 -2.063,2.063 -4.768,3.095 -7.472,3.095 -2.704,0 -5.409,-1.032 -7.472,-3.095 -4.127,-4.127 -4.127,-10.817 0,-14.944 2.063,-2.063 4.768,-3.095 7.472,-3.095 m 0,-4 c -3.891,0 -7.549,1.515 -10.3,4.267 -5.68,5.68 -5.68,14.921 0,20.601 2.751,2.751 6.409,4.267 10.3,4.267 3.891,0 7.549,-1.515 10.3,-4.267 5.68,-5.68 5.68,-14.921 0,-20.601 -2.751,-2.752 -6.409,-4.267 -10.3,-4.267 l 0,0 z"
           id="path31" />
      </g>
    </g>
  </g>
</svg>
