<?xml version="1.0" encoding="UTF-8" standalone="no"?>
<!-- Generator: Adobe Illustrator 16.0.0, SVG Export Plug-In . SVG Version: 6.00 Build 0)  -->

<svg
   xmlns:dc="http://purl.org/dc/elements/1.1/"
   xmlns:cc="http://creativecommons.org/ns#"
   xmlns:rdf="http://www.w3.org/1999/02/22-rdf-syntax-ns#"
   xmlns:svg="http://www.w3.org/2000/svg"
   xmlns="http://www.w3.org/2000/svg"
   xmlns:sodipodi="http://sodipodi.sourceforge.net/DTD/sodipodi-0.dtd"
   xmlns:inkscape="http://www.inkscape.org/namespaces/inkscape"
   version="1.1"
   x="0px"
   y="0px"
   width="35px"
   height="420px"
   viewBox="0 0 35 420"
   enable-background="new 0 0 35 420"
   xml:space="preserve"
   id="svg2"
   inkscape:version="0.48.5 r10040"
   sodipodi:docname="blocks.svg"><metadata
   id="metadata545"><rdf:RDF><cc:Work
       rdf:about=""><dc:format>image/svg+xml</dc:format><dc:type
         rdf:resource="http://purl.org/dc/dcmitype/StillImage" /></cc:Work></rdf:RDF></metadata><defs
   id="defs543" /><sodipodi:namedview
   pagecolor="#ffffff"
   bordercolor="#666666"
   borderopacity="1"
   objecttolerance="10"
   gridtolerance="10"
   guidetolerance="10"
   inkscape:pageopacity="0"
   inkscape:pageshadow="2"
   inkscape:window-width="1834"
   inkscape:window-height="1053"
   id="namedview541"
   showgrid="false"
   inkscape:zoom="1.5893067"
   inkscape:cx="93.959399"
   inkscape:cy="166.74805"
   inkscape:window-x="77"
   inkscape:window-y="-9"
   inkscape:window-maximized="1"
   inkscape:current-layer="blocks" />



<g
   id="content">
	
	<g
   id="blocks">
		<g
   id="Attention">
			<polygon
   fill="#EE1C25"
   points="0.104,31.043 34.947,31.282 16.868,0.51    "
   id="polygon383" />
			<path
   fill="#FFFFFF"
   d="M18.451,21.672c0,0.627-0.43,1.175-0.96,1.175h-0.958c-0.531,0-0.958-0.548-0.958-1.175L14.559,9.178     c0-0.628,0.428-1.116,0.958-1.116h2.989c0.529,0,0.959,0.488,0.959,1.116L18.451,21.672z"
   id="path385" />
			<ellipse
   fill="#FFFFFF"
   cx="16.938"
   cy="26.815"
   rx="1.895"
   ry="2.237"
   id="ellipse387" />
		</g>
		<path
   id="Méthode"
   fill="#434E52"
   d="M3.258,201.715c0,2.317,1.874,4.191,4.192,4.191c1.155,0,2.233-0.438,2.994-1.198    l7.641-7.646l2.048,2.048c-0.275,1.006-0.012,2.132,0.785,2.934l2.97,2.971c1.185,1.179,3.083,1.191,4.251,0.023    c1.168-1.169,1.156-3.065-0.024-4.251l-2.97-2.971c-0.802-0.797-1.928-1.06-2.934-0.784l-2.048-2.042l1.317-1.317    c2.802,0.707,5.892-0.03,8.078-2.167c1.503-1.474,2.33-3.342,2.443-5.275v-0.102c0-0.654-0.539-1.181-1.204-1.181    c-0.329,0-0.629,0.133-0.851,0.342l-0.353,0.348l-1.209,1.185c-0.761,0.742-1.844,1.18-3.012,1.18    c-1.162,0-2.186-0.509-2.946-1.258c-0.749-0.76-1.263-1.79-1.263-2.951c0-1.168,0.437-2.252,1.179-3.013l1.186-1.209l0.347-0.353    c0.209-0.222,0.342-0.521,0.342-0.852c0-0.664-0.527-1.203-1.18-1.203h-0.102c-1.934,0.113-3.802,0.94-5.275,2.443    c-2.138,2.186-2.868,5.275-2.162,8.072l-1.322,1.322l-5.527-5.532v-1.516l-3.593-1.796l-1.796,1.796l1.796,3.593h1.509    l5.533,5.527l-7.641,7.646C3.695,199.48,3.258,200.56,3.258,201.715z M6.251,201.415c0-0.826,0.671-1.497,1.497-1.497    s1.497,0.671,1.497,1.497s-0.671,1.498-1.497,1.498C6.923,202.913,6.251,202.241,6.251,201.415z" />
		<g
   id="Définition">
			<path
   fill="#434E52"
   d="M12.667,36.267c-5.902,0-10.594,4.691-10.594,10.594c0,5.903,4.692,10.595,10.594,10.595     s10.594-4.691,10.594-10.595C23.261,40.958,18.569,36.267,12.667,36.267z M10.396,48.374c-2.119,0-3.784-1.665-3.784-3.783     c0-2.119,1.665-3.784,3.784-3.784c2.119,0,3.783,1.665,3.783,3.784C14.18,46.709,12.515,48.374,10.396,48.374z"
   id="path391" />
			<path
   fill="#434E52"
   d="M21.747,49.888l-6.054,6.054l3.027,3.027l0,0h3.027v3.026l0,0h3.027v3.027l1.059,1.059     c0.303,0.304,0.605,0.455,1.06,0.455h3.935c0.908,0,1.513-0.605,1.513-1.514v-3.936c0-0.453-0.151-0.757-0.454-1.059     L21.747,49.888z"
   id="path393" />
		</g>
		<path
   id="Remarque"
   fill="#434E52"
   d="M33.198,97.652l-7.559-7.56c1.079-1.762,1.733-3.814,1.733-6.034    c0-6.434-5.219-11.651-11.651-11.651c-6.434,0-11.651,5.218-11.651,11.651c0,6.433,5.218,11.651,11.651,11.651    c2.22,0,4.272-0.654,6.034-1.729l7.559,7.556c0.531,0.53,1.411,0.527,1.942,0l1.942-1.942    C33.729,99.063,33.729,98.183,33.198,97.652z M15.721,91.826c-4.29,0-7.768-3.478-7.768-7.768s3.478-7.768,7.768-7.768    s7.768,3.478,7.768,7.768S20.011,91.826,15.721,91.826z" />
		<path
   id="Texte_légal"
   fill="#434E52"
   d="M17.695,112.384c1.162-0.034,2.084-0.956,2.119-2.118    c0.034-1.265-0.991-2.29-2.256-2.256c-1.162,0.034-2.084,0.956-2.119,2.118C15.405,111.393,16.43,112.418,17.695,112.384z     M33.552,125.507h-0.615l-4.34-8.406c0.615-0.069,1.23-0.308,1.777-0.547c0.82-0.376,0.991-1.47,0.376-2.118l-0.034-0.035    c-0.376-0.375-0.957-0.512-1.47-0.273c-0.479,0.205-1.162,0.444-1.811,0.444c-1.914,0-2.769-2.188-9.808-2.188    c-7.04,0-7.895,2.188-9.808,2.188c-0.684,0-1.333-0.205-1.812-0.444c-0.513-0.205-1.094-0.102-1.47,0.273l-0.034,0.035    c-0.615,0.648-0.444,1.708,0.376,2.118c0.547,0.272,1.162,0.478,1.777,0.547l-4.34,8.406H1.701c-0.273,0-0.479,0.239-0.444,0.513    c0.376,2.188,3.145,3.862,6.527,3.862c3.384,0,6.152-1.674,6.527-3.862c0.035-0.273-0.171-0.513-0.444-0.513h-0.616l-4.34-8.372    c2.836-0.24,4.34-1.675,6.527-1.675v16.609c-1.196,0-2.188,0.991-2.188,2.187h-2.426c-0.957,0-1.948,0.991-1.948,2.188h17.498    c0-1.196-0.991-2.188-2.426-2.188H22c0-1.195-0.991-2.187-2.187-2.187V115.46c2.187,0,3.69,1.435,6.527,1.675L22,125.507h-0.615    c-0.273,0-0.479,0.239-0.445,0.513c0.376,2.188,3.144,3.862,6.527,3.862c3.384,0,6.152-1.674,6.528-3.862    C34.03,125.746,33.825,125.507,33.552,125.507z M11.064,125.507H4.503l3.281-6.151L11.064,125.507z M24.188,125.507l3.28-6.151    l3.281,6.151H24.188z" />
		<g
   id="Rappel">
			<g
   id="Group"
   transform="translate(-720.000000, 0.000000)">
				<path
   id="Rectangle_143"
   fill="#434E52"
   d="M726.024,161.264h5.842v1.947h-5.842V161.264z M729.91,143.739h17.541      c1.072,0,1.939,0.878,1.939,1.96v23.34c0,1.085-0.867,1.961-1.939,1.961H729.91c-1.072,0-1.938-0.878-1.938-1.961v-3.881h3.895      c1.075,0,1.947-0.863,1.947-1.945v-1.951c0-1.075-0.864-1.945-1.947-1.945h-3.895v-3.894h3.895c1.075,0,1.947-0.863,1.947-1.946      v-1.951c0-1.074-0.864-1.944-1.947-1.944h-3.895v-3.882C727.971,144.614,728.839,143.739,729.91,143.739z M726.024,151.528      h5.842v1.946h-5.842V151.528z" />
			</g>
		</g>
		<g
   id="Conseil">
			<g
   id="g401">
				<path
   id="path-1"
   fill="#434E52"
   d="M30.692,217.139c0.723,0,1.308,0.577,1.308,1.288v20.739c0,0.71-0.569,1.285-1.298,1.285      H4.806c-0.717,0-1.298-0.575-1.298-1.285v-20.739c0-0.711,0.574-1.288,1.307-1.288h3.874v1.296l-3.886,0.061v20.661h25.902      v-20.722h-3.885v-1.296H30.692z M21.639,217.139h-1.295v1.296h1.295V217.139z M15.164,217.139h-1.295v1.296h1.295V217.139z       M10.266,223.614c-0.157,0-0.283,0.116-0.283,0.261v0.776c0,0.144,0.125,0.259,0.283,0.259h14.975      c0.157,0,0.283-0.114,0.283-0.259v-0.776c0-0.145-0.125-0.261-0.283-0.261H10.266z M10.266,228.795      c-0.157,0-0.283,0.116-0.283,0.261v0.776c0,0.143,0.125,0.258,0.283,0.258h14.975c0.157,0,0.283-0.113,0.283-0.258v-0.776      c0-0.145-0.125-0.261-0.283-0.261H10.266z M10.266,233.976c-0.157,0-0.283,0.116-0.283,0.261v0.776      c0,0.143,0.125,0.258,0.283,0.258h14.975c0.157,0,0.283-0.113,0.283-0.258v-0.776c0-0.145-0.125-0.261-0.283-0.261H10.266z       M11.278,219.729c0.715,0,1.295-1.159,1.295-2.591c0-1.429-0.58-2.59-1.295-2.59c-0.715,0-1.295,1.161-1.295,2.59      C9.983,218.57,10.563,219.729,11.278,219.729z M17.753,219.729c0.716,0,1.295-1.159,1.295-2.591c0-1.429-0.58-2.59-1.295-2.59      c-0.715,0-1.295,1.161-1.295,2.59C16.458,218.57,17.039,219.729,17.753,219.729z M24.229,219.729      c0.716,0,1.295-1.159,1.295-2.591c0-1.429-0.58-2.59-1.295-2.59s-1.295,1.161-1.295,2.59      C22.934,218.57,23.513,219.729,24.229,219.729z" />
			</g>
			<g
   id="g404">
				<path
   id="path-1_1_"
   fill="#434E52"
   d="M30.692,217.139c0.723,0,1.308,0.577,1.308,1.288v20.739c0,0.71-0.569,1.285-1.298,1.285      H4.806c-0.717,0-1.298-0.575-1.298-1.285v-20.739c0-0.711,0.574-1.288,1.307-1.288h3.874v1.296l-3.886,0.061v20.661h25.902      v-20.722h-3.885v-1.296H30.692z M21.639,217.139h-1.295v1.296h1.295V217.139z M15.164,217.139h-1.295v1.296h1.295V217.139z       M10.266,223.614c-0.157,0-0.283,0.116-0.283,0.261v0.776c0,0.144,0.125,0.259,0.283,0.259h14.975      c0.157,0,0.283-0.114,0.283-0.259v-0.776c0-0.145-0.125-0.261-0.283-0.261H10.266z M10.266,228.795      c-0.157,0-0.283,0.116-0.283,0.261v0.776c0,0.143,0.125,0.258,0.283,0.258h14.975c0.157,0,0.283-0.113,0.283-0.258v-0.776      c0-0.145-0.125-0.261-0.283-0.261H10.266z M10.266,233.976c-0.157,0-0.283,0.116-0.283,0.261v0.776      c0,0.143,0.125,0.258,0.283,0.258h14.975c0.157,0,0.283-0.113,0.283-0.258v-0.776c0-0.145-0.125-0.261-0.283-0.261H10.266z       M11.278,219.729c0.715,0,1.295-1.159,1.295-2.591c0-1.429-0.58-2.59-1.295-2.59c-0.715,0-1.295,1.161-1.295,2.59      C9.983,218.57,10.563,219.729,11.278,219.729z M17.753,219.729c0.716,0,1.295-1.159,1.295-2.591c0-1.429-0.58-2.59-1.295-2.59      c-0.715,0-1.295,1.161-1.295,2.59C16.458,218.57,17.039,219.729,17.753,219.729z M24.229,219.729      c0.716,0,1.295-1.159,1.295-2.591c0-1.429-0.58-2.59-1.295-2.59s-1.295,1.161-1.295,2.59      C22.934,218.57,23.513,219.729,24.229,219.729z" />
			</g>
		</g>
		<g
   id="Complément">
			<polygon
   fill="#434E52"
   points="25.497,249.686 11.693,249.686 5.884,254.881 5.884,275.243 19.698,275.243 19.698,273.415      7.941,273.415 7.941,256.871 13.9,256.871 13.9,251.512 23.439,251.512 23.439,257.172 25.497,257.172    "
   id="polygon408" />
			<polygon
   fill="#434E52"
   points="22.594,265.575 22.594,259.931 26.976,259.931 26.976,265.575 33,265.575 33,269.669      26.976,269.669 26.976,275.314 22.594,275.314 22.594,269.669 16.581,269.669 16.581,265.575    "
   id="polygon410" />
		</g>
		<g
   id="Fondamental">
			<path
   fill="#434E52"
   d="M19.221,281.821c-5.954,0-10.779,4.825-10.779,10.778c0,3.951,3.614,8.137,4.93,11.813     c1.963,5.483,1.745,8.766,5.849,8.766c4.165,0,3.885-3.267,5.849-8.742C26.391,300.751,30,296.52,30,292.6     C30,286.646,25.173,281.821,19.221,281.821z M21.761,308.45l-4.858,0.606c-0.173-0.501-0.359-1.088-0.585-1.854     c-0.003-0.01-0.007-0.021-0.009-0.031l6.064-0.758c-0.086,0.289-0.178,0.594-0.259,0.865     C21.985,307.72,21.87,308.103,21.761,308.45z M16.022,306.229c-0.178-0.59-0.379-1.211-0.602-1.87h7.609     c-0.121,0.353-0.241,0.704-0.345,1.038L16.022,306.229z M19.221,311.218c-0.993,0-1.449-0.114-1.957-1.225l4.153-0.521     C20.815,311.094,20.377,311.218,19.221,311.218z M23.799,302.398h-9.146c-0.488-1.058-1.074-2.116-1.652-3.151     c-1.278-2.289-2.599-4.655-2.599-6.647c0-4.862,3.956-8.818,8.819-8.818s8.819,3.956,8.819,8.818     c0,1.978-1.322,4.356-2.603,6.658C24.865,300.29,24.283,301.347,23.799,302.398z"
   id="path413" />
			<path
   fill="#434E52"
   d="M19.221,286.721c-3.243,0-5.879,2.637-5.879,5.879c0,0.271,0.22,0.49,0.49,0.49     c0.271,0,0.49-0.22,0.49-0.49c0-2.701,2.198-4.898,4.899-4.898c0.271,0,0.49-0.221,0.49-0.49S19.491,286.721,19.221,286.721z"
   id="path415" />
		</g>
		<g
   id="Simulation">
			<path
   fill="#434E52"
   stroke="#434E52"
   stroke-miterlimit="10"
   d="M21.065,324.961c1.42,0,2.579-1.158,2.579-2.579     c0-1.42-1.159-2.58-2.579-2.58s-2.581,1.159-2.581,2.579C18.484,323.802,19.643,324.961,21.065,324.961z"
   id="path418" />
			<path
   fill="#434E52"
   stroke="#434E52"
   stroke-miterlimit="10"
   d="M6.489,337.38c1.421,0,2.58-1.158,2.58-2.577     c0-1.421-1.158-2.581-2.58-2.581c-1.42,0-2.578,1.159-2.578,2.581C3.912,336.223,5.07,337.38,6.489,337.38z"
   id="path420" />
			<path
   fill="#434E52"
   stroke="#434E52"
   stroke-miterlimit="10"
   d="M25.422,339.333c1.419,0,2.578-1.157,2.578-2.577     c0-1.421-1.159-2.58-2.578-2.58c-1.422,0-2.581,1.159-2.581,2.58C22.842,338.176,24,339.333,25.422,339.333z"
   id="path422" />
			<path
   fill="#434E52"
   stroke="#434E52"
   stroke-miterlimit="10"
   d="M18.811,348.198c1.42,0,2.579-1.159,2.579-2.579     c0-1.421-1.159-2.578-2.579-2.578c-1.419,0-2.579,1.157-2.579,2.578C16.232,347.039,17.389,348.198,18.811,348.198z"
   id="path424" />
			<path
   fill="#434E52"
   stroke="#434E52"
   stroke-miterlimit="10"
   d="M17.358,336.129c1.724,0,3.13-1.407,3.13-3.13     c0-1.722-1.406-3.13-3.13-3.13c-1.724,0-3.13,1.408-3.13,3.13C14.228,334.722,15.634,336.129,17.358,336.129z"
   id="path426" />
			
				<line
   fill="#434E52"
   stroke="#434E52"
   stroke-width="0.9621"
   stroke-miterlimit="2.6131"
   x1="20.639"
   y1="324.259"
   x2="17.633"
   y2="332.772"
   id="line428" />
			
				<line
   fill="#434E52"
   stroke="#434E52"
   stroke-width="0.9618"
   stroke-miterlimit="2.6131"
   x1="25.601"
   y1="336.9"
   x2="17.521"
   y2="332.874"
   id="line430" />
			
				<line
   fill="#434E52"
   stroke="#434E52"
   stroke-width="1.0003"
   stroke-miterlimit="2.6131"
   x1="18.29"
   y1="344.242"
   x2="17.791"
   y2="333.013"
   id="line432" />
			
				<line
   fill="#434E52"
   stroke="#434E52"
   stroke-width="0.9621"
   stroke-miterlimit="2.6131"
   x1="8.688"
   y1="334.748"
   x2="17.479"
   y2="332.688"
   id="line434" />
		</g>
		<g
   id="Exemple">
			<g
   id="g437">
				<path
   fill="#434E52"
   d="M20.411,385.5c0,1.102-0.895,2-2,2s-2-0.898-2-2c0-1.109,0.895-2,2-2S20.411,384.391,20.411,385.5z"
   id="path439" />
				<path
   fill="#434E52"
   d="M18.487,381.477c-1.336,0-2.59-0.522-3.535-1.469c-0.945-1.105-1.465-2.359-1.465-3.695      s0.52-2.59,1.465-3.371l6.688-6.688c0.755-0.758,1.171-1.762,1.171-2.828c0-1.07-0.416-2.074-1.172-2.828      c-1.559-1.559-4.096-1.562-5.654,0c-0.758,0.754-1.174,1.758-1.174,2.828h-4c0-2.137,0.834-4.148,2.348-5.66      c3.02-3.022,8.285-3.02,11.309,0.004c1.511,1.508,2.343,3.516,2.343,5.656c0,2.137-0.832,4.145-2.344,5.656l-6.688,6.523      c-0.389,0.391-0.389,1.022,0,1.414c0.391,0.391,1.023,0.391,1.414,0c0.255-0.258,0.293-0.556,0.293-0.711h4      c0,1.336-0.521,2.594-1.465,3.698C21.077,380.953,19.823,381.477,18.487,381.477L18.487,381.477z"
   id="path441" />
			</g>
		</g>
		<g
   id="background">
			<rect
   x="3.221"
   y="391.492"
   fill="none"
   width="30.001"
   height="30.001"
   id="rect444" />
		</g>
		<g
   id="paragraph"
   transform="matrix(1.16773,0,0,0.95206239,-2.1228102,21.989934)">
			<path
   d="m 23.909,403.873 c -0.005,-0.202 -0.02,-1.223 -0.717,-2.455 -0.68,-1.234 -2.146,-2.56 -4.455,-3.115 -1.441,-0.382 -1.852,-0.932 -2.108,-1.339 -0.119,-0.208 -0.177,-0.401 -0.202,-0.524 -0.01,-0.046 -0.014,-0.081 -0.017,-0.102 0.069,-1.177 0.368,-1.253 0.837,-1.569 0.244,-0.124 0.54,-0.202 0.76,-0.237 0.107,-0.019 0.199,-0.027 0.248,-0.031 0.014,-10e-4 0.026,-0.002 0.033,-0.002 1.208,0.064 1.281,0.362 1.598,0.839 0.125,0.243 0.203,0.54 0.239,0.758 0.017,0.11 0.027,0.199 0.031,0.251 0.002,0.025 0.002,0.042 0.002,0.048 l 0.606,-0.021 h 3.144 c -0.01,-0.156 0.013,-1.324 -0.667,-2.714 -0.618,-1.4 -2.42,-2.976 -4.958,-2.91 -0.157,0.01 -1.325,-0.014 -2.714,0.665 -1.4,0.619 -2.975,2.42 -2.911,4.959 0.003,0.202 0.02,1.224 0.715,2.454 0.201,0.363 0.478,0.732 0.816,1.089 -0.381,0.4 -0.681,0.828 -0.866,1.244 -0.678,1.39 -0.657,2.558 -0.666,2.714 0.003,0.201 0.02,1.223 0.716,2.454 0.682,1.233 2.147,2.559 4.453,3.113 1.443,0.383 1.854,0.933 2.109,1.339 0.119,0.209 0.177,0.404 0.204,0.525 0.009,0.042 0.015,0.076 0.016,0.099 -0.066,1.183 -0.366,1.257 -0.836,1.575 -0.245,0.125 -0.542,0.201 -0.759,0.235 -0.11,0.02 -0.199,0.028 -0.251,0.031 -0.02,0.001 -0.035,0.002 -0.043,0.003 -1.196,-0.068 -1.27,-0.364 -1.588,-0.839 -0.124,-0.243 -0.202,-0.54 -0.237,-0.76 -0.02,-0.108 -0.027,-0.199 -0.031,-0.249 -0.003,-0.024 -0.003,-0.038 -0.003,-0.046 v -0.004 l -0.625,0.022 h -3.125 c 0.01,0.154 -0.012,1.323 0.666,2.714 0.607,1.371 2.348,2.912 4.807,2.912 0.051,0 0.101,-0.001 0.154,-0.002 0.157,-0.01 1.325,0.014 2.712,-0.666 1.4,-0.618 2.978,-2.421 2.912,-4.958 -0.004,-0.204 -0.02,-1.226 -0.714,-2.456 -0.201,-0.363 -0.478,-0.732 -0.816,-1.089 0.381,-0.4 0.681,-0.828 0.864,-1.244 0.68,-1.388 0.656,-2.554 0.667,-2.711 z m -7.278,0.594 c -0.122,-0.209 -0.177,-0.401 -0.205,-0.525 -0.009,-0.042 -0.014,-0.075 -0.017,-0.098 0.012,-0.169 0.095,-0.727 0.317,-1.098 0.285,-0.385 0.403,-0.648 1.34,-0.731 1.241,0.378 1.629,0.884 1.87,1.265 0.119,0.211 0.178,0.402 0.204,0.526 0.009,0.044 0.016,0.079 0.017,0.099 -0.014,0.174 -0.094,0.726 -0.316,1.096 -0.286,0.386 -0.405,0.649 -1.346,0.73 -1.238,-0.377 -1.624,-0.884 -1.864,-1.264 z"
   id="path447"
   inkscape:connector-curvature="0"
   style="fill:#434e52" />
		</g>
	</g>
</g>

</svg>