<?xml version="1.0" encoding="UTF-8" standalone="no"?>
<!-- Created with Inkscape (http://www.inkscape.org/) -->

<svg
   xmlns:dc="http://purl.org/dc/elements/1.1/"
   xmlns:cc="http://creativecommons.org/ns#"
   xmlns:rdf="http://www.w3.org/1999/02/22-rdf-syntax-ns#"
   xmlns:svg="http://www.w3.org/2000/svg"
   xmlns="http://www.w3.org/2000/svg"
   xmlns:xlink="http://www.w3.org/1999/xlink"
   xmlns:sodipodi="http://sodipodi.sourceforge.net/DTD/sodipodi-0.dtd"
   xmlns:inkscape="http://www.inkscape.org/namespaces/inkscape"
   version="1.1"
   width="50"
   height="1350.0037"
   id="svg2"
   inkscape:version="0.91 r13725"
   sodipodi:docname="buttons.svg">
  <sodipodi:namedview
     pagecolor="#ffffff"
     bordercolor="#666666"
     borderopacity="1"
     objecttolerance="10"
     gridtolerance="10"
     guidetolerance="10"
     inkscape:pageopacity="0"
     inkscape:pageshadow="2"
     inkscape:window-width="1871"
     inkscape:window-height="1056"
     id="namedview41"
     showgrid="false"
     inkscape:object-nodes="true"
     fit-margin-top="0"
     fit-margin-left="0"
     fit-margin-right="0"
     fit-margin-bottom="0"
     inkscape:zoom="2.8284271"
     inkscape:cx="56.424387"
     inkscape:cy="1203.5431"
     inkscape:window-x="49"
     inkscape:window-y="24"
     inkscape:window-maximized="1"
     inkscape:current-layer="svg2"
     inkscape:snap-global="false"
     inkscape:snap-object-midpoints="true"
     inkscape:snap-center="true"
     inkscape:snap-intersection-paths="true"
     inkscape:snap-midpoints="true"
     inkscape:snap-smooth-nodes="true"
     inkscape:snap-bbox="true"
     inkscape:bbox-paths="true"
     showguides="false" />
  <defs
     id="defs4">
    <linearGradient
       inkscape:collect="always"
       id="linearGradient4255">
      <stop
         style="stop-color:#a71d6f;stop-opacity:1"
         offset="0"
         id="stop4257" />
      <stop
         style="stop-color:#831657;stop-opacity:1"
         offset="1"
         id="stop4259" />
    </linearGradient>
    <linearGradient
       inkscape:collect="always"
       xlink:href="#linearGradient17715"
       id="linearGradient6247"
       gradientUnits="userSpaceOnUse"
       gradientTransform="matrix(1.2,0,0,1.2,1273.7185,-686.86491)"
       x1="102.5"
       y1="1264.3621"
       x2="102.5"
       y2="1240.8621" />
    <linearGradient
       inkscape:collect="always"
       id="linearGradient17715">
      <stop
         style="stop-color:#831657;stop-opacity:1"
         offset="0"
         id="stop17717" />
      <stop
         style="stop-color:#a71d6f;stop-opacity:1"
         offset="1"
         id="stop17719" />
    </linearGradient>
    <linearGradient
       gradientTransform="translate(-1135.2115,-296.2696)"
       inkscape:collect="always"
       xlink:href="#linearGradient17715"
       id="linearGradient17837-1"
       gradientUnits="userSpaceOnUse"
       x1="17.67767"
       y1="1559.3577"
       x2="17.67767"
       y2="1533.5482" />
    <linearGradient
       gradientTransform="translate(-1128.9194,-860.48604)"
       inkscape:collect="always"
       xlink:href="#linearGradient17715"
       id="linearGradient17826-0"
       gradientUnits="userSpaceOnUse"
       x1="20.506096"
       y1="1516.9313"
       x2="20.506096"
       y2="1493.5967" />
    <linearGradient
       gradientTransform="translate(-1131.5435,-929.72678)"
       inkscape:collect="always"
       xlink:href="#linearGradient17715"
       id="linearGradient17815-8"
       gradientUnits="userSpaceOnUse"
       x1="9.8994951"
       y1="1476.6261"
       x2="9.8994951"
       y2="1450.1096" />
    <linearGradient
       gradientTransform="translate(-1135.7358,-993.72433)"
       inkscape:collect="always"
       xlink:href="#linearGradient17715"
       id="linearGradient17804-0"
       gradientUnits="userSpaceOnUse"
       x1="19.79899"
       y1="1435.2604"
       x2="19.79899"
       y2="1408.7439" />
    <linearGradient
       gradientTransform="translate(-1124.7148,-1044.0995)"
       inkscape:collect="always"
       xlink:href="#linearGradient17715"
       id="linearGradient17793-1"
       gradientUnits="userSpaceOnUse"
       x1="11.667262"
       y1="1393.8947"
       x2="11.667262"
       y2="1367.7317" />
    <linearGradient
       gradientTransform="translate(-1149.893,-14.316089)"
       inkscape:collect="always"
       xlink:href="#linearGradient17715"
       id="linearGradient17782-5"
       gradientUnits="userSpaceOnUse"
       x1="13.081475"
       y1="1352.1753"
       x2="13.081475"
       y2="1326.366" />
    <linearGradient
       gradientTransform="translate(-1145.1739,-1140.1272)"
       inkscape:collect="always"
       xlink:href="#linearGradient17715"
       id="linearGradient18694-1"
       gradientUnits="userSpaceOnUse"
       x1="25.809397"
       y1="1269.0903"
       x2="25.809397"
       y2="1243.2809" />
    <linearGradient
       gradientTransform="translate(-1140.9792,-1071.7597)"
       inkscape:collect="always"
       xlink:href="#linearGradient17715"
       id="linearGradient17771-5"
       gradientUnits="userSpaceOnUse"
       x1="20.85965"
       y1="1310.8096"
       x2="20.85965"
       y2="1285.3538" />
    <linearGradient
       inkscape:collect="always"
       xlink:href="#linearGradient17715"
       id="linearGradient4399"
       gradientUnits="userSpaceOnUse"
       gradientTransform="matrix(1.2,0,0,1.2,238.11853,-1128.0996)"
       x1="-168.43211"
       y1="1549.2527"
       x2="-168.43211"
       y2="1523.8361" />
    <linearGradient
       inkscape:collect="always"
       xlink:href="#linearGradient17715"
       id="linearGradient6247-3"
       gradientUnits="userSpaceOnUse"
       gradientTransform="matrix(1.2,0,0,1.2,1264.6865,-1486.8665)"
       x1="102.5"
       y1="1264.3621"
       x2="102.5"
       y2="1240.8621" />
    <linearGradient
       inkscape:collect="always"
       xlink:href="#linearGradient4255"
       id="linearGradient4261"
       x1="22.478987"
       y1="995.28278"
       x2="22.478987"
       y2="1020.0316"
       gradientUnits="userSpaceOnUse" />
    <linearGradient
       gradientTransform="translate(-4.5471325,-991.46915)"
       inkscape:collect="always"
       xlink:href="#linearGradient4255"
       id="linearGradient4261-7"
       x1="22.478987"
       y1="995.28278"
       x2="22.478987"
       y2="1020.0316"
       gradientUnits="userSpaceOnUse" />
    <linearGradient
       inkscape:collect="always"
       xlink:href="#linearGradient4255"
       id="linearGradient4300"
       gradientUnits="userSpaceOnUse"
       x1="-250.2926"
       y1="120.52563"
       x2="-250.2926"
       y2="158.32268" />
    <linearGradient
       gradientTransform="matrix(1.3002056,0,0,1.3002056,368.9189,-154.90173)"
       inkscape:collect="always"
       xlink:href="#linearGradient4255"
       id="linearGradient4300-6"
       gradientUnits="userSpaceOnUse"
       x1="-250.2926"
       y1="120.52563"
       x2="-250.2926"
       y2="158.32268" />
    <linearGradient
       inkscape:collect="always"
       xlink:href="#linearGradient4255"
       id="linearGradient4325"
       gradientUnits="userSpaceOnUse"
       x1="37.830212"
       y1="901.698"
       x2="37.830212"
       y2="950.13477" />
    <linearGradient
       inkscape:collect="always"
       xlink:href="#linearGradient17715"
       id="linearGradient4357"
       gradientUnits="userSpaceOnUse"
       gradientTransform="translate(-1145.1739,-1140.1272)"
       x1="1174.4635"
       y1="1181.6298"
       x2="1174.4635"
       y2="1148.4105" />
  </defs>
  <metadata
     id="metadata7">
    <rdf:RDF>
      <cc:Work
         rdf:about="">
        <dc:format>image/svg+xml</dc:format>
        <dc:type
           rdf:resource="http://purl.org/dc/dcmitype/StillImage" />
        <dc:title />
      </cc:Work>
    </rdf:RDF>
  </metadata>
  <circle
     style="color:#000000;clip-rule:nonzero;display:inline;overflow:visible;visibility:visible;opacity:1;isolation:auto;mix-blend-mode:normal;color-interpolation:sRGB;color-interpolation-filters:linearRGB;solid-color:#000000;solid-opacity:1;fill:url(#linearGradient4325);fill-opacity:1;fill-rule:nonzero;stroke:none;stroke-width:1;stroke-linecap:butt;stroke-linejoin:miter;stroke-miterlimit:4;stroke-dasharray:none;stroke-dashoffset:0;stroke-opacity:1;marker:none;marker-start:none;marker-mid:none;marker-end:none;color-rendering:auto;image-rendering:auto;shape-rendering:auto;text-rendering:auto;enable-background:accumulate;filter-blend-mode:normal;filter-gaussianBlur-deviation:0"
     id="path4235-9"
     cx="24.999996"
     cy="925.00177"
     r="25" />
  <circle
     style="color:#000000;clip-rule:nonzero;display:inline;overflow:visible;visibility:visible;opacity:1;isolation:auto;mix-blend-mode:normal;color-interpolation:sRGB;color-interpolation-filters:linearRGB;solid-color:#000000;solid-opacity:1;fill:#ffffff;fill-opacity:1;fill-rule:nonzero;stroke:none;stroke-width:0.76676631;stroke-linecap:butt;stroke-linejoin:miter;stroke-miterlimit:4;stroke-dasharray:none;stroke-dashoffset:0;stroke-opacity:1;marker:none;marker-start:none;marker-mid:none;marker-end:none;color-rendering:auto;image-rendering:auto;shape-rendering:auto;text-rendering:auto;enable-background:accumulate"
     id="path4235"
     cx="25.000029"
     cy="1024.9818"
     r="25" />
  <g
     transform="translate(-146.45164,90.466256)"
     id="g4516">
    <path
       inkscape:connector-curvature="0"
       style="color:#000000;display:inline;overflow:visible;visibility:visible;fill:#ffffff;fill-opacity:1;fill-rule:nonzero;stroke:none;stroke-width:1;marker:none;enable-background:accumulate"
       id="path4518"
       d="m 196.45164,-65.466256 a 25,25 0 0 1 -50,0 25,25 0 1 1 50,0 z" />
    <g
       id="g4520"
       transform="translate(1.3493662,-88.337922)">
      <path
         style="color:#000000;font-style:normal;font-variant:normal;font-weight:normal;font-stretch:normal;font-size:medium;line-height:normal;font-family:sans-serif;text-indent:0;text-align:start;text-decoration:none;text-decoration-line:none;text-decoration-style:solid;text-decoration-color:#000000;letter-spacing:normal;word-spacing:normal;text-transform:none;direction:ltr;block-progression:tb;writing-mode:lr-tb;baseline-shift:baseline;text-anchor:start;white-space:normal;clip-rule:nonzero;display:inline;overflow:visible;visibility:visible;opacity:1;isolation:auto;mix-blend-mode:normal;color-interpolation:sRGB;color-interpolation-filters:linearRGB;solid-color:#000000;solid-opacity:1;fill:url(#linearGradient4357);fill-opacity:1;fill-rule:nonzero;stroke:none;stroke-width:0.7667663;stroke-linecap:butt;stroke-linejoin:miter;stroke-miterlimit:4;stroke-dasharray:none;stroke-dashoffset:0;stroke-opacity:1;marker:none;color-rendering:auto;image-rendering:auto;shape-rendering:auto;text-rendering:auto;enable-background:accumulate;filter-blend-mode:normal;filter-gaussianBlur-deviation:0;marker-start:none;marker-mid:none;marker-end:none"
         d="M 21.099609 7.5917969 C 13.733399 7.5917969 7.6894531 13.635749 7.6894531 21.001953 C 7.6894531 28.368157 13.733399 34.412109 21.099609 34.412109 C 23.244273 34.412109 25.270256 33.888603 27.074219 32.980469 L 36.5 42.408203 L 42.310547 36.597656 L 32.951172 27.238281 C 33.942391 25.371042 34.509766 23.249508 34.509766 21.001953 C 34.509766 13.635749 28.465809 7.5917969 21.099609 7.5917969 z M 21.099609 14.392578 C 24.790819 14.392578 27.710938 17.310742 27.710938 21.001953 C 27.710938 24.693164 24.790819 27.613281 21.099609 27.613281 C 17.408389 27.613281 14.488281 24.693164 14.488281 21.001953 C 14.488281 17.310742 17.408389 14.392578 21.099609 14.392578 z "
         transform="translate(145.10227,-2.128334)"
         id="circle4522" />
    </g>
  </g>
  <text
     xml:space="preserve"
     style="color:#000000;font-style:italic;font-variant:normal;font-weight:bold;font-stretch:normal;font-size:55.29616547px;line-height:125%;font-family:'Bitstream Charter';-inkscape-font-specification:'Bitstream Charter Bold Italic';text-align:start;letter-spacing:0px;word-spacing:0px;writing-mode:lr-tb;text-anchor:start;display:inline;overflow:visible;visibility:visible;fill:#ffffff;fill-opacity:1;fill-rule:nonzero;stroke:none;stroke-width:1;marker:none;enable-background:accumulate;"
     x="16.097353"
     y="944.85315"
     id="text2982"
     sodipodi:linespacing="125%"><tspan
       sodipodi:role="line"
       id="tspan2984"
       x="16.097353"
       y="944.85315">i</tspan></text>
  <g
     id="g3094"
     transform="translate(5.8052838,18.845153)"
     style="fill:url(#linearGradient4261);fill-opacity:1">
    <path
       inkscape:connector-curvature="0"
       id="rect3002"
       d="m 8.882245,991.46915 c -1.1208,0 -2.18805,0.4693 -3.046875,1.32812 -1.71765,1.71765 -1.71765,4.45423 0,6.17188 l 7.1875,7.18745 -7.1875,7.1875 c -1.71765,1.7177 -1.71765,4.4543 0,6.1719 1.71765,1.7177 4.454225,1.7177 6.171875,0 l 7.1875,-7.1875 7.1875,7.1875 c 1.71765,1.7177 4.454225,1.7177 6.171875,0 1.71765,-1.7176 1.71765,-4.4542 0,-6.1719 l -7.1875,-7.1875 7.1875,-7.18745 c 1.71765,-1.71765 1.71765,-4.45423 0,-6.17188 -1.71765,-1.71764 -4.454225,-1.71764 -6.171875,0 l -7.1875,7.1875 -7.1875,-7.1875 c -0.858825,-0.85882 -2.004175,-1.32812 -3.125,-1.32812 z"
       style="color:#000000;fill:url(#linearGradient4261);fill-opacity:1;fill-rule:nonzero;stroke:none;stroke-width:1;marker:none;visibility:visible;display:inline;overflow:visible;enable-background:accumulate" />
  </g>
  <g
     transform="translate(5.8052838,18.845153)"
     id="g4596">
    <circle
       transform="matrix(1.3002056,0,0,1.3002056,363.11362,926.25592)"
       id="circle4598"
       style="color:#000000;display:inline;overflow:visible;visibility:visible;fill:url(#linearGradient4300);fill-opacity:1;fill-rule:nonzero;stroke:none;stroke-width:0.76910913;marker:none;enable-background:accumulate;clip-rule:nonzero;opacity:1;isolation:auto;mix-blend-mode:normal;color-interpolation:sRGB;color-interpolation-filters:linearRGB;solid-color:#000000;solid-opacity:1;stroke-linecap:butt;stroke-linejoin:miter;stroke-miterlimit:4;stroke-dasharray:none;stroke-dashoffset:0;stroke-opacity:1;filter-blend-mode:normal;filter-gaussianBlur-deviation:0;color-rendering:auto;image-rendering:auto;shape-rendering:auto;text-rendering:auto"
       cx="-264.51117"
       cy="138.36406"
       r="19.227728" />
    <path
       style="color:#000000;display:inline;overflow:visible;visibility:visible;fill:#ffffff;fill-opacity:1;fill-rule:nonzero;stroke:none;stroke-width:1;marker:none;enable-background:accumulate"
       d="m 8.882245,1091.4696 c -1.1208,0 -2.18805,0.4694 -3.046875,1.3282 -1.71765,1.7176 -1.71765,4.4542 0,6.1718 l 7.1875,7.1875 -7.1875,7.1875 c -1.71765,1.7177 -1.71765,4.4542 0,6.172 1.71765,1.7177 4.454225,1.7177 6.171875,0 l 7.1875,-7.1875 7.1875,7.1875 c 1.71765,1.7177 4.454225,1.7177 6.171875,0 1.71765,-1.7178 1.71765,-4.4543 0,-6.172 l -7.1875,-7.1875 7.1875,-7.1875 c 1.71765,-1.7176 1.71765,-4.4542 0,-6.1718 -1.71765,-1.7177 -4.454225,-1.7177 -6.171875,0 l -7.1875,7.1875 -7.1875,-7.1875 c -0.858825,-0.8588 -2.004175,-1.3282 -3.125,-1.3282 z"
       id="path4600"
       inkscape:connector-curvature="0" />
  </g>
  <g
     id="g4243"
     transform="translate(0,3.599832)">
    <path
       inkscape:connector-curvature="0"
       id="path4225"
       d="M 25,700.00137 A 15.9678,15.9678 0 0 0 9.032032,715.96941 15.9678,15.9678 0 0 0 25,731.93733 15.9678,15.9678 0 0 0 40.967968,715.96941 15.9678,15.9678 0 0 0 25,700.00137 Z"
       style="color:#000000;clip-rule:nonzero;display:inline;overflow:visible;visibility:visible;opacity:1;isolation:auto;mix-blend-mode:normal;color-interpolation:sRGB;color-interpolation-filters:linearRGB;solid-color:#000000;solid-opacity:1;fill:#fefcfd;fill-opacity:1;fill-rule:nonzero;stroke:#fefcfd;stroke-width:7.19999981;stroke-linecap:butt;stroke-linejoin:miter;stroke-miterlimit:4;stroke-dasharray:none;stroke-dashoffset:0;stroke-opacity:1;marker:none;marker-start:none;marker-mid:none;marker-end:none;color-rendering:auto;image-rendering:auto;shape-rendering:auto;text-rendering:auto;enable-background:accumulate" />
    <path
       style="color:#000000;clip-rule:nonzero;display:inline;overflow:visible;visibility:visible;opacity:1;isolation:auto;mix-blend-mode:normal;color-interpolation:sRGB;color-interpolation-filters:linearRGB;solid-color:#000000;solid-opacity:1;fill:url(#linearGradient4399);fill-opacity:1;fill-rule:nonzero;stroke:none;stroke-width:0.63897192;stroke-linecap:butt;stroke-linejoin:miter;stroke-miterlimit:4;stroke-dasharray:none;stroke-dashoffset:0;stroke-opacity:1;marker:none;marker-start:none;marker-mid:none;marker-end:none;color-rendering:auto;image-rendering:auto;shape-rendering:auto;text-rendering:auto;enable-background:accumulate"
       d="M 25,700.00137 A 15.9678,15.9678 0 0 0 9.032032,715.96941 15.9678,15.9678 0 0 0 25,731.93733 15.9678,15.9678 0 0 0 40.967968,715.96941 15.9678,15.9678 0 0 0 25,700.00137 Z"
       id="path4195"
       inkscape:connector-curvature="0" />
    <path
       style="color:#000000;clip-rule:nonzero;display:inline;overflow:visible;visibility:visible;opacity:1;isolation:auto;mix-blend-mode:normal;color-interpolation:sRGB;color-interpolation-filters:linearRGB;solid-color:#000000;solid-opacity:1;fill:#ffffff;fill-opacity:1;fill-rule:nonzero;stroke:none;stroke-width:0.63897192;stroke-linecap:butt;stroke-linejoin:miter;stroke-miterlimit:4;stroke-dasharray:none;stroke-dashoffset:0;stroke-opacity:1;marker:none;marker-start:none;marker-mid:none;marker-end:none;color-rendering:auto;image-rendering:auto;shape-rendering:auto;text-rendering:auto;enable-background:accumulate"
       d="m 29.256256,705.79749 0,20.34612 -13.312512,-10.1742 13.312512,-10.17192 z"
       id="path4397"
       inkscape:connector-curvature="0" />
  </g>
  <g
     id="g4248"
     transform="translate(0,3.599602)">
    <path
       inkscape:connector-curvature="0"
       style="color:#000000;clip-rule:nonzero;display:inline;overflow:visible;visibility:visible;opacity:1;isolation:auto;mix-blend-mode:normal;color-interpolation:sRGB;color-interpolation-filters:linearRGB;solid-color:#000000;solid-opacity:1;fill:#fefcfd;fill-opacity:1;fill-rule:nonzero;stroke:#fefcfd;stroke-width:7.19999981;stroke-linecap:butt;stroke-linejoin:miter;stroke-miterlimit:4;stroke-dasharray:none;stroke-dashoffset:0;stroke-opacity:1;marker:none;marker-start:none;marker-mid:none;marker-end:none;color-rendering:auto;image-rendering:auto;shape-rendering:auto;text-rendering:auto;enable-background:accumulate"
       d="M 25,800.0016 A 15.9678,15.9678 0 0 1 40.967968,815.96957 15.9678,15.9678 0 0 1 25,831.93754 15.9678,15.9678 0 0 1 9.032032,815.96957 15.9678,15.9678 0 0 1 25,800.0016 Z"
       id="path4234" />
    <path
       id="path4214"
       d="M 25,800.0016 A 15.9678,15.9678 0 0 1 40.967968,815.96957 15.9678,15.9678 0 0 1 25,831.93754 15.9678,15.9678 0 0 1 9.032032,815.96957 15.9678,15.9678 0 0 1 25,800.0016 Z"
       style="color:#000000;clip-rule:nonzero;display:inline;overflow:visible;visibility:visible;opacity:1;isolation:auto;mix-blend-mode:normal;color-interpolation:sRGB;color-interpolation-filters:linearRGB;solid-color:#000000;solid-opacity:1;fill:url(#linearGradient6247);fill-opacity:1;fill-rule:nonzero;stroke:none;stroke-width:0.63897192;stroke-linecap:butt;stroke-linejoin:miter;stroke-miterlimit:4;stroke-dasharray:none;stroke-dashoffset:0;stroke-opacity:1;marker:none;marker-start:none;marker-mid:none;marker-end:none;color-rendering:auto;image-rendering:auto;shape-rendering:auto;text-rendering:auto;enable-background:accumulate"
       inkscape:connector-curvature="0" />
    <path
       id="path17238-1"
       d="m 20.743744,805.7977 0,20.34609 13.312512,-10.17422 -13.312512,-10.17187 z"
       style="color:#000000;clip-rule:nonzero;display:inline;overflow:visible;visibility:visible;opacity:1;isolation:auto;mix-blend-mode:normal;color-interpolation:sRGB;color-interpolation-filters:linearRGB;solid-color:#000000;solid-opacity:1;fill:#ffffff;fill-opacity:1;fill-rule:nonzero;stroke:none;stroke-width:0.63897192;stroke-linecap:butt;stroke-linejoin:miter;stroke-miterlimit:4;stroke-dasharray:none;stroke-dashoffset:0;stroke-opacity:1;marker:none;marker-start:none;marker-mid:none;marker-end:none;color-rendering:auto;image-rendering:auto;shape-rendering:auto;text-rendering:auto;enable-background:accumulate"
       inkscape:connector-curvature="0" />
  </g>
  <g
     id="g4271"
     transform="matrix(1.2,0,0,1.2,-10.864758,-280.25453)">
    <path
       style="color:#000000;clip-rule:nonzero;display:inline;overflow:visible;visibility:visible;opacity:1;isolation:auto;mix-blend-mode:normal;color-interpolation:sRGB;color-interpolation-filters:linearRGB;solid-color:#000000;solid-opacity:1;fill:#fefcfd;fill-opacity:1;fill-rule:nonzero;stroke:#fefcfd;stroke-width:6;stroke-linecap:butt;stroke-linejoin:miter;stroke-miterlimit:4;stroke-dasharray:none;stroke-dashoffset:0;stroke-opacity:1;marker:none;marker-start:none;marker-mid:none;marker-end:none;color-rendering:auto;image-rendering:auto;shape-rendering:auto;text-rendering:auto;enable-background:accumulate"
       inkscape:connector-curvature="0"
       d="m 21.570298,1236.5485 c -1.225,0 -2.217,0.991 -2.217,2.217 l 0,22.178 c 0,1.225 0.992,2.218 2.217,2.218 l 16.633,0 c 1.225,0 2.218,-0.993 2.218,-2.218 l 0,-16.678 c 0,-0.742 -0.294,-1.402 -0.765,-1.879 l -5.034,-5.024 c -0.499,-0.503 -1.198,-0.813 -1.962,-0.813 l -11.09,0 z m 7.762,3.881 c 0,-0.61 0.5,-1.109 1.109,-1.109 0.609,0 1.109,0.499 1.109,1.109 l 0,4.158 c 0,0.46 0.371,0.831 0.831,0.831 l 4.158,0 c 0.61,0 1.108,0.499 1.108,1.109 0,0.609 -0.498,1.109 -1.108,1.109 l -4.989,0 c -1.226,0 -2.219,-0.994 -2.219,-2.219 l 0,-4.988 z"
       id="path18759-6" />
    <path
       id="path165-1"
       d="m 21.570298,1236.5485 c -1.225,0 -2.217,0.991 -2.217,2.217 l 0,22.178 c 0,1.225 0.992,2.218 2.217,2.218 l 16.633,0 c 1.225,0 2.218,-0.993 2.218,-2.218 l 0,-16.678 c 0,-0.742 -0.294,-1.402 -0.765,-1.879 l -5.034,-5.024 c -0.499,-0.503 -1.198,-0.813 -1.962,-0.813 l -11.09,0 z m 7.762,3.881 c 0,-0.61 0.5,-1.109 1.109,-1.109 0.609,0 1.109,0.499 1.109,1.109 l 0,4.158 c 0,0.46 0.371,0.831 0.831,0.831 l 4.158,0 c 0.61,0 1.108,0.499 1.108,1.109 0,0.609 -0.498,1.109 -1.108,1.109 l -4.989,0 c -1.226,0 -2.219,-0.994 -2.219,-2.219 l 0,-4.988 z"
       inkscape:connector-curvature="0"
       style="color:#000000;clip-rule:nonzero;display:inline;overflow:visible;visibility:visible;opacity:1;isolation:auto;mix-blend-mode:normal;color-interpolation:sRGB;color-interpolation-filters:linearRGB;solid-color:#000000;solid-opacity:1;fill:url(#linearGradient17837-1);fill-opacity:1;fill-rule:nonzero;stroke:none;stroke-width:0.63897192;stroke-linecap:butt;stroke-linejoin:miter;stroke-miterlimit:4;stroke-dasharray:none;stroke-dashoffset:0;stroke-opacity:1;marker:none;marker-start:none;marker-mid:none;marker-end:none;color-rendering:auto;image-rendering:auto;shape-rendering:auto;text-rendering:auto;enable-background:accumulate" />
  </g>
  <g
     id="g4288"
     transform="matrix(1.2,0,0,1.2,-18.415233,-154.85455)">
    <path
       style="color:#000000;clip-rule:nonzero;display:inline;overflow:visible;visibility:visible;opacity:1;isolation:auto;mix-blend-mode:normal;color-interpolation:sRGB;color-interpolation-filters:linearRGB;solid-color:#000000;solid-opacity:1;fill:#fefcfd;fill-opacity:1;fill-rule:nonzero;stroke:#fefcfd;stroke-width:6;stroke-linecap:butt;stroke-linejoin:miter;stroke-miterlimit:4;stroke-dasharray:none;stroke-dashoffset:0;stroke-opacity:1;marker:none;marker-start:none;marker-mid:none;marker-end:none;color-rendering:auto;image-rendering:auto;shape-rendering:auto;text-rendering:auto;enable-background:accumulate"
       inkscape:connector-curvature="0"
       d="m 35.900361,648.66346 c -0.619,-0.787 -1.164,-1.175 -2.512,-1.309 -0.243,-0.044 -0.42,-0.255 -0.42,-0.504 0,-0.183 0.599,-0.732 0.592,-0.737 0.622,-0.627 0.955,-1.641 0.955,-2.424 0,-1.214 -1.075,-2.217 -2.495,-2.217 -1.447,0 -2.495,1.003 -2.495,2.217 0,0.788 0.326,1.808 0.948,2.435 0,0 0.599,0.544 0.599,0.727 0,0.26 -0.199,0.482 -0.466,0.515 -1.319,0.134 -1.853,0.521 -2.467,1.298 -0.173,0.228 -0.272,0.676 -0.277,0.915 l 0,1.043 c 0,0.459 0.382,0.831 0.854,0.831 l 6.608,0 c 0.473,0 0.854,-0.372 0.854,-0.831 l 0,-1.043 c 0,-0.241 -0.1,-0.689 -0.278,-0.916 z m 6.654,-6.081 -2.772,0 c -0.765,0 -1.386,0.621 -1.386,1.385 0,0.766 0.621,1.387 1.386,1.387 l 2.772,0 c 0.765,0 1.387,-0.621 1.387,-1.387 0,-0.764 -0.622,-1.385 -1.387,-1.385 z m 0,4.989 -2.772,0 c -0.765,0 -1.386,0.621 -1.386,1.386 0,0.765 0.621,1.386 1.386,1.386 l 2.772,0 c 0.765,0 1.387,-0.621 1.387,-1.386 0,-0.765 -0.622,-1.386 -1.387,-1.386 z m -19.681,6.652 c 0,1.227 0.992,2.218 2.217,2.218 l 22.177,0 c 1.226,0 2.218,-0.991 2.218,-2.218 l 0,-17.74 c 0,-1.227 -0.992,-2.218 -2.218,-2.218 l -6.653,0 0,-0.998 c 0,-0.677 -0.543,-1.221 -1.219,-1.221 l -6.432,0 c -0.676,0 -1.219,0.544 -1.219,1.221 l 0,0.998 -6.654,0 c -1.225,0 -2.217,0.991 -2.217,2.218 l 0,17.74 z m 3.991,-17.186 4.88,0 0,0.998 c 0,0.677 0.543,1.22 1.219,1.22 l 6.432,0 c 0.676,0 1.219,-0.543 1.219,-1.22 l 0,-0.998 4.879,0 c 0.676,0 1.221,0.543 1.221,1.22 l 0,14.192 c 0,0.678 -0.545,1.221 -1.221,1.221 l -18.628,0 c -0.677,0 -1.22,-0.543 -1.22,-1.221 l 0,-14.192 c 0,-0.677 0.542,-1.22 1.219,-1.22 z"
       id="path18750-1" />
    <path
       id="path143-5"
       d="m 35.900361,648.66346 c -0.619,-0.787 -1.164,-1.175 -2.512,-1.309 -0.243,-0.044 -0.42,-0.255 -0.42,-0.504 0,-0.183 0.599,-0.732 0.592,-0.737 0.622,-0.627 0.955,-1.641 0.955,-2.424 0,-1.214 -1.075,-2.217 -2.495,-2.217 -1.447,0 -2.495,1.003 -2.495,2.217 0,0.788 0.326,1.808 0.948,2.435 0,0 0.599,0.544 0.599,0.727 0,0.26 -0.199,0.482 -0.466,0.515 -1.319,0.134 -1.853,0.521 -2.467,1.298 -0.173,0.228 -0.272,0.676 -0.277,0.915 l 0,1.043 c 0,0.459 0.382,0.831 0.854,0.831 l 6.608,0 c 0.473,0 0.854,-0.372 0.854,-0.831 l 0,-1.043 c 0,-0.241 -0.1,-0.689 -0.278,-0.916 z m 6.654,-6.081 -2.772,0 c -0.765,0 -1.386,0.621 -1.386,1.385 0,0.766 0.621,1.387 1.386,1.387 l 2.772,0 c 0.765,0 1.387,-0.621 1.387,-1.387 0,-0.764 -0.622,-1.385 -1.387,-1.385 z m 0,4.989 -2.772,0 c -0.765,0 -1.386,0.621 -1.386,1.386 0,0.765 0.621,1.386 1.386,1.386 l 2.772,0 c 0.765,0 1.387,-0.621 1.387,-1.386 0,-0.765 -0.622,-1.386 -1.387,-1.386 z m -19.681,6.652 c 0,1.227 0.992,2.218 2.217,2.218 l 22.177,0 c 1.226,0 2.218,-0.991 2.218,-2.218 l 0,-17.74 c 0,-1.227 -0.992,-2.218 -2.218,-2.218 l -6.653,0 0,-0.998 c 0,-0.677 -0.543,-1.221 -1.219,-1.221 l -6.432,0 c -0.676,0 -1.219,0.544 -1.219,1.221 l 0,0.998 -6.654,0 c -1.225,0 -2.217,0.991 -2.217,2.218 l 0,17.74 z m 3.991,-17.186 4.88,0 0,0.998 c 0,0.677 0.543,1.22 1.219,1.22 l 6.432,0 c 0.676,0 1.219,-0.543 1.219,-1.22 l 0,-0.998 4.879,0 c 0.676,0 1.221,0.543 1.221,1.22 l 0,14.192 c 0,0.678 -0.545,1.221 -1.221,1.221 l -18.628,0 c -0.677,0 -1.22,-0.543 -1.22,-1.221 l 0,-14.192 c 0,-0.677 0.542,-1.22 1.219,-1.22 z"
       inkscape:connector-curvature="0"
       style="color:#000000;clip-rule:nonzero;display:inline;overflow:visible;visibility:visible;opacity:1;isolation:auto;mix-blend-mode:normal;color-interpolation:sRGB;color-interpolation-filters:linearRGB;solid-color:#000000;solid-opacity:1;fill:url(#linearGradient17826-0);fill-opacity:1;fill-rule:nonzero;stroke:none;stroke-width:0.63897192;stroke-linecap:butt;stroke-linejoin:miter;stroke-miterlimit:4;stroke-dasharray:none;stroke-dashoffset:0;stroke-opacity:1;marker:none;marker-start:none;marker-mid:none;marker-end:none;color-rendering:auto;image-rendering:auto;shape-rendering:auto;text-rendering:auto;enable-background:accumulate" />
  </g>
  <g
     id="g4306"
     transform="matrix(1.2,0,0,1.2,-14.010789,-120.76262)">
    <path
       style="color:#000000;clip-rule:nonzero;display:inline;overflow:visible;visibility:visible;opacity:1;isolation:auto;mix-blend-mode:normal;color-interpolation:sRGB;color-interpolation-filters:linearRGB;solid-color:#000000;solid-opacity:1;fill:#fefcfd;fill-opacity:1;fill-rule:nonzero;stroke:#fefcfd;stroke-width:6;stroke-linecap:butt;stroke-linejoin:miter;stroke-miterlimit:4;stroke-dasharray:none;stroke-dashoffset:0;stroke-opacity:1;marker:none;marker-start:none;marker-mid:none;marker-end:none;color-rendering:auto;image-rendering:auto;shape-rendering:auto;text-rendering:auto;enable-background:accumulate"
       inkscape:connector-curvature="0"
       d="m 23.852337,539.53002 c 0,0 1.663,-1.485 4.99,-1.485 3.903,0 7.035,2.771 10.411,2.771 2.885,0 4.989,-1.247 6.133,-2.394 0.365,-0.367 0.643,-0.999 0.643,-1.592 l 0,-13.517 c 0,-0.675 -0.465,-1.231 -1.146,-1.231 -0.462,0 -0.81,0.277 -1.16,0.627 -0.471,0.47 -1.852,1.474 -5.161,1.474 -3.021,0 -5.417,-2.771 -9.32,-2.771 -3.76,0 -5.389,1.226 -5.389,1.226 l 0,-0.949 c 0,-0.764 -0.621,-1.386 -1.387,-1.386 -0.765,0 -1.385,0.622 -1.385,1.386 l 0,23.84 c 0,0.766 0.62,1.385 1.385,1.385 0.766,0 1.387,-0.62 1.387,-1.385 l 0,-5.999 z m 2.218,-13.684 0,8.872 c 0,0.61 -0.499,1.108 -1.108,1.108 -0.61,0 -1.109,-0.498 -1.109,-1.108 l 0,-8.872 c 0,-0.61 0.499,-1.108 1.109,-1.108 0.609,0 1.108,0.499 1.108,1.108 z"
       id="path18741-9" />
    <path
       id="path77-9"
       d="m 23.852337,539.53002 c 0,0 1.663,-1.485 4.99,-1.485 3.903,0 7.035,2.771 10.411,2.771 2.885,0 4.989,-1.247 6.133,-2.394 0.365,-0.367 0.643,-0.999 0.643,-1.592 l 0,-13.517 c 0,-0.675 -0.465,-1.231 -1.146,-1.231 -0.462,0 -0.81,0.277 -1.16,0.627 -0.471,0.47 -1.852,1.474 -5.161,1.474 -3.021,0 -5.417,-2.771 -9.32,-2.771 -3.76,0 -5.389,1.226 -5.389,1.226 l 0,-0.949 c 0,-0.764 -0.621,-1.386 -1.387,-1.386 -0.765,0 -1.385,0.622 -1.385,1.386 l 0,23.84 c 0,0.766 0.62,1.385 1.385,1.385 0.766,0 1.387,-0.62 1.387,-1.385 l 0,-5.999 z m 2.218,-13.684 0,8.872 c 0,0.61 -0.499,1.108 -1.108,1.108 -0.61,0 -1.109,-0.498 -1.109,-1.108 l 0,-8.872 c 0,-0.61 0.499,-1.108 1.109,-1.108 0.609,0 1.108,0.499 1.108,1.108 z"
       inkscape:connector-curvature="0"
       style="color:#000000;clip-rule:nonzero;display:inline;overflow:visible;visibility:visible;opacity:1;isolation:auto;mix-blend-mode:normal;color-interpolation:sRGB;color-interpolation-filters:linearRGB;solid-color:#000000;solid-opacity:1;fill:url(#linearGradient17815-8);fill-opacity:1;fill-rule:nonzero;stroke:none;stroke-width:0.63897192;stroke-linecap:butt;stroke-linejoin:miter;stroke-miterlimit:4;stroke-dasharray:none;stroke-dashoffset:0;stroke-opacity:1;marker:none;marker-start:none;marker-mid:none;marker-end:none;color-rendering:auto;image-rendering:auto;shape-rendering:auto;text-rendering:auto;enable-background:accumulate" />
  </g>
  <g
     id="g4323"
     transform="matrix(1.2,0,0,1.2,-10.235552,-94.29236)">
    <path
       style="color:#000000;clip-rule:nonzero;display:inline;overflow:visible;visibility:visible;opacity:1;isolation:auto;mix-blend-mode:normal;color-interpolation:sRGB;color-interpolation-filters:linearRGB;solid-color:#000000;solid-opacity:1;fill:#fefcfd;fill-opacity:1;fill-rule:nonzero;stroke:#fefcfd;stroke-width:6;stroke-linecap:butt;stroke-linejoin:miter;stroke-miterlimit:4;stroke-dasharray:none;stroke-dashoffset:0;stroke-opacity:1;marker:none;marker-start:none;marker-mid:none;marker-end:none;color-rendering:auto;image-rendering:auto;shape-rendering:auto;text-rendering:auto;enable-background:accumulate"
       inkscape:connector-curvature="0"
       d="m 26.92346,421.80397 0.011,0.017 c 0.251,0.199 0.405,0.509 0.405,0.853 0,0.61 -0.493,1.11 -1.109,1.11 l -6.287,0 c -1.225,0 -2.217,0.991 -2.217,2.217 l 0,4.281 c 0,0.609 0.498,1.108 1.108,1.108 0.338,0 0.637,-0.149 0.844,-0.389 0.037,-0.044 0.171,-0.183 0.199,-0.209 0.598,-0.566 1.402,-0.91 2.284,-0.91 1.835,0 3.325,1.491 3.325,3.327 0,1.835 -1.49,3.326 -3.325,3.326 -0.888,0 -1.697,-0.349 -2.297,-0.915 -0.021,-0.021 -0.154,-0.15 -0.187,-0.2 -0.207,-0.238 -0.511,-0.394 -0.854,-0.394 -0.611,0 -1.109,0.5 -1.109,1.109 l 0.012,3.17 c 0,1.226 0.992,2.217 2.217,2.217 l 18.851,0 c 1.226,0 2.217,-0.991 2.217,-2.217 l 0,-4.834 c 0,-0.608 -0.498,-1.108 -1.108,-1.108 -0.311,0 -0.593,0.126 -0.797,0.338 l -0.218,0.233 c -0.599,0.582 -1.413,0.937 -2.313,0.937 -1.834,0 -3.325,-1.492 -3.325,-3.327 0,-1.836 1.491,-3.327 3.325,-3.327 0.904,0 1.719,0.361 2.319,0.943 l 0.171,0.182 c 0.205,0.233 0.504,0.383 0.837,0.383 0.61,0 1.108,-0.5 1.108,-1.108 l 0,-2.617 c 0,-1.226 -0.991,-2.217 -2.217,-2.217 l -6.299,0 c -0.609,0 -1.108,-0.5 -1.108,-1.11 0,-0.31 0.128,-0.593 0.338,-0.797 0.926,-0.705 1.525,-1.825 1.525,-3.084 0,-2.145 -1.735,-3.881 -3.881,-3.881 -2.146,0 -3.882,1.736 -3.882,3.881 0,1.215 0.561,2.302 1.437,3.012 z"
       id="path18732-6" />
    <path
       id="path79-0"
       d="m 26.92346,421.80397 0.011,0.017 c 0.251,0.199 0.405,0.509 0.405,0.853 0,0.61 -0.493,1.11 -1.109,1.11 l -6.287,0 c -1.225,0 -2.217,0.991 -2.217,2.217 l 0,4.281 c 0,0.609 0.498,1.108 1.108,1.108 0.338,0 0.637,-0.149 0.844,-0.389 0.037,-0.044 0.171,-0.183 0.199,-0.209 0.598,-0.566 1.402,-0.91 2.284,-0.91 1.835,0 3.325,1.491 3.325,3.327 0,1.835 -1.49,3.326 -3.325,3.326 -0.888,0 -1.697,-0.349 -2.297,-0.915 -0.021,-0.021 -0.154,-0.15 -0.187,-0.2 -0.207,-0.238 -0.511,-0.394 -0.854,-0.394 -0.611,0 -1.109,0.5 -1.109,1.109 l 0.012,3.17 c 0,1.226 0.992,2.217 2.217,2.217 l 18.851,0 c 1.226,0 2.217,-0.991 2.217,-2.217 l 0,-4.834 c 0,-0.608 -0.498,-1.108 -1.108,-1.108 -0.311,0 -0.593,0.126 -0.797,0.338 l -0.218,0.233 c -0.599,0.582 -1.413,0.937 -2.313,0.937 -1.834,0 -3.325,-1.492 -3.325,-3.327 0,-1.836 1.491,-3.327 3.325,-3.327 0.904,0 1.719,0.361 2.319,0.943 l 0.171,0.182 c 0.205,0.233 0.504,0.383 0.837,0.383 0.61,0 1.108,-0.5 1.108,-1.108 l 0,-2.617 c 0,-1.226 -0.991,-2.217 -2.217,-2.217 l -6.299,0 c -0.609,0 -1.108,-0.5 -1.108,-1.11 0,-0.31 0.128,-0.593 0.338,-0.797 0.926,-0.705 1.525,-1.825 1.525,-3.084 0,-2.145 -1.735,-3.881 -3.881,-3.881 -2.146,0 -3.882,1.736 -3.882,3.881 0,1.215 0.561,2.302 1.437,3.012 z"
       inkscape:connector-curvature="0"
       style="color:#000000;clip-rule:nonzero;display:inline;overflow:visible;visibility:visible;opacity:1;isolation:auto;mix-blend-mode:normal;color-interpolation:sRGB;color-interpolation-filters:linearRGB;solid-color:#000000;solid-opacity:1;fill:url(#linearGradient17804-0);fill-opacity:1;fill-rule:nonzero;stroke:none;stroke-width:0.63897192;stroke-linecap:butt;stroke-linejoin:miter;stroke-miterlimit:4;stroke-dasharray:none;stroke-dashoffset:0;stroke-opacity:1;marker:none;marker-start:none;marker-mid:none;marker-end:none;color-rendering:auto;image-rendering:auto;shape-rendering:auto;text-rendering:auto;enable-background:accumulate" />
  </g>
  <g
     id="g4340"
     transform="matrix(1.2,0,0,1.2,-23.448883,-84.193554)">
    <path
       style="color:#000000;clip-rule:nonzero;display:inline;overflow:visible;visibility:visible;opacity:1;isolation:auto;mix-blend-mode:normal;color-interpolation:sRGB;color-interpolation-filters:linearRGB;solid-color:#000000;solid-opacity:1;fill:#fefcfd;fill-opacity:1;fill-rule:nonzero;stroke:#fefcfd;stroke-width:6;stroke-linecap:butt;stroke-linejoin:miter;stroke-miterlimit:4;stroke-dasharray:none;stroke-dashoffset:0;stroke-opacity:1;marker:none;marker-start:none;marker-mid:none;marker-end:none;color-rendering:auto;image-rendering:auto;shape-rendering:auto;text-rendering:auto;enable-background:accumulate"
       inkscape:connector-curvature="0"
       d="m 39.890047,338.46663 -9.397,9.396 c -0.199,0.2 -0.321,0.476 -0.321,0.782 0,0.609 0.493,1.108 1.108,1.108 0.161,0 0.311,-0.034 0.449,-0.095 0,0 15.657,-6.785 15.835,-6.869 0.365,-0.165 0.648,-0.487 0.759,-0.887 l 2.534,-9.13 0.51,0.504 c 0.532,0.532 1.392,0.532 1.924,0 0.532,-0.532 0.532,-1.393 0,-1.923 l -7.813,-7.813 c -0.531,-0.532 -1.391,-0.532 -1.923,0 -0.532,0.534 -0.532,1.393 0,1.924 l 0.504,0.505 -9.147,2.544 c -0.399,0.117 -0.721,0.405 -0.888,0.783 l -6.857,15.823 c -0.055,0.132 -0.089,0.277 -0.089,0.431 0,0.616 0.499,1.109 1.109,1.109 0.315,0 0.599,-0.127 0.798,-0.338 l 9.381,-9.38 c -0.128,-0.328 -0.2,-0.677 -0.2,-1.047 0,-1.531 1.243,-2.773 2.772,-2.773 1.53,0 2.771,1.242 2.771,2.773 0,1.53 -1.241,2.771 -2.771,2.771 -0.371,0 -0.721,-0.071 -1.048,-0.198 z"
       id="path18723-2" />
    <path
       id="path139-7"
       d="m 39.890047,338.46663 -9.397,9.396 c -0.199,0.2 -0.321,0.476 -0.321,0.782 0,0.609 0.493,1.108 1.108,1.108 0.161,0 0.311,-0.034 0.449,-0.095 0,0 15.657,-6.785 15.835,-6.869 0.365,-0.165 0.648,-0.487 0.759,-0.887 l 2.534,-9.13 0.51,0.504 c 0.532,0.532 1.392,0.532 1.924,0 0.532,-0.532 0.532,-1.393 0,-1.923 l -7.813,-7.813 c -0.531,-0.532 -1.391,-0.532 -1.923,0 -0.532,0.534 -0.532,1.393 0,1.924 l 0.504,0.505 -9.147,2.544 c -0.399,0.117 -0.721,0.405 -0.888,0.783 l -6.857,15.823 c -0.055,0.132 -0.089,0.277 -0.089,0.431 0,0.616 0.499,1.109 1.109,1.109 0.315,0 0.599,-0.127 0.798,-0.338 l 9.381,-9.38 c -0.128,-0.328 -0.2,-0.677 -0.2,-1.047 0,-1.531 1.243,-2.773 2.772,-2.773 1.53,0 2.771,1.242 2.771,2.773 0,1.53 -1.241,2.771 -2.771,2.771 -0.371,0 -0.721,-0.071 -1.048,-0.198 z"
       inkscape:connector-curvature="0"
       style="color:#000000;clip-rule:nonzero;display:inline;overflow:visible;visibility:visible;opacity:1;isolation:auto;mix-blend-mode:normal;color-interpolation:sRGB;color-interpolation-filters:linearRGB;solid-color:#000000;solid-opacity:1;fill:url(#linearGradient17793-1);fill-opacity:1;fill-rule:nonzero;stroke:none;stroke-width:0.63897192;stroke-linecap:butt;stroke-linejoin:miter;stroke-miterlimit:4;stroke-dasharray:none;stroke-dashoffset:0;stroke-opacity:1;marker:none;marker-start:none;marker-mid:none;marker-end:none;color-rendering:auto;image-rendering:auto;shape-rendering:auto;text-rendering:auto;enable-background:accumulate" />
  </g>
  <g
     id="g4357"
     transform="matrix(1.2,0,0,1.2,6.7530182,-270.89697)">
    <path
       style="color:#000000;clip-rule:nonzero;display:inline;overflow:visible;visibility:visible;opacity:1;isolation:auto;mix-blend-mode:normal;color-interpolation:sRGB;color-interpolation-filters:linearRGB;solid-color:#000000;solid-opacity:1;fill:#fefcfd;fill-opacity:1;fill-rule:nonzero;stroke:#fefcfd;stroke-width:6;stroke-linecap:butt;stroke-linejoin:miter;stroke-miterlimit:4;stroke-dasharray:none;stroke-dashoffset:0;stroke-opacity:1;marker:none;marker-start:none;marker-mid:none;marker-end:none;color-rendering:auto;image-rendering:auto;shape-rendering:auto;text-rendering:auto;enable-background:accumulate"
       inkscape:connector-curvature="0"
       d="m 15.203318,1312.0839 c -0.493,0 -0.902,0.333 -1.031,0.787 l -2.616,8.083 -8.5929997,0 c -0.595,0 -1.064,0.517 -1.064,1.114 0,0.367 0.184,0.694 0.46,0.888 0.172,0.117 6.941,5.061 6.941,5.061 0,0 -2.601,7.985 -2.65,8.111 -0.039,0.117 -0.067,0.245 -0.067,0.377 0,0.6 0.482,1.082 1.077,1.082 0.226,0 0.438,-0.072 0.614,-0.193 l 6.9299997,-5.045 c 0,0 6.776,4.935 6.932,5.045 0.176,0.122 0.388,0.193 0.613,0.193 0.595,0 1.077,-0.487 1.077,-1.082 0,-0.132 -0.027,-0.26 -0.066,-0.377 -0.051,-0.126 -2.651,-8.111 -2.651,-8.111 0,0 6.77,-4.944 6.942,-5.061 0.277,-0.194 0.461,-0.521 0.461,-0.893 0,-0.593 -0.461,-1.109 -1.055,-1.109 l -8.594,0 -2.627,-8.083 c -0.129,-0.454 -0.539,-0.787 -1.033,-0.787 z"
       id="path18714-8" />
    <path
       id="path75-2"
       d="m 15.203318,1312.0839 c -0.493,0 -0.902,0.333 -1.031,0.787 l -2.616,8.083 -8.5929997,0 c -0.595,0 -1.064,0.517 -1.064,1.114 0,0.367 0.184,0.694 0.46,0.888 0.172,0.117 6.941,5.061 6.941,5.061 0,0 -2.601,7.985 -2.65,8.111 -0.039,0.117 -0.067,0.245 -0.067,0.377 0,0.6 0.482,1.082 1.077,1.082 0.226,0 0.438,-0.072 0.614,-0.193 l 6.9299997,-5.045 c 0,0 6.776,4.935 6.932,5.045 0.176,0.122 0.388,0.193 0.613,0.193 0.595,0 1.077,-0.487 1.077,-1.082 0,-0.132 -0.027,-0.26 -0.066,-0.377 -0.051,-0.126 -2.651,-8.111 -2.651,-8.111 0,0 6.77,-4.944 6.942,-5.061 0.277,-0.194 0.461,-0.521 0.461,-0.893 0,-0.593 -0.461,-1.109 -1.055,-1.109 l -8.594,0 -2.627,-8.083 c -0.129,-0.454 -0.539,-0.787 -1.033,-0.787 z"
       inkscape:connector-curvature="0"
       style="color:#000000;clip-rule:nonzero;display:inline;overflow:visible;visibility:visible;opacity:1;isolation:auto;mix-blend-mode:normal;color-interpolation:sRGB;color-interpolation-filters:linearRGB;solid-color:#000000;solid-opacity:1;fill:url(#linearGradient17782-5);fill-opacity:1;fill-rule:nonzero;stroke:none;stroke-width:0.63897192;stroke-linecap:butt;stroke-linejoin:miter;stroke-miterlimit:4;stroke-dasharray:none;stroke-dashoffset:0;stroke-opacity:1;marker:none;marker-start:none;marker-mid:none;marker-end:none;color-rendering:auto;image-rendering:auto;shape-rendering:auto;text-rendering:auto;enable-background:accumulate" />
  </g>
  <g
     id="g4374"
     transform="matrix(1.2,0,0,1.2,1.0901618,-19.91402)"
     inkscape:transform-center-x="-13.435028"
     inkscape:transform-center-y="16.3065">
    <path
       id="path155-6-9"
       d="m 8.8363654,105.14652 0,22.177 c 0,1.227 0.992,2.218 2.2169996,2.218 l 18.573,0 c 0.766,0 1.387,-0.621 1.387,-1.387 0,-0.766 -0.621,-1.385 -1.387,-1.385 l -16.91,0 c -0.609,0 -1.108,-0.5 -1.108,-1.109 0,-0.61 0.499,-1.109 1.108,-1.109 l 16.079,0 c 1.226,0 2.218,-0.992 2.218,-2.218 l 0,-17.187 c 0,-1.225 -0.992,-2.218 -2.218,-2.218 l -7.762,0 0,9.975 c 0,0.144 -0.056,0.287 -0.161,0.398 -0.217,0.217 -0.572,0.217 -0.787,0 -0.145,-0.149 -2.379,-2.007 -2.379,-2.007 0,0 -2.234,1.857 -2.379,2.007 -0.216,0.217 -0.57,0.217 -0.787,0 -0.105,-0.111 -0.16,-0.255 -0.16,-0.398 l 0,-9.975 -3.327,0 c -1.2249996,0 -2.2169996,0.993 -2.2169996,2.218 z"
       inkscape:connector-curvature="0"
       style="color:#000000;clip-rule:nonzero;display:inline;overflow:visible;visibility:visible;opacity:1;isolation:auto;mix-blend-mode:normal;color-interpolation:sRGB;color-interpolation-filters:linearRGB;solid-color:#000000;solid-opacity:1;fill:#fefcfd;fill-opacity:1;fill-rule:nonzero;stroke:#fefcfd;stroke-width:6;stroke-linecap:butt;stroke-linejoin:miter;stroke-miterlimit:4;stroke-dasharray:none;stroke-dashoffset:0;stroke-opacity:1;marker:none;marker-start:none;marker-mid:none;marker-end:none;color-rendering:auto;image-rendering:auto;shape-rendering:auto;text-rendering:auto;enable-background:accumulate" />
    <path
       style="color:#000000;clip-rule:nonzero;display:inline;overflow:visible;visibility:visible;opacity:1;isolation:auto;mix-blend-mode:normal;color-interpolation:sRGB;color-interpolation-filters:linearRGB;solid-color:#000000;solid-opacity:1;fill:url(#linearGradient18694-1);fill-opacity:1;fill-rule:nonzero;stroke:none;stroke-width:0.63897192;stroke-linecap:butt;stroke-linejoin:miter;stroke-miterlimit:4;stroke-dasharray:none;stroke-dashoffset:0;stroke-opacity:1;marker:none;marker-start:none;marker-mid:none;marker-end:none;color-rendering:auto;image-rendering:auto;shape-rendering:auto;text-rendering:auto;enable-background:accumulate"
       inkscape:connector-curvature="0"
       d="m 8.8363654,105.14652 0,22.177 c 0,1.227 0.992,2.218 2.2169996,2.218 l 18.573,0 c 0.766,0 1.387,-0.621 1.387,-1.387 0,-0.766 -0.621,-1.385 -1.387,-1.385 l -16.91,0 c -0.609,0 -1.108,-0.5 -1.108,-1.109 0,-0.61 0.499,-1.109 1.108,-1.109 l 16.079,0 c 1.226,0 2.218,-0.992 2.218,-2.218 l 0,-17.187 c 0,-1.225 -0.992,-2.218 -2.218,-2.218 l -7.762,0 0,9.975 c 0,0.144 -0.056,0.287 -0.161,0.398 -0.217,0.217 -0.572,0.217 -0.787,0 -0.145,-0.149 -2.379,-2.007 -2.379,-2.007 0,0 -2.234,1.857 -2.379,2.007 -0.216,0.217 -0.57,0.217 -0.787,0 -0.105,-0.111 -0.16,-0.255 -0.16,-0.398 l 0,-9.975 -3.327,0 c -1.2249996,0 -2.2169996,0.993 -2.2169996,2.218 z"
       id="path18692-9" />
  </g>
  <g
     id="g4391"
     transform="matrix(1.2,0,0,1.2,-3.9434888,-50.839091)">
    <path
       style="color:#000000;clip-rule:nonzero;display:inline;overflow:visible;visibility:visible;opacity:1;isolation:auto;mix-blend-mode:normal;color-interpolation:sRGB;color-interpolation-filters:linearRGB;solid-color:#000000;solid-opacity:1;fill:#fefcfd;fill-opacity:1;fill-rule:nonzero;stroke:#fefcfd;stroke-width:6;stroke-linecap:butt;stroke-linejoin:miter;stroke-miterlimit:4;stroke-dasharray:none;stroke-dashoffset:0;stroke-opacity:1;marker:none;marker-start:none;marker-mid:none;marker-end:none;color-rendering:auto;image-rendering:auto;shape-rendering:auto;text-rendering:auto;enable-background:accumulate"
       inkscape:connector-curvature="0"
       d="m 11.090574,225.99722 c 0,7.197 5.833,13.028 13.029,13.028 7.196,0 13.029,-5.831 13.029,-13.028 0,-7.197 -5.833,-13.028 -13.029,-13.028 -7.197,0 -13.029,5.83 -13.029,13.028 z m 2.772,0 c 0,-0.666 0.061,-1.313 0.183,-1.94 l 2.661,0 c -0.05,0.549 -0.072,1.104 -0.072,1.663 0,0.559 0.022,1.114 0.072,1.662 l -2.755,0 c -0.061,-0.454 -0.089,-0.914 -0.089,-1.385 z m 1.147,-4.712 c 0.81,-1.57 2.013,-2.9 3.482,-3.864 -0.583,1.225 -1.037,2.517 -1.353,3.864 l -2.129,0 z m 7.64,-5.441 0.083,-0.011 0,5.451 -2.727,0 c 0.549,-1.986 1.453,-3.826 2.644,-5.44 z m 2.856,-0.01 0.077,0.011 c 1.192,1.613 2.102,3.454 2.651,5.44 l -2.728,0 0,-5.451 z m 4.236,1.587 c 1.469,0.964 2.677,2.294 3.487,3.864 l -2.134,0 c -0.311,-1.348 -0.771,-2.64 -1.353,-3.864 z m 4.452,6.635 c 0.122,0.627 0.183,1.274 0.183,1.94 0,0.472 -0.033,0.932 -0.094,1.385 l -2.745,0 c 0.044,-0.548 0.067,-1.103 0.067,-1.662 0,-0.559 -0.022,-1.114 -0.067,-1.663 l 2.656,0 z m -0.694,6.099 c -0.871,1.957 -2.334,3.593 -4.164,4.673 0.776,-1.458 1.37,-3.026 1.758,-4.673 l 2.406,0 z m -14.597,4.673 c -1.83,-1.08 -3.293,-2.716 -4.164,-4.673 l 2.406,0 c 0.388,1.646 0.981,3.221 1.758,4.673 z m 0.587,-10.772 3.243,0 0,3.325 -3.243,0 c -0.055,-0.548 -0.083,-1.103 -0.083,-1.662 0,-0.559 0.028,-1.114 0.083,-1.663 z m 6.016,0 3.243,0 c 0.056,0.549 0.083,1.104 0.083,1.663 0,0.559 -0.028,1.114 -0.083,1.662 l -3.243,0 0,-3.325 z m -5.5,6.099 2.727,0 0,5.544 c -1.23,-1.642 -2.167,-3.515 -2.727,-5.544 z m 5.5,0 2.728,0 c -0.561,2.029 -1.497,3.902 -2.728,5.544 l 0,-5.544 z"
       id="path18705-3" />
    <path
       id="path191-2"
       d="m 11.090574,225.99722 c 0,7.197 5.833,13.028 13.029,13.028 7.196,0 13.029,-5.831 13.029,-13.028 0,-7.197 -5.833,-13.028 -13.029,-13.028 -7.197,0 -13.029,5.83 -13.029,13.028 z m 2.772,0 c 0,-0.666 0.061,-1.313 0.183,-1.94 l 2.661,0 c -0.05,0.549 -0.072,1.104 -0.072,1.663 0,0.559 0.022,1.114 0.072,1.662 l -2.755,0 c -0.061,-0.454 -0.089,-0.914 -0.089,-1.385 z m 1.147,-4.712 c 0.81,-1.57 2.013,-2.9 3.482,-3.864 -0.583,1.225 -1.037,2.517 -1.353,3.864 l -2.129,0 z m 7.64,-5.441 0.083,-0.011 0,5.451 -2.727,0 c 0.549,-1.986 1.453,-3.826 2.644,-5.44 z m 2.856,-0.01 0.077,0.011 c 1.192,1.613 2.102,3.454 2.651,5.44 l -2.728,0 0,-5.451 z m 4.236,1.587 c 1.469,0.964 2.677,2.294 3.487,3.864 l -2.134,0 c -0.311,-1.348 -0.771,-2.64 -1.353,-3.864 z m 4.452,6.635 c 0.122,0.627 0.183,1.274 0.183,1.94 0,0.472 -0.033,0.932 -0.094,1.385 l -2.745,0 c 0.044,-0.548 0.067,-1.103 0.067,-1.662 0,-0.559 -0.022,-1.114 -0.067,-1.663 l 2.656,0 z m -0.694,6.099 c -0.871,1.957 -2.334,3.593 -4.164,4.673 0.776,-1.458 1.37,-3.026 1.758,-4.673 l 2.406,0 z m -14.597,4.673 c -1.83,-1.08 -3.293,-2.716 -4.164,-4.673 l 2.406,0 c 0.388,1.646 0.981,3.221 1.758,4.673 z m 0.587,-10.772 3.243,0 0,3.325 -3.243,0 c -0.055,-0.548 -0.083,-1.103 -0.083,-1.662 0,-0.559 0.028,-1.114 0.083,-1.663 z m 6.016,0 3.243,0 c 0.056,0.549 0.083,1.104 0.083,1.663 0,0.559 -0.028,1.114 -0.083,1.662 l -3.243,0 0,-3.325 z m -5.5,6.099 2.727,0 0,5.544 c -1.23,-1.642 -2.167,-3.515 -2.727,-5.544 z m 5.5,0 2.728,0 c -0.561,2.029 -1.497,3.902 -2.728,5.544 l 0,-5.544 z"
       inkscape:connector-curvature="0"
       style="color:#000000;clip-rule:nonzero;display:inline;overflow:visible;visibility:visible;opacity:1;isolation:auto;mix-blend-mode:normal;color-interpolation:sRGB;color-interpolation-filters:linearRGB;solid-color:#000000;solid-opacity:1;fill:url(#linearGradient17771-5);fill-opacity:1;fill-rule:nonzero;stroke:none;stroke-width:0.63897192;stroke-linecap:butt;stroke-linejoin:miter;stroke-miterlimit:4;stroke-dasharray:none;stroke-dashoffset:0;stroke-opacity:1;marker:none;marker-start:none;marker-mid:none;marker-end:none;color-rendering:auto;image-rendering:auto;shape-rendering:auto;text-rendering:auto;enable-background:accumulate" />
  </g>
</svg>
