<?xml version="1.0" encoding="utf-8"?>
<!-- Generator: Adobe Illustrator 15.1.0, SVG Export Plug-In . SVG Version: 6.00 Build 0)  -->
<!DOCTYPE svg PUBLIC "-//W3C//DTD SVG 1.1//EN" "http://www.w3.org/Graphics/SVG/1.1/DTD/svg11.dtd">
<svg version="1.1"
	 id="svg2" inkscape:version="0.91 r13725" sodipodi:docname="refs.svg" xmlns:dc="http://purl.org/dc/elements/1.1/" xmlns:cc="http://creativecommons.org/ns#" xmlns:rdf="http://www.w3.org/1999/02/22-rdf-syntax-ns#" xmlns:svg="http://www.w3.org/2000/svg" xmlns:sodipodi="http://sodipodi.sourceforge.net/DTD/sodipodi-0.dtd" xmlns:inkscape="http://www.inkscape.org/namespaces/inkscape"
	 xmlns="http://www.w3.org/2000/svg" xmlns:xlink="http://www.w3.org/1999/xlink" x="0px" y="0px" width="13.637px"
	 height="71.451px" viewBox="0 0 13.637 71.451" enable-background="new 0 0 13.637 71.451" xml:space="preserve">
<sodipodi:namedview  id="namedview41" inkscape:bbox-paths="true" inkscape:snap-bbox="true" inkscape:snap-midpoints="true" inkscape:snap-center="true" inkscape:snap-global="false" inkscape:current-layer="svg2" inkscape:window-y="24" inkscape:window-x="49" fit-margin-bottom="0" fit-margin-right="0" inkscape:object-nodes="true" inkscape:window-height="1056" inkscape:window-width="1871" inkscape:pageshadow="2" inkscape:pageopacity="0" inkscape:cx="77.734815" inkscape:zoom="2.8284271" guidetolerance="10" gridtolerance="10" fit-margin-left="0" fit-margin-top="0" objecttolerance="10" borderopacity="1" bordercolor="#666666" showgrid="false" pagecolor="#ffffff" inkscape:cy="33.198104" inkscape:snap-smooth-nodes="true" inkscape:snap-intersection-paths="true" inkscape:snap-object-midpoints="true" inkscape:window-maximized="1">
	</sodipodi:namedview>
<g id="g19819" transform="matrix(0.59864017,0,0,0.59663753,-262.66816,-181.42706)">
	
		<path id="path19821" sodipodi:open="true" sodipodi:end="5.7888609" sodipodi:start="0" sodipodi:ry="4.3489318" sodipodi:rx="4.4251795" sodipodi:cy="246.00186" sodipodi:cx="534.16028" sodipodi:type="arc" fill-opacity="0" stroke="#525252" stroke-width="2.853" stroke-linecap="round" stroke-linejoin="round" d="
		M458.041,385.704c-0.535,2.128-2.587,3.468-4.785,3.125c-2.199-0.344-3.853-2.262-3.86-4.475c-0.005-2.213,1.639-4.026,3.835-4.228
		c2.196-0.203,4.256,1.268,4.804,3.432"/>
	
		<path id="path19823" inkscape:connector-curvature="0" fill-opacity="0" stroke="#525252" stroke-width="2.8524" stroke-linecap="round" stroke-linejoin="round" d="
		M450.24,380.951l-8.926-8.927"/>
	
		<path id="path19825" sodipodi:nodetypes="cccc" inkscape:connector-curvature="0" fill-opacity="0" stroke="#525252" stroke-width="2.8524" stroke-linecap="round" stroke-linejoin="round" d="
		M440.216,375.325l1.403-1.403l2.94,2.94l-1.403,1.403"/>
</g>
<g id="g19827" transform="matrix(0.95176592,0,0,0.95438045,-554.25034,-776.75701)">
	
		<path id="path19829" inkscape:connector-curvature="0" fill="#FFFFFF" stroke="#525252" stroke-width="1.7886" stroke-linecap="round" stroke-linejoin="round" d="
		M583.238,887.847l3.668-10.247"/>
	
		<path id="path19831" sodipodi:nodetypes="cc" inkscape:connector-curvature="0" fill="#FFFFFF" stroke="#525252" stroke-width="1.7886" stroke-linecap="round" stroke-linejoin="round" d="
		M590.574,887.847l-3.668-10.247"/>
	
		<path id="path19833" inkscape:connector-curvature="0" fill="#FFFFFF" stroke="#525252" stroke-width="1.7886" stroke-linecap="round" stroke-linejoin="round" d="
		M589.332,884.375h-3.262"/>
</g>
<g id="g19845" transform="matrix(0.99497178,0,0,0.99484999,-259.33645,-896.63128)">
	
		<path id="path19847" sodipodi:nodetypes="cccc" inkscape:connector-curvature="0" fill="none" stroke="#525252" stroke-width="1.5942" stroke-linecap="round" stroke-linejoin="round" d="
		M265.943,911.751l-4.499-0.759v-8.922l6.056,0.968"/>
	
		<path id="path19849" sodipodi:nodetypes="cccc" inkscape:connector-curvature="0" fill="none" stroke="#525252" stroke-width="1.5942" stroke-linecap="round" stroke-linejoin="round" d="
		M267.5,911.915l6.056-0.923v-8.922l-4.499,0.759"/>
	
		<path id="path19851" sodipodi:nodetypes="cc" inkscape:connector-curvature="0" fill="none" stroke="#525252" stroke-width="1.7134" stroke-linecap="round" stroke-linejoin="round" d="
		M267.5,911.915v-8.877"/>
</g>
<g id="g19853" transform="matrix(0.43994449,0,0,0.44268832,889.70876,-110.32136)">
	<path id="path19855" inkscape:connector-curvature="0" fill="#525252" d="M-2006.336,315.317h-0.013v-12.931l0,0
		c0.011-0.382,0.289-0.708,0.675-0.759c0.426-0.06,0.819,0.24,0.879,0.666c0,0.031,0,0.062,0.011,0.088l0,0v0.06
		c0,0,0.011,0.004,0,0.013v12.475l0.011-0.004v0.011c0,2.074,1.678,3.752,3.751,3.752c2.071,0,3.751-1.679,3.751-3.752
		c0,0,0,0-0.011-0.004l0,0v-16.062c0-0.071-0.011-0.148-0.02-0.221c-0.18-1.332-1.407-2.272-2.739-2.091
		c-1.239,0.163-2.138,1.235-2.12,2.453l0,0v12.422l0,0c0,0.049,0.011,0.099,0.011,0.148c0.082,0.613,0.65,1.048,1.265,0.964
		c0.537-0.073,0.939-0.518,0.972-1.041v-5.804c-0.049-0.419,0.251-0.801,0.673-0.858c0.424-0.057,0.817,0.243,0.875,0.666
		c0.011,0.035,0.011,0.066,0.011,0.095v5.83l0.011,0.004c0,1.321-0.981,2.475-2.326,2.654c-1.465,0.192-2.812-0.836-3.01-2.301
		c-0.016-0.101-0.025-0.199-0.025-0.296l0,0V298.96l0,0c0.011-1.959,1.465-3.666,3.467-3.938c2.184-0.291,4.198,1.246,4.493,3.43
		c0.013,0.124,0.024,0.247,0.031,0.51v-0.137c0,0.066,0,0.128,0,0.194l0,0v15.982c-0.033,2.903-2.4,5.257-5.31,5.252
		c-2.804,0.002-5.101-2.173-5.299-4.928L-2006.336,315.317z"/>
	
		<path id="path19857" sodipodi:nodetypes="ccccc" inkscape:connector-curvature="0" fill-opacity="0" stroke="#525252" stroke-width="3.8628" stroke-linecap="round" stroke-linejoin="round" d="
		M-2008.642,313.466h-11.749V290.65h20.575v2.153"/>
</g>
</svg>
