<?xml version="1.0" encoding="utf-8"?>
<!-- Generator: Adobe Illustrator 15.1.0, SVG Export Plug-In . SVG Version: 6.00 Build 0)  -->
<!DOCTYPE svg PUBLIC "-//W3C//DTD SVG 1.1//EN" "http://www.w3.org/Graphics/SVG/1.1/DTD/svg11.dtd">
<svg version="1.1"
	 id="svg2" inkscape:version="0.91 r13725" sodipodi:docname="btnZen.svg" xmlns:dc="http://purl.org/dc/elements/1.1/" xmlns:cc="http://creativecommons.org/ns#" xmlns:rdf="http://www.w3.org/1999/02/22-rdf-syntax-ns#" xmlns:svg="http://www.w3.org/2000/svg" xmlns:sodipodi="http://sodipodi.sourceforge.net/DTD/sodipodi-0.dtd" xmlns:inkscape="http://www.inkscape.org/namespaces/inkscape"
	 xmlns="http://www.w3.org/2000/svg" xmlns:xlink="http://www.w3.org/1999/xlink" x="0px" y="0px" width="50px" height="150px"
	 viewBox="0 0 50 150" enable-background="new 0 0 50 150" xml:space="preserve">
<sodipodi:namedview  id="namedview41" inkscape:current-layer="g3841" inkscape:window-y="-8" inkscape:window-x="1912" fit-margin-bottom="0" fit-margin-right="0" inkscape:object-nodes="true" inkscape:window-height="1017" inkscape:window-width="1920" inkscape:pageshadow="2" inkscape:pageopacity="0" inkscape:cx="-361.85835" inkscape:zoom="0.95358234" guidetolerance="10" gridtolerance="10" fit-margin-left="0" fit-margin-top="0" objecttolerance="10" borderopacity="1" bordercolor="#666666" showgrid="false" pagecolor="#ffffff" inkscape:cy="179.43999" inkscape:window-maximized="1">
	</sodipodi:namedview>
<g id="g3841" transform="translate(-4.9388333e-5,-200.0004)">
	<g id="fullScreen" transform="translate(-767.49984,-252.75131)">
		<g id="g3801" transform="matrix(-1,0,0,1,1497.7739,-16.010149)">
			<path id="path3803" inkscape:connector-curvature="0" fill="#9E1B69" d="M730.274,493.762
				c0.011,13.807-11.173,25.009-24.98,25.02c-13.807,0.011-25.009-11.173-25.02-24.98c0-0.013,0-0.026,0-0.04
				c-0.012-13.807,11.173-25.009,24.98-25.02c13.807-0.011,25.009,11.173,25.02,24.98
				C730.274,493.735,730.274,493.749,730.274,493.762z"/>
		</g>
		<path id="rect3807" inkscape:connector-curvature="0" fill="#FFFFFF" d="M777.5,462.752v4v8l4-4l4,4l4-4l-4-4l4-4h-8H777.5z"/>
		<path id="path3816" inkscape:connector-curvature="0" fill="#FFFFFF" d="M807.5,462.752v4v8l-4-4l-4,4l-4-4l4-4l-4-4h8H807.5z"/>
		<path id="path3820" inkscape:connector-curvature="0" fill="#FFFFFF" d="M777.5,492.752v-4v-8l4,4l4-4l4,4l-4,4l4,4h-8H777.5z"/>
		<path id="path3822" inkscape:connector-curvature="0" fill="#FFFFFF" d="M807.5,492.752v-4v-8l-4,4l-4-4l-4,4l4,4l-4,4h8H807.5z"
			/>
	</g>
	<g id="restore" transform="translate(-676.73844,-311.19022)">
		<g id="g3834" transform="matrix(-1,0,0,1,1407.0125,142.42896)">
			<path id="path3836" inkscape:connector-curvature="0" fill="#9E1B69" d="M730.274,493.762c0.011,13.808-11.173,25.01-24.98,25.02
				c-13.807,0.012-25.008-11.172-25.02-24.979c0-0.013,0-0.026,0-0.04c-0.011-13.807,11.174-25.009,24.98-25.02
				c13.808-0.011,25.009,11.173,25.02,24.98C730.274,493.735,730.274,493.748,730.274,493.762z"/>
		</g>
		<path id="path3838" inkscape:connector-curvature="0" fill="#FFFFFF" d="M698.739,633.191v-4v-8l-4,4l-4-4l-4,4l4,4l-4,4h8
			H698.739z"/>
		<path id="path3840" inkscape:connector-curvature="0" fill="#FFFFFF" d="M704.739,633.191v-4v-8l4,4l4-4l4,4l-4,4l4,4h-8H704.739z
			"/>
		<path id="path3842" inkscape:connector-curvature="0" fill="#FFFFFF" d="M698.739,639.191v4v8l-4-4l-4,4l-4-4l4-4l-4-4h8H698.739z
			"/>
		<path id="path3844" inkscape:connector-curvature="0" fill="#FFFFFF" d="M704.739,639.191v4v8l4-4l4,4l4-4l-4-4l4-4h-8H704.739z"
			/>
	</g>
</g>
</svg>
