<?xml version="1.0" encoding="UTF-8" standalone="no"?>
<!-- Generator: Adobe Illustrator 16.0.0, SVG Export Plug-In . SVG Version: 6.00 Build 0)  -->

<svg
   xmlns:dc="http://purl.org/dc/elements/1.1/"
   xmlns:cc="http://creativecommons.org/ns#"
   xmlns:rdf="http://www.w3.org/1999/02/22-rdf-syntax-ns#"
   xmlns:svg="http://www.w3.org/2000/svg"
   xmlns="http://www.w3.org/2000/svg"
   xmlns:xlink="http://www.w3.org/1999/xlink"
   xmlns:sodipodi="http://sodipodi.sourceforge.net/DTD/sodipodi-0.dtd"
   xmlns:inkscape="http://www.inkscape.org/namespaces/inkscape"
   version="1.1"
   x="0px"
   y="0px"
   width="40.000019"
   height="327.13596"
   viewBox="0 0 40.000019 327.13596"
   enable-background="new 0 0 32 160"
   xml:space="preserve"
   id="svg2"
   inkscape:version="0.91 r13725"
   sodipodi:docname="buttons.svg"><metadata
     id="metadata331"><rdf:RDF><cc:Work
         rdf:about=""><dc:format>image/svg+xml</dc:format><dc:type
           rdf:resource="http://purl.org/dc/dcmitype/StillImage" /><dc:title></dc:title></cc:Work></rdf:RDF></metadata><defs
     id="defs329"><linearGradient
       inkscape:collect="always"
       id="linearGradient4258"><stop
         style="stop-color:#831657;stop-opacity:1"
         offset="0"
         id="stop4260" /><stop
         style="stop-color:#a71d6f;stop-opacity:1"
         offset="1"
         id="stop4262" /></linearGradient><linearGradient
       inkscape:collect="always"
       id="linearGradient4198"><stop
         style="stop-color:#a61d6e;stop-opacity:1;"
         offset="0"
         id="stop4200" /><stop
         style="stop-color:#831657;stop-opacity:1"
         offset="1"
         id="stop4202" /></linearGradient><linearGradient
       inkscape:collect="always"
       xlink:href="#linearGradient17715"
       id="linearGradient16277"
       gradientUnits="userSpaceOnUse"
       gradientTransform="matrix(0.84969887,0,0,0.84969887,130.36127,-903.75089)"
       x1="102.5"
       y1="1264.3621"
       x2="102.5"
       y2="1240.8621" /><linearGradient
       inkscape:collect="always"
       id="linearGradient17715"><stop
         style="stop-color:#831657;stop-opacity:1"
         offset="0"
         id="stop17717" /><stop
         style="stop-color:#a71d6f;stop-opacity:1"
         offset="1"
         id="stop17719" /></linearGradient><linearGradient
       inkscape:collect="always"
       xlink:href="#linearGradient17715"
       id="linearGradient16261"
       gradientUnits="userSpaceOnUse"
       gradientTransform="matrix(0.84969887,0,0,0.84969887,6002.5562,223.51814)"
       x1="102.5"
       y1="1264.3621"
       x2="102.5"
       y2="1240.8621" /><linearGradient
       inkscape:collect="always"
       xlink:href="#linearGradient17715"
       id="linearGradient16243"
       gradientUnits="userSpaceOnUse"
       gradientTransform="matrix(0.84969887,0,0,0.84969887,-76.6372,-992.82402)"
       x1="102.5"
       y1="1264.3621"
       x2="102.5"
       y2="1240.8621" /><linearGradient
       inkscape:collect="always"
       xlink:href="#linearGradient17715"
       id="linearGradient16277-3"
       gradientUnits="userSpaceOnUse"
       gradientTransform="matrix(1.0196386,0,0,1.0196386,-91.96464,-1263.389)"
       x1="102.5"
       y1="1264.3621"
       x2="102.5"
       y2="1240.8621" /><linearGradient
       inkscape:collect="always"
       xlink:href="#linearGradient17715"
       id="linearGradient4192"
       gradientUnits="userSpaceOnUse"
       x1="102.5"
       y1="1264.3621"
       x2="102.5"
       y2="1240.8621" /><linearGradient
       inkscape:collect="always"
       xlink:href="#linearGradient4198"
       id="linearGradient4204"
       x1="100.28557"
       y1="1244.3842"
       x2="100.28557"
       y2="1260.8406"
       gradientUnits="userSpaceOnUse" /><linearGradient
       inkscape:collect="always"
       xlink:href="#linearGradient4258"
       id="linearGradient4264"
       x1="45.403271"
       y1="306.70203"
       x2="45.403271"
       y2="293.71375"
       gradientUnits="userSpaceOnUse" /></defs><sodipodi:namedview
     pagecolor="#ffffff"
     bordercolor="#666666"
     borderopacity="1"
     objecttolerance="10"
     gridtolerance="10"
     guidetolerance="10"
     inkscape:pageopacity="0"
     inkscape:pageshadow="2"
     inkscape:window-width="1871"
     inkscape:window-height="1056"
     id="namedview327"
     showgrid="false"
     inkscape:zoom="4.17193"
     inkscape:cx="-39.500589"
     inkscape:cy="104.74091"
     inkscape:window-x="49"
     inkscape:window-y="24"
     inkscape:window-maximized="1"
     inkscape:current-layer="svg2"
     fit-margin-top="0"
     fit-margin-left="0"
     fit-margin-right="0"
     fit-margin-bottom="0" /><g
     transform="matrix(1.0196386,0,0,1.0196386,-91.964611,-1263.3887)"
     id="g4188"><path
       id="path4190"
       d="m 103.5,1239.0554 a 13.3065,13.3065 0 0 0 -13.30664,13.3067 13.3065,13.3065 0 0 0 13.30664,13.3066 13.3065,13.3065 0 0 0 13.3066,-13.3066 13.3065,13.3065 0 0 0 -13.3066,-13.3067 z m -3.54688,4.8301 11.09378,8.4766 -11.09378,8.4785 0,-16.9551 z"
       style="color:#000000;clip-rule:nonzero;display:inline;overflow:visible;visibility:visible;opacity:1;isolation:auto;mix-blend-mode:normal;color-interpolation:sRGB;color-interpolation-filters:linearRGB;solid-color:#000000;solid-opacity:1;fill:url(#linearGradient4192);fill-opacity:1;fill-rule:nonzero;stroke:none;stroke-width:0.63897192;stroke-linecap:butt;stroke-linejoin:miter;stroke-miterlimit:4;stroke-dasharray:none;stroke-dashoffset:0;stroke-opacity:1;marker:none;marker-start:none;marker-mid:none;marker-end:none;color-rendering:auto;image-rendering:auto;shape-rendering:auto;text-rendering:auto;enable-background:accumulate"
       inkscape:connector-curvature="0" /></g><g
     id="g16219"
     transform="matrix(1.0196386,0,0,1.0196386,-91.964611,-963.38871)"><path
       inkscape:connector-curvature="0"
       id="path4196"
       d="M 103.5,1239.0554 A 13.3065,13.3065 0 0 0 90.19336,1252.3621 13.3065,13.3065 0 0 0 103.5,1265.6687 13.3065,13.3065 0 0 0 116.8066,1252.3621 13.3065,13.3065 0 0 0 103.5,1239.0554 Z"
       style="color:#000000;clip-rule:nonzero;display:inline;overflow:visible;visibility:visible;opacity:1;isolation:auto;mix-blend-mode:normal;color-interpolation:sRGB;color-interpolation-filters:linearRGB;solid-color:#000000;solid-opacity:1;fill:#ffffff;fill-opacity:1;fill-rule:nonzero;stroke:none;stroke-width:0.63897192;stroke-linecap:butt;stroke-linejoin:miter;stroke-miterlimit:4;stroke-dasharray:none;stroke-dashoffset:0;stroke-opacity:1;marker:none;marker-start:none;marker-mid:none;marker-end:none;color-rendering:auto;image-rendering:auto;shape-rendering:auto;text-rendering:auto;enable-background:accumulate" /><path
       inkscape:connector-curvature="0"
       id="path16221"
       d="m 99.95312,1243.8855 11.09378,8.4766 -11.09378,8.4785 0,-16.9551 z"
       style="color:#000000;clip-rule:nonzero;display:inline;overflow:visible;visibility:visible;opacity:1;isolation:auto;mix-blend-mode:normal;color-interpolation:sRGB;color-interpolation-filters:linearRGB;solid-color:#000000;solid-opacity:1;fill:url(#linearGradient4204);fill-opacity:1;fill-rule:nonzero;stroke:none;stroke-width:0.63897192;stroke-linecap:butt;stroke-linejoin:miter;stroke-miterlimit:4;stroke-dasharray:none;stroke-dashoffset:0;stroke-opacity:1;marker:none;marker-start:none;marker-mid:none;marker-end:none;color-rendering:auto;image-rendering:auto;shape-rendering:auto;text-rendering:auto;enable-background:accumulate" /></g><g
     id="g16235"
     transform="matrix(1.2,0,0,1.2,-7295.0321,-1421.8282)"><path
       inkscape:connector-curvature="0"
       id="path16237"
       transform="translate(6079.1934,1174.8568)"
       d="M 11.306641,60 A 11.306518,11.306518 0 0 0 0,71.306641 11.306518,11.306518 0 0 0 11.306641,82.613281 11.306518,11.306518 0 0 0 22.613281,71.306641 11.306518,11.306518 0 0 0 11.306641,60 Z m -5.7636722,4.103516 5.5000002,4.203125 0,-4.203125 9.425781,7.203125 -9.425781,7.205078 0,-4.205078 -5.5000002,4.205078 0,-14.408203 z"
       style="color:#000000;clip-rule:nonzero;display:inline;overflow:visible;visibility:visible;opacity:1;isolation:auto;mix-blend-mode:normal;color-interpolation:sRGB;color-interpolation-filters:linearRGB;solid-color:#000000;solid-opacity:1;fill:url(#linearGradient16243);fill-opacity:1;fill-rule:nonzero;stroke:none;stroke-width:0.63897192;stroke-linecap:butt;stroke-linejoin:miter;stroke-miterlimit:4;stroke-dasharray:none;stroke-dashoffset:0;stroke-opacity:1;marker:none;marker-start:none;marker-mid:none;marker-end:none;color-rendering:auto;image-rendering:auto;shape-rendering:auto;text-rendering:auto;enable-background:accumulate" /></g><g
     id="g16255"
     transform="matrix(1.2,0,0,1.2,-7295.0321,-1411.6106)"><path
       inkscape:connector-curvature="0"
       id="path16257"
       d="m 6090.5,1276.3422 a 11.306518,11.306518 0 0 0 -11.3066,11.3066 11.306518,11.306518 0 0 0 11.3066,11.3066 11.306518,11.306518 0 0 0 11.3066,-11.3066 11.306518,11.306518 0 0 0 -11.3066,-11.3066 z"
       style="color:#000000;clip-rule:nonzero;display:inline;overflow:visible;visibility:visible;opacity:1;isolation:auto;mix-blend-mode:normal;color-interpolation:sRGB;color-interpolation-filters:linearRGB;solid-color:#000000;solid-opacity:1;fill:url(#linearGradient16261);fill-opacity:1;fill-rule:nonzero;stroke:none;stroke-width:0.63897192;stroke-linecap:butt;stroke-linejoin:miter;stroke-miterlimit:4;stroke-dasharray:none;stroke-dashoffset:0;stroke-opacity:1;marker:none;marker-start:none;marker-mid:none;marker-end:none;color-rendering:auto;image-rendering:auto;shape-rendering:auto;text-rendering:auto;enable-background:accumulate" /><path
       d="m 6085.7145,1293.7073 2.8682,-2.8682 -1.273,-1.2731 -2.8683,2.8683 1.2731,1.273 m 9.571,0 1.2731,-1.273 -2.8683,-2.8683 -1.273,1.2731 2.8682,2.8682 m -7.9758,-7.9758 1.273,-1.2731 -2.8682,-2.8682 -1.2731,1.2731 2.8683,2.8682 m -4.4788,1.0123 0,1.8099 4.0646,0 0,-1.8099 -4.0646,0 m 11.2736,1.8099 4.0646,0 0,-1.8099 -4.0646,0 0,1.8099 m -2.6995,6.7642 0,-4.0646 -1.8099,0 0,4.0646 1.8099,0 m 0,-11.2736 0,-4.0645 -1.8099,0 0,4.0645 1.8099,0"
       style="font-style:normal;font-variant:normal;font-weight:normal;font-stretch:normal;font-size:35.3381691px;line-height:150%;font-family:'Web Symbols';-inkscape-font-specification:'Web Symbols';text-align:start;word-spacing:0px;writing-mode:lr-tb;text-anchor:start;fill:#ffffff;fill-opacity:1;stroke:none"
       id="path16259"
       inkscape:connector-curvature="0" /></g><g
     transform="matrix(1.2,0,0,1.2,-248.39814,1.1120136)"
     id="g4207"><path
       style="color:#000000;clip-rule:nonzero;display:inline;overflow:visible;visibility:visible;opacity:1;isolation:auto;mix-blend-mode:normal;color-interpolation:sRGB;color-interpolation-filters:linearRGB;solid-color:#000000;solid-opacity:1;fill:url(#linearGradient16277);fill-opacity:1;fill-rule:nonzero;stroke:none;stroke-width:0.63897192;stroke-linecap:butt;stroke-linejoin:miter;stroke-miterlimit:4;stroke-dasharray:none;stroke-dashoffset:0;stroke-opacity:1;marker:none;marker-start:none;marker-mid:none;marker-end:none;color-rendering:auto;image-rendering:auto;shape-rendering:auto;text-rendering:auto;enable-background:accumulate"
       d="m 218.30507,149.07331 a 11.306518,11.306518 0 0 0 -11.3066,11.3066 11.306518,11.306518 0 0 0 11.3066,11.3066 11.306518,11.306518 0 0 0 11.3066,-11.3066 11.306518,11.306518 0 0 0 -11.3066,-11.3066 z"
       id="path16273"
       inkscape:connector-curvature="0" /><path
       d="m 222.08507,160.89321 c 0,2.0912 -1.6775,3.7916 -3.7685,3.7916 -2.0911,0 -3.7915,-1.7004 -3.7915,-3.7916 0,-2.0679 1.6775,-3.7453 3.7685,-3.7684 l -0.5285,3.3779 5.8366,-4.4349 -6.0665,-4.182 0.7354,3.171 c -1.5394,0 -2.9872,0.6204 -4.0901,1.7004 -1.1031,1.1259 -1.7234,2.5736 -1.7234,4.136 0,1.5627 0.6203,3.0333 1.7234,4.1362 1.1029,1.1259 2.5736,1.7234 4.1361,1.7234 1.5624,0 3.0331,-0.5975 4.1361,-1.7234 1.103,-1.1029 1.7004,-2.5735 1.7004,-4.1362 l -2.068,0"
       style="font-style:normal;font-variant:normal;font-weight:normal;font-stretch:normal;font-size:47.03503036px;line-height:100%;font-family:'Modern Pictograms';-inkscape-font-specification:'Modern Pictograms';text-align:start;writing-mode:lr-tb;text-anchor:start;fill:#ffffff;fill-opacity:1;stroke:none"
       id="path16275"
       inkscape:connector-curvature="0" /></g><path
     inkscape:connector-curvature="0"
     id="path4196-9"
     d="M 13.567984,239.99999 A 13.567821,13.567821 0 0 0 2.000161e-5,253.56802 13.567821,13.567821 0 0 0 13.567984,267.13594 13.567821,13.567821 0 0 0 27.135907,253.56802 13.567821,13.567821 0 0 0 13.567984,239.99999 Z"
     style="color:#000000;clip-rule:nonzero;display:inline;overflow:visible;visibility:visible;opacity:1;isolation:auto;mix-blend-mode:normal;color-interpolation:sRGB;color-interpolation-filters:linearRGB;solid-color:#000000;solid-opacity:1;fill:#ffffff;fill-opacity:1;fill-rule:nonzero;stroke:none;stroke-width:0.63897192;stroke-linecap:butt;stroke-linejoin:miter;stroke-miterlimit:4;stroke-dasharray:none;stroke-dashoffset:0;stroke-opacity:1;marker:none;marker-start:none;marker-mid:none;marker-end:none;color-rendering:auto;image-rendering:auto;shape-rendering:auto;text-rendering:auto;enable-background:accumulate" /><path
     sodipodi:type="inkscape:offset"
     inkscape:radius="0.30912048"
     inkscape:original="M 55.46875 293.15625 A 0.6200561 0.6200561 0 0 0 55.34375 293.21875 C 52.006599 294.92235 48.354561 298.76019 45.59375 302.84375 C 45.264451 302.16088 44.937977 301.56417 44.59375 301.15625 C 44.217547 300.71043 43.77789 300.375 43.21875 300.375 C 42.541316 300.375 41.937199 300.74083 41.3125 301.28125 A 0.6200561 0.6200561 0 0 0 41.65625 302.375 C 41.878225 302.39642 42.11328 302.50774 42.40625 302.90625 C 42.694104 303.29813 43.130485 304.17422 43.65625 305.40625 L 43.90625 305.96875 C 44.122627 306.48523 44.236381 306.84208 44.28125 307.03125 A 0.6200561 0.6200561 0 0 0 45.28125 307.34375 C 45.531895 307.12566 45.84872 306.89001 46.21875 306.65625 L 46.25 306.65625 L 46.6875 306.375 A 0.6200561 0.6200561 0 0 0 46.96875 306.0625 C 47.555241 304.52201 48.470525 302.88657 49.75 301.15625 A 0.6200561 0.6200561 0 0 0 49.75 301.125 C 51.536891 298.57299 53.853237 296.53872 56.28125 294.8125 A 0.6200561 0.6200561 0 0 0 56.46875 294 L 56.15625 293.46875 A 0.6200561 0.6200561 0 0 0 55.53125 293.15625 A 0.6200561 0.6200561 0 0 0 55.46875 293.15625 z "
     style="color:#000000;display:inline;overflow:visible;visibility:visible;fill:url(#linearGradient4264);fill-opacity:1;fill-rule:nonzero;stroke:none;stroke-width:1.2878269;stroke-linecap:butt;stroke-linejoin:miter;stroke-miterlimit:4;stroke-dasharray:none;stroke-dashoffset:0;stroke-opacity:1;marker:none;enable-background:accumulate"
     id="path17839"
     d="m 55.453125,292.84766 a 0.30915139,0.30915139 0 0 0 -0.08984,0.0176 c -0.06077,0.0222 -0.118987,0.0516 -0.173828,0.0859 -3.310732,1.69503 -6.825982,5.37504 -9.568359,9.33594 -0.254312,-0.49236 -0.504174,-0.99016 -0.791016,-1.33008 -0.403472,-0.47813 -0.92856,-0.89062 -1.611328,-0.89062 -0.78645,0 -1.45816,0.41919 -2.103516,0.97656 -0.280514,0.23415 -0.400571,0.6436 -0.291015,0.99219 0.109372,0.348 0.43942,0.61612 0.802734,0.64843 0.14082,0.0136 0.266793,0.0492 0.529297,0.40625 0.245966,0.33486 0.692551,1.21361 1.214844,2.4375 a 0.30915139,0.30915139 0 0 0 0.002,0.004 l 0.25,0.5625 c 0.209314,0.50061 0.3197,0.85073 0.357422,1.00977 a 0.30915139,0.30915139 0 0 0 0.002,0.008 c 0.08062,0.30105 0.323617,0.55352 0.621094,0.64648 0.297476,0.093 0.639258,0.0238 0.876953,-0.17773 a 0.30915139,0.30915139 0 0 0 0.0039,-0.004 c 0.224336,-0.1952 0.51909,-0.41038 0.853516,-0.625 a 0.30915139,0.30915139 0 0 0 0.08008,-0.0351 l 0.4375,-0.28125 -0.02148,0.0117 c 0.188831,-0.10123 0.341026,-0.26838 0.421875,-0.46679 a 0.30915139,0.30915139 0 0 0 0.002,-0.008 c 0.574326,-1.50854 1.474221,-3.11992 2.740235,-4.83204 a 0.30915139,0.30915139 0 0 0 0.04492,-0.0859 c 1.753445,-2.48722 4.021627,-4.48621 6.414062,-6.1875 0.375328,-0.2604 0.504516,-0.81826 0.28125,-1.2168 a 0.30915139,0.30915139 0 0 0 -0.0039,-0.006 l -0.308594,-0.52539 c -2.34e-4,-4.2e-4 -0.0017,4.2e-4 -0.002,0 -0.180853,-0.32311 -0.566648,-0.51857 -0.933594,-0.46875 l 0.05664,-0.002 c -0.03119,-0.002 -0.06256,-0.002 -0.09375,0 z"
     transform="matrix(1.2364764,0,0,1.2364764,-47.510973,-118.01059)" /></svg>