<?xml version="1.0" encoding="UTF-8" standalone="no"?>
<svg
   xmlns:dc="http://purl.org/dc/elements/1.1/"
   xmlns:cc="http://creativecommons.org/ns#"
   xmlns:rdf="http://www.w3.org/1999/02/22-rdf-syntax-ns#"
   xmlns:svg="http://www.w3.org/2000/svg"
   xmlns="http://www.w3.org/2000/svg"
   xmlns:sodipodi="http://sodipodi.sourceforge.net/DTD/sodipodi-0.dtd"
   xmlns:inkscape="http://www.inkscape.org/namespaces/inkscape"
   enable-background="new 0 0 24 24"
   height="24px"
   id="Layer_1"
   version="1.1"
   viewBox="0 0 24 24"
   width="24px"
   xml:space="preserve"
   inkscape:version="0.91 r13725"
   sodipodi:docname="inactivite.svg"><metadata
     id="metadata29"><rdf:RDF><cc:Work
         rdf:about=""><dc:format>image/svg+xml</dc:format><dc:type
           rdf:resource="http://purl.org/dc/dcmitype/StillImage" /></cc:Work></rdf:RDF></metadata><defs
     id="defs27" /><sodipodi:namedview
     pagecolor="#ffffff"
     bordercolor="#666666"
     borderopacity="1"
     objecttolerance="10"
     gridtolerance="10"
     guidetolerance="10"
     inkscape:pageopacity="0"
     inkscape:pageshadow="2"
     inkscape:window-width="1317"
     inkscape:window-height="723"
     id="namedview25"
     showgrid="false"
     inkscape:zoom="9.8333333"
     inkscape:cx="-0.66101695"
     inkscape:cy="12"
     inkscape:window-x="0"
     inkscape:window-y="0"
     inkscape:window-maximized="0"
     inkscape:current-layer="Layer_1" /><g
     id="g3"
     style="fill:#e4f5f5;fill-opacity:1"><path
       d="M21.8,5.2C19.7,2,16.1,0,12,0C5.4,0,0,5.4,0,12h2C2,6.5,6.5,2,12,2c3.5,0,6.6,1.8,8.4,4.6L18,9h6V3L21.8,5.2z"
       id="path5"
       style="fill:#e4f5f5;fill-opacity:1" /><circle
       cx="4"
       cy="12"
       r="1"
       id="circle7"
       style="fill:#e4f5f5;fill-opacity:1" /><circle
       cx="6.3"
       cy="6.3"
       r="1"
       id="circle9"
       style="fill:#e4f5f5;fill-opacity:1" /><circle
       cx="17.7"
       cy="6.3"
       r="1"
       id="circle11"
       style="fill:#e4f5f5;fill-opacity:1" /><circle
       cx="20"
       cy="12"
       r="1"
       id="circle13"
       style="fill:#e4f5f5;fill-opacity:1" /><path
       d="M16.9,18.4c0.4,0.4,1,0.4,1.4,0c0.4-0.4,0.4-1,0-1.4c-0.4-0.4-1-0.4-1.4,0C16.6,17.3,16.6,18,16.9,18.4z"
       id="path15"
       style="fill:#e4f5f5;fill-opacity:1" /><circle
       cx="12"
       cy="20"
       r="1"
       id="circle17"
       style="fill:#e4f5f5;fill-opacity:1" /><path
       d="M5.6,16.9c-0.4,0.4-0.4,1,0,1.4c0.4,0.4,1,0.4,1.4,0c0.4-0.4,0.4-1,0-1.4C6.7,16.6,6,16.6,5.6,16.9z"
       id="path19"
       style="fill:#e4f5f5;fill-opacity:1" /><path
       d="M12,3c-0.6,0-1,0.4-1,1v6.3c-0.6,0.3-1,1-1,1.7c0,1.1,0.9,2,2,2c0.2,0,0.3,0,0.5-0.1l1.6,1.6c0.4,0.4,1,0.4,1.4,0   s0.4-1,0-1.4l-1.6-1.6c0-0.2,0.1-0.3,0.1-0.5c0-0.7-0.4-1.4-1-1.7V4C13,3.4,12.6,3,12,3z M11,12c0-0.6,0.4-1,1-1s1,0.4,1,1   s-0.4,1-1,1c-0.1,0-0.3,0-0.4-0.1c-0.1-0.1-0.2-0.1-0.3-0.2l0,0C11.1,12.5,11,12.3,11,12z"
       id="path21"
       style="fill:#e4f5f5;fill-opacity:1" /><path
       d="M12,22c-3.5,0-6.6-1.8-8.4-4.6L6,15H0v6l2.2-2.2C4.3,21.9,7.9,24,12,24c6.6,0,12-5.4,12-12h-2C22,17.5,17.5,22,12,22z"
       id="path23"
       style="fill:#e4f5f5;fill-opacity:1" /></g></svg>