<?xml version="1.0" encoding="utf-8"?>
<!-- Generator: Adobe Illustrator 15.1.0, SVG Export Plug-In . SVG Version: 6.00 Build 0)  -->
<!DOCTYPE svg PUBLIC "-//W3C//DTD SVG 1.1//EN" "http://www.w3.org/Graphics/SVG/1.1/DTD/svg11.dtd">
<svg version="1.1" id="Calque_1" xmlns="http://www.w3.org/2000/svg" xmlns:xlink="http://www.w3.org/1999/xlink" x="0px" y="0px"
	 width="32px" height="160px" viewBox="0 0 32 160" enable-background="new 0 0 32 160" xml:space="preserve">
<g id="Ico">
	<g id="Grain_de_contenu">
		<path fill="#434E52" d="M-133.333,7.74c2.129,2.406,3.407,10.181,6,9c1.333-2.666,2.667-5.334,4-8c0.334,0,0.666,0,1,0
			c0.334,3.666,0.666,7.334,1,11c3-2.333,6-4.667,9-7c-0.334,3.333-0.666,6.667-1,10c3-2,6-4,9-6c-0.666,3.666-1.334,7.334-2,11
			c3.333-1.666,6.667-3.334,10-5c-1.333,3.333-2.667,6.667-4,10c3.333-0.666,6.667-1.334,10-2c0,0.334,0,0.667,0,1
			c-1.666,2.666-3.334,5.334-5,8c3.666-0.333,7.334-0.666,11-1c-2.333,2.666-4.667,5.334-7,8c0.666,0,1.334,0,2,0
			c2.666,0.334,5.334,0.667,8,1c-2.666,2-5.334,4-8,6c0.334,0.666,0.666,1.334,1,2c3,0.666,6,1.334,9,2c0,0.334,0,0.667,0,1
			c-3,1.333-6,2.667-9,4c0,0.334,0,0.667,0,1c2.666,1.333,5.334,2.667,8,4c0,0.334,0,0.667,0,1c-3,0.666-6,1.334-9,2
			c0.334,0.666,0.666,1.334,1,2c2.333,1.666,4.667,3.334,7,5c-3.333,0.334-6.667,0.667-10,1c2.333,2.667,4.667,5.334,7,8
			c-3.666,0-7.334,0-11,0c1.666,2.666,3.334,5.334,5,8c-3.333-0.666-6.667-1.334-10-2c1.333,3.332,2.667,6.666,4,10
			c-3.333-1.334-6.667-2.668-10-4c0.666,3.332,1.334,6.666,2,10c-3-2-6-4-9-6c0,3.332,0,6.666,0,10c-2.666-2.334-5.334-4.668-8-7
			c-0.334,3.666-0.666,7.334-1,11c-0.666-0.334-1.334-0.666-2-1c-1.666-2.666-3.334-5.334-5-8c0,0.666,0,1.334,0,2
			c-1,2.666-2,5.334-3,8c-0.334,0-0.667,0-1,0c-1.333-3-2.667-6-4-9c-0.333,0-0.667,0-1,0c-1.333,2.666-2.667,5.334-4,8
			c-0.333,0-0.667,0-1,0c-0.667-3.334-1.333-6.668-2-10c-0.667,0.334-1.333,0.666-2,1c-1.497,3.633-2.642,5.188-6,7
			c0-3.334,0-6.668,0-10c-2.999,2-6.001,4-9,6c0.667-3.666,1.333-7.334,2-11c-3.333,2-6.667,4-10,6c1-3,2-6,3-9
			c-3.333,0.666-6.667,1.334-10,2c1.667-3.334,3.333-6.668,5-10c-3.667,0.666-7.333,1.334-11,2c0.667-0.666,1.333-1.334,2-2
			c1.667-2.334,3.333-4.668,5-7c-3.667,0-7.333,0-11,0c1-1.333,2-2.667,3-4c1.667-1.333,3.333-2.667,5-4
			c-3.667-0.333-7.333-0.666-11-1c0.333-0.666,0.667-1.334,1-2c2.667-1.666,5.333-3.334,8-5c-3.333-1.333-6.667-2.667-10-4
			c3.333-1,6.667-2,10-3c-2.999-2.333-6.001-4.667-9-7c3.667-0.333,7.333-0.666,11-1c-1.333-1.666-2.667-3.334-4-5
			c-1.333-1-2.667-2-4-3c3.667,0,7.333,0,11,0c-1-1-2-2-3-3c-1.333-2-2.667-4-4-6c3.667,0.666,7.333,1.334,11,2
			c-1.667-3.333-3.333-6.667-5-10c3.667,1.333,7.333,2.667,11,4c-0.667-3.333-1.333-6.667-2-10c2.667,1.666,5.333,3.334,8,5
			c-0.333-3.666-0.667-7.334-1-11c2.333,2.333,4.667,4.667,7,7c0.667-0.333,1.333-0.666,2-1c0.333-3.333,0.667-6.667,1-10
			c1.587,3.769,3.481,6.127,7,8c0.667-3,1.333-6,2-9c0.333,0.666,0.667,1.334,1,2c1.333,2.333,2.667,4.667,4,7c0.333,0,0.667,0,1,0
			C-135.333,14.407-134.333,11.073-133.333,7.74z"/>
		<g>
			<polygon fill="#B95A59" points="-156.079,37.445 -154.66,36.435 -153.921,37.712 			"/>
			<path fill="#FFFFFF" d="M-103.435,83.816c0,2.027-1.674,3.631-3.739,3.631h-56.214c-2.066,0-3.843-1.604-3.843-3.631V43.983
				c0-2.028,1.776-3.744,3.843-3.744h56.214c2.065,0,3.739,1.716,3.739,3.744V83.816z"/>
			<rect x="-164.538" y="37.404" fill="#F7F7F7" width="27.22" height="43.097"/>
			<path fill="#C6C5C4" d="M-135.262,82.43c0.255-0.959,1.063-1.689,2.056-1.824v-0.104h-4.111v0.104
				C-136.326,80.738-135.517,81.471-135.262,82.43z"/>
			
				<linearGradient id="SVGID_1_" gradientUnits="userSpaceOnUse" x1="144.8809" y1="1164.3594" x2="148.9932" y2="1164.3594" gradientTransform="matrix(1 0 0 1 -282.2002 -1104.4102)">
				<stop  offset="0" style="stop-color:#EFEFEF"/>
				<stop  offset="1" style="stop-color:#E6E6E6"/>
			</linearGradient>
			<path fill="url(#SVGID_1_)" d="M-133.207,37.471v43.134c-0.992,0.136-1.799,0.863-2.056,1.822
				c-0.256-0.959-1.063-1.688-2.056-1.822V37.471c1.134,0.129,1.814,0.835,2.056,1.768C-135.021,38.306-134.199,37.6-133.207,37.471
				z"/>
			<polygon fill="#EFEFEF" points="-112.65,73.167 -133.491,80.413 -133.491,37.614 -112.65,30.368 			"/>
			<rect x="-164.538" y="80.501" fill="#D1D0CF" width="58.551" height="3.687"/>
			<rect x="-164.538" y="37.404" fill="#F7F7F7" width="27.22" height="43.097"/>
			<rect x="-133.207" y="37.404" fill="#F4F4F4" width="27.22" height="43.097"/>
			
				<linearGradient id="SVGID_2_" gradientUnits="userSpaceOnUse" x1="144.8809" y1="1164.3594" x2="148.9932" y2="1164.3594" gradientTransform="matrix(1 0 0 1 -282.2002 -1104.4102)">
				<stop  offset="0" style="stop-color:#EFEFEF"/>
				<stop  offset="1" style="stop-color:#E6E6E6"/>
			</linearGradient>
			<path fill="url(#SVGID_2_)" d="M-133.207,37.471v43.134c-0.992,0.136-1.799,0.863-2.056,1.822
				c-0.256-0.959-1.063-1.688-2.056-1.822V37.471c1.134,0.129,1.814,0.835,2.056,1.768C-135.021,38.306-134.199,37.6-133.207,37.471
				z"/>
			<polygon fill="#F4F4F4" points="-132.943,37.445 -133.091,37.497 -133.091,37.445 			"/>
			<path fill="#F4F4F4" d="M-105.987,37.404v3.103c-0.425-0.128-0.763-0.268-1.188-0.268h-5.476v-2.835H-105.987z"/>
			<polygon fill="#E0E2E0" points="-112.65,73.247 -133.491,80.523 -133.491,37.534 -112.65,30.256 			"/>
			<polygon fill="#F67876" points="-157.094,68.679 -154.755,70.625 -154.755,36.411 -159.434,36.411 -159.434,70.623 			"/>
		</g>
	</g>
	<g id="Question_de_synthèse">
		<path fill="#434E52" d="M-133.333,917.74c2.129,2.406,3.407,10.182,6,9c1.333-2.666,2.667-5.334,4-8c0.334,0,0.666,0,1,0
			c0.334,3.666,0.666,7.334,1,11c3-2.334,6-4.668,9-7c-0.334,3.332-0.666,6.666-1,10c3-2,6-4,9-6c-0.666,3.666-1.334,7.334-2,11
			c3.333-1.666,6.667-3.334,10-5c-1.333,3.332-2.667,6.666-4,10c3.333-0.666,6.667-1.334,10-2c0,0.334,0,0.666,0,1
			c-1.666,2.666-3.334,5.334-5,8c3.666-0.334,7.334-0.666,11-1c-2.333,2.666-4.667,5.334-7,8c0.666,0,1.334,0,2,0
			c2.666,0.334,5.334,0.666,8,1c-2.666,2-5.334,4-8,6c0.334,0.666,0.666,1.334,1,2c3,0.666,6,1.334,9,2c0,0.334,0,0.666,0,1
			c-3,1.332-6,2.666-9,4c0,0.334,0,0.666,0,1c2.666,1.332,5.334,2.666,8,4c0,0.334,0,0.666,0,1c-3,0.666-6,1.334-9,2
			c0.334,0.666,0.666,1.334,1,2c2.333,1.666,4.667,3.334,7,5c-3.333,0.334-6.667,0.666-10,1c2.333,2.666,4.667,5.334,7,8
			c-3.666,0-7.334,0-11,0c1.666,2.666,3.334,5.334,5,8c-3.333-0.666-6.667-1.334-10-2c1.333,3.332,2.667,6.666,4,10
			c-3.333-1.334-6.667-2.668-10-4c0.666,3.332,1.334,6.666,2,10c-3-2-6-4-9-6c0,3.332,0,6.666,0,10c-2.666-2.334-5.334-4.668-8-7
			c-0.334,3.666-0.666,7.334-1,11c-0.666-0.334-1.334-0.666-2-1c-1.666-2.666-3.334-5.334-5-8c0,0.666,0,1.334,0,2
			c-1,2.666-2,5.334-3,8c-0.334,0-0.667,0-1,0c-1.333-3-2.667-6-4-9c-0.333,0-0.667,0-1,0c-1.333,2.666-2.667,5.334-4,8
			c-0.333,0-0.667,0-1,0c-0.667-3.334-1.333-6.668-2-10c-0.667,0.334-1.333,0.666-2,1c-1.497,3.633-2.642,5.188-6,7
			c0-3.334,0-6.668,0-10c-2.999,2-6.001,4-9,6c0.667-3.666,1.333-7.334,2-11c-3.333,2-6.667,4-10,6c1-3,2-6,3-9
			c-3.333,0.666-6.667,1.334-10,2c1.667-3.334,3.333-6.668,5-10c-3.667,0.666-7.333,1.334-11,2c0.667-0.666,1.333-1.334,2-2
			c1.667-2.334,3.333-4.668,5-7c-3.667,0-7.333,0-11,0c1-1.334,2-2.668,3-4c1.667-1.334,3.333-2.668,5-4
			c-3.667-0.334-7.333-0.666-11-1c0.333-0.666,0.667-1.334,1-2c2.667-1.666,5.333-3.334,8-5c-3.333-1.334-6.667-2.668-10-4
			c3.333-1,6.667-2,10-3c-2.999-2.334-6.001-4.668-9-7c3.667-0.334,7.333-0.666,11-1c-1.333-1.666-2.667-3.334-4-5
			c-1.333-1-2.667-2-4-3c3.667,0,7.333,0,11,0c-1-1-2-2-3-3c-1.333-2-2.667-4-4-6c3.667,0.666,7.333,1.334,11,2
			c-1.667-3.334-3.333-6.668-5-10c3.667,1.332,7.333,2.666,11,4c-0.667-3.334-1.333-6.668-2-10c2.667,1.666,5.333,3.334,8,5
			c-0.333-3.666-0.667-7.334-1-11c2.333,2.332,4.667,4.666,7,7c0.667-0.334,1.333-0.666,2-1c0.333-3.334,0.667-6.668,1-10
			c1.587,3.77,3.481,6.127,7,8c0.667-3,1.333-6,2-9c0.333,0.666,0.667,1.334,1,2c1.333,2.332,2.667,4.666,4,7c0.333,0,0.667,0,1,0
			C-135.333,924.406-134.333,921.072-133.333,917.74z"/>
		<g>
			<path fill="#F67876" d="M-101.266,953.93v27.758c0,2.236-1.785,3.969-4.022,3.969h-2.033v8.053l-6.816-8.053h-35.842
				c-2.238,0-4.271-1.73-4.271-3.969V953.93c0-2.238,2.034-4.193,4.271-4.193h44.691
				C-103.051,949.736-101.266,951.689-101.266,953.93z"/>
			<circle fill="#ABB7B7" cx="-124.985" cy="969.021" r="5.406"/>
			<circle fill="#ABB7B7" cx="-139.152" cy="969.021" r="5.406"/>
			<polygon fill="#4A8D8A" points="-148.65,987.445 -159.619,1001.744 -159.619,987.445 			"/>
			<path opacity="0.3" fill="#292826" enable-background="new    " d="M-107.322,993.707v-8.051h2.033
				c2.237,0,4.022-1.732,4.022-3.971v-12.189l-12.54-14.76l-4.48,30.92h4.147L-107.322,993.707z"/>
			<path fill="#4A8D8A" d="M-112.964,987.629c0,2.406-1.951,4.357-4.358,4.357h-43.719c-2.407,0-4.358-1.951-4.358-4.357V957.26
				c0-2.406,1.951-4.357,4.358-4.357h43.719c2.407,0,4.358,1.951,4.358,4.357V987.629z"/>
			<circle opacity="0.8" fill="#FFFFFF" enable-background="new    " cx="-139.148" cy="972.469" r="5.406"/>
			<circle opacity="0.8" fill="#FFFFFF" enable-background="new    " cx="-124.981" cy="972.469" r="5.406"/>
			<circle opacity="0.8" fill="#FFFFFF" enable-background="new    " cx="-153.315" cy="972.469" r="5.406"/>
		</g>
	</g>
	<g id="Division">
		<path fill="#434E52" d="M-133.333,787.74c2.129,2.406,3.407,10.182,6,9c1.333-2.666,2.667-5.334,4-8c0.334,0,0.666,0,1,0
			c0.334,3.666,0.666,7.334,1,11c3-2.334,6-4.668,9-7c-0.334,3.332-0.666,6.666-1,10c3-2,6-4,9-6c-0.666,3.666-1.334,7.334-2,11
			c3.333-1.666,6.667-3.334,10-5c-1.333,3.332-2.667,6.666-4,10c3.333-0.666,6.667-1.334,10-2c0,0.334,0,0.666,0,1
			c-1.666,2.666-3.334,5.334-5,8c3.666-0.334,7.334-0.666,11-1c-2.333,2.666-4.667,5.334-7,8c0.666,0,1.334,0,2,0
			c2.666,0.334,5.334,0.666,8,1c-2.666,2-5.334,4-8,6c0.334,0.666,0.666,1.334,1,2c3,0.666,6,1.334,9,2c0,0.334,0,0.666,0,1
			c-3,1.332-6,2.666-9,4c0,0.334,0,0.666,0,1c2.666,1.332,5.334,2.666,8,4c0,0.334,0,0.666,0,1c-3,0.666-6,1.334-9,2
			c0.334,0.666,0.666,1.334,1,2c2.333,1.666,4.667,3.334,7,5c-3.333,0.334-6.667,0.666-10,1c2.333,2.666,4.667,5.334,7,8
			c-3.666,0-7.334,0-11,0c1.666,2.666,3.334,5.334,5,8c-3.333-0.666-6.667-1.334-10-2c1.333,3.332,2.667,6.666,4,10
			c-3.333-1.334-6.667-2.668-10-4c0.666,3.332,1.334,6.666,2,10c-3-2-6-4-9-6c0,3.332,0,6.666,0,10c-2.666-2.334-5.334-4.668-8-7
			c-0.334,3.666-0.666,7.334-1,11c-0.666-0.334-1.334-0.666-2-1c-1.666-2.666-3.334-5.334-5-8c0,0.666,0,1.334,0,2
			c-1,2.666-2,5.334-3,8c-0.334,0-0.667,0-1,0c-1.333-3-2.667-6-4-9c-0.333,0-0.667,0-1,0c-1.333,2.666-2.667,5.334-4,8
			c-0.333,0-0.667,0-1,0c-0.667-3.334-1.333-6.668-2-10c-0.667,0.334-1.333,0.666-2,1c-1.497,3.633-2.642,5.188-6,7
			c0-3.334,0-6.668,0-10c-2.999,2-6.001,4-9,6c0.667-3.666,1.333-7.334,2-11c-3.333,2-6.667,4-10,6c1-3,2-6,3-9
			c-3.333,0.666-6.667,1.334-10,2c1.667-3.334,3.333-6.668,5-10c-3.667,0.666-7.333,1.334-11,2c0.667-0.666,1.333-1.334,2-2
			c1.667-2.334,3.333-4.668,5-7c-3.667,0-7.333,0-11,0c1-1.334,2-2.668,3-4c1.667-1.334,3.333-2.668,5-4
			c-3.667-0.334-7.333-0.666-11-1c0.333-0.666,0.667-1.334,1-2c2.667-1.666,5.333-3.334,8-5c-3.333-1.334-6.667-2.668-10-4
			c3.333-1,6.667-2,10-3c-2.999-2.334-6.001-4.668-9-7c3.667-0.334,7.333-0.666,11-1c-1.333-1.666-2.667-3.334-4-5
			c-1.333-1-2.667-2-4-3c3.667,0,7.333,0,11,0c-1-1-2-2-3-3c-1.333-2-2.667-4-4-6c3.667,0.666,7.333,1.334,11,2
			c-1.667-3.334-3.333-6.668-5-10c3.667,1.332,7.333,2.666,11,4c-0.667-3.334-1.333-6.668-2-10c2.667,1.666,5.333,3.334,8,5
			c-0.333-3.666-0.667-7.334-1-11c2.333,2.332,4.667,4.666,7,7c0.667-0.334,1.333-0.666,2-1c0.333-3.334,0.667-6.668,1-10
			c1.587,3.77,3.481,6.127,7,8c0.667-3,1.333-6,2-9c0.333,0.666,0.667,1.334,1,2c1.333,2.332,2.667,4.666,4,7c0.333,0,0.667,0,1,0
			C-135.333,794.406-134.333,791.072-133.333,787.74z"/>
		<g>
			<path fill="#C5C9C7" d="M-162.48,869.463v-21.414c0-2.5,1.875-4.527,4.175-4.527l52.221-7.102c2.301,0,4.169,2.01,4.169,4.51
				l-1.854,28.533H-162.48L-162.48,869.463z"/>
			<path fill="#E3E5E4" d="M-103.97,869.498V825.66l-13.348-13.348h-42.903c-2.374,0-4.298,1.924-4.298,4.297v52.889H-103.97
				L-103.97,869.498z"/>
			<rect x="-159.412" y="817.996" fill="#F67876" width="44.354" height="5.857"/>
			<path fill="#F0F0F0" d="M-113.149,825.58h9.179l-13.269-13.268v9.18C-117.238,823.9-115.556,825.58-113.149,825.58z"/>
			<rect x="-159.412" y="829.295" fill="#63BCB8" width="17.435" height="19.248"/>
			<rect x="-138.072" y="829.295" fill="#ABB7B7" width="29.43" height="3.486"/>
			<rect x="-138.072" y="834.455" fill="#ABB7B7" width="29.43" height="3.625"/>
			<rect x="-138.072" y="839.756" fill="#ABB7B7" width="29.43" height="3.486"/>
			<rect x="-138.072" y="844.916" fill="#ABB7B7" width="17.853" height="3.627"/>
			<path fill="#E3E5E4" d="M-143.215,837.77c0-2.246-1.206-4.232-3.006-5.301l-3.093,5.334h6.097
				C-143.217,837.803-143.215,837.797-143.215,837.77z"/>
			<path fill="#E3E5E4" d="M-151.439,839.197l3.093-5.354c-0.916-0.543-1.983-0.855-3.125-0.855c-3.386,0-6.132,2.748-6.132,6.135
				s2.746,6.129,6.132,6.129c3.359,0,6.086-2.707,6.13-6.055H-151.439L-151.439,839.197z"/>
			<rect x="-159.412" y="851.191" fill="#939999" width="50.771" height="3.488"/>
			<rect x="-159.412" y="856.354" fill="#ABB7B7" width="27.198" height="3.625"/>
			<rect x="-159.412" y="861.652" fill="#ABB7B7" width="27.198" height="3.486"/>
			<rect x="-159.412" y="866.814" fill="#ABB7B7" width="50.771" height="2.648"/>
		</g>
	</g>
	<g id="Activité_d_x27_auto-évaluation">
		<path fill="#434E52" d="M-133.333,397.74c2.129,2.406,3.407,10.181,6,9c1.333-2.666,2.667-5.334,4-8c0.334,0,0.666,0,1,0
			c0.334,3.666,0.666,7.334,1,11c3-2.334,6-4.668,9-7c-0.334,3.332-0.666,6.666-1,10c3-2,6-4,9-6c-0.666,3.666-1.334,7.334-2,11
			c3.333-1.666,6.667-3.334,10-5c-1.333,3.332-2.667,6.666-4,10c3.333-0.666,6.667-1.334,10-2c0,0.334,0,0.666,0,1
			c-1.666,2.666-3.334,5.334-5,8c3.666-0.334,7.334-0.666,11-1c-2.333,2.666-4.667,5.334-7,8c0.666,0,1.334,0,2,0
			c2.666,0.334,5.334,0.666,8,1c-2.666,2-5.334,4-8,6c0.334,0.666,0.666,1.334,1,2c3,0.666,6,1.334,9,2c0,0.334,0,0.666,0,1
			c-3,1.332-6,2.666-9,4c0,0.334,0,0.666,0,1c2.666,1.332,5.334,2.666,8,4c0,0.334,0,0.666,0,1c-3,0.666-6,1.334-9,2
			c0.334,0.666,0.666,1.334,1,2c2.333,1.666,4.667,3.334,7,5c-3.333,0.334-6.667,0.666-10,1c2.333,2.666,4.667,5.334,7,8
			c-3.666,0-7.334,0-11,0c1.666,2.666,3.334,5.334,5,8c-3.333-0.666-6.667-1.334-10-2c1.333,3.332,2.667,6.666,4,10
			c-3.333-1.334-6.667-2.668-10-4c0.666,3.332,1.334,6.666,2,10c-3-2-6-4-9-6c0,3.332,0,6.666,0,10c-2.666-2.334-5.334-4.668-8-7
			c-0.334,3.666-0.666,7.334-1,11c-0.666-0.334-1.334-0.666-2-1c-1.666-2.666-3.334-5.334-5-8c0,0.666,0,1.334,0,2
			c-1,2.666-2,5.334-3,8c-0.334,0-0.667,0-1,0c-1.333-3-2.667-6-4-9c-0.333,0-0.667,0-1,0c-1.333,2.666-2.667,5.334-4,8
			c-0.333,0-0.667,0-1,0c-0.667-3.334-1.333-6.668-2-10c-0.667,0.334-1.333,0.666-2,1c-1.497,3.633-2.642,5.188-6,7
			c0-3.334,0-6.668,0-10c-2.999,2-6.001,4-9,6c0.667-3.666,1.333-7.334,2-11c-3.333,2-6.667,4-10,6c1-3,2-6,3-9
			c-3.333,0.666-6.667,1.334-10,2c1.667-3.334,3.333-6.668,5-10c-3.667,0.666-7.333,1.334-11,2c0.667-0.666,1.333-1.334,2-2
			c1.667-2.334,3.333-4.668,5-7c-3.667,0-7.333,0-11,0c1-1.334,2-2.668,3-4c1.667-1.334,3.333-2.668,5-4
			c-3.667-0.334-7.333-0.666-11-1c0.333-0.666,0.667-1.334,1-2c2.667-1.666,5.333-3.334,8-5c-3.333-1.334-6.667-2.668-10-4
			c3.333-1,6.667-2,10-3c-2.999-2.334-6.001-4.668-9-7c3.667-0.334,7.333-0.666,11-1c-1.333-1.666-2.667-3.334-4-5
			c-1.333-1-2.667-2-4-3c3.667,0,7.333,0,11,0c-1-1-2-2-3-3c-1.333-2-2.667-4-4-6c3.667,0.666,7.333,1.334,11,2
			c-1.667-3.334-3.333-6.668-5-10c3.667,1.332,7.333,2.666,11,4c-0.667-3.334-1.333-6.668-2-10c2.667,1.666,5.333,3.334,8,5
			c-0.333-3.666-0.667-7.334-1-11c2.333,2.332,4.667,4.666,7,7c0.667-0.334,1.333-0.666,2-1c0.333-3.334,0.667-6.668,1-10
			c1.587,3.769,3.481,6.127,7,8c0.667-3,1.333-6,2-9c0.333,0.666,0.667,1.334,1,2c1.333,2.332,2.667,4.666,4,7c0.333,0,0.667,0,1,0
			C-135.333,404.407-134.333,401.072-133.333,397.74z"/>
		<g>
			<circle fill="#F4F4F4" cx="-134.654" cy="452.834" r="25.51"/>
			<circle opacity="0.1" enable-background="new    " cx="-134.103" cy="453.765" r="6.239"/>
			<path fill="#4A8D8A" d="M-136.522,449.301l-10.831-10.83c-0.591-0.592-1.548-0.592-2.14,0c-0.591,0.59-0.591,1.547,0,2.139
				l10.831,10.832L-136.522,449.301z"/>
			<path fill="#4A8D8A" d="M-129.661,454.15l10.762-2.713c1.087-0.275,1.757-1.336,1.482-2.424
				c-0.274-1.086-1.366-1.703-2.454-1.428l-10.761,2.713L-129.661,454.15z"/>
			<circle fill="#F67876" cx="-134.654" cy="452.835" r="2.552"/>
			<path opacity="0.1" fill="#434E52" enable-background="new    " d="M-158.748,455.063c0-14.779,11.865-26.762,26.503-26.762
				c6.643,0,12.714,2.469,17.365,6.545c-4.881-5.32-11.881-8.654-19.658-8.654c-14.752,0-26.71,11.994-26.71,26.791
				c0,8.793,4.223,16.598,10.746,21.48C-155.581,469.588-158.748,462.699-158.748,455.063z"/>
			<path fill="#4A8D8A" d="M-134.654,418.438c-18.945,0-34.303,15.357-34.303,34.303c0,18.943,15.358,34.303,34.303,34.303
				c18.945,0,34.302-15.357,34.302-34.303C-100.353,433.795-115.709,418.438-134.654,418.438z M-134.654,478.25
				c-14.089,0-25.51-11.422-25.51-25.51c0-14.09,11.42-25.51,25.51-25.51c14.088,0,25.51,11.42,25.51,25.51
				C-109.144,466.828-120.566,478.25-134.654,478.25z"/>
			<circle fill="none" stroke="#3B556C" stroke-width="10" stroke-miterlimit="10" cx="-134.654" cy="452.835" r="4.806"/>
			<path fill="#F67876" d="M-152.873,464.184l18.302-12.68l1.293,1.863l-18.302,12.684c-0.516,0.355-1.222,0.227-1.579-0.287
				C-153.516,465.246-153.388,464.541-152.873,464.184z"/>
		</g>
	</g>
	<g id="Objectif">
		<path fill="#434E52" d="M-133.333,1047.74c2.129,2.406,3.407,10.182,6,9c1.333-2.666,2.667-5.334,4-8c0.334,0,0.666,0,1,0
			c0.334,3.666,0.666,7.334,1,11c3-2.334,6-4.668,9-7c-0.334,3.332-0.666,6.666-1,10c3-2,6-4,9-6c-0.666,3.666-1.334,7.334-2,11
			c3.333-1.666,6.667-3.334,10-5c-1.333,3.332-2.667,6.666-4,10c3.333-0.666,6.667-1.334,10-2c0,0.334,0,0.666,0,1
			c-1.666,2.666-3.334,5.334-5,8c3.666-0.334,7.334-0.666,11-1c-2.333,2.666-4.667,5.334-7,8c0.666,0,1.334,0,2,0
			c2.666,0.334,5.334,0.666,8,1c-2.666,2-5.334,4-8,6c0.334,0.666,0.666,1.334,1,2c3,0.666,6,1.334,9,2c0,0.334,0,0.666,0,1
			c-3,1.332-6,2.666-9,4c0,0.334,0,0.666,0,1c2.666,1.332,5.334,2.666,8,4c0,0.334,0,0.666,0,1c-3,0.666-6,1.334-9,2
			c0.334,0.666,0.666,1.334,1,2c2.333,1.666,4.667,3.334,7,5c-3.333,0.334-6.667,0.666-10,1c2.333,2.666,4.667,5.334,7,8
			c-3.666,0-7.334,0-11,0c1.666,2.666,3.334,5.334,5,8c-3.333-0.666-6.667-1.334-10-2c1.333,3.332,2.667,6.666,4,10
			c-3.333-1.334-6.667-2.668-10-4c0.666,3.332,1.334,6.666,2,10c-3-2-6-4-9-6c0,3.332,0,6.666,0,10c-2.666-2.334-5.334-4.668-8-7
			c-0.334,3.666-0.666,7.334-1,11c-0.666-0.334-1.334-0.666-2-1c-1.666-2.666-3.334-5.334-5-8c0,0.666,0,1.334,0,2
			c-1,2.666-2,5.334-3,8c-0.334,0-0.667,0-1,0c-1.333-3-2.667-6-4-9c-0.333,0-0.667,0-1,0c-1.333,2.666-2.667,5.334-4,8
			c-0.333,0-0.667,0-1,0c-0.667-3.334-1.333-6.668-2-10c-0.667,0.334-1.333,0.666-2,1c-1.497,3.633-2.642,5.188-6,7
			c0-3.334,0-6.668,0-10c-2.999,2-6.001,4-9,6c0.667-3.666,1.333-7.334,2-11c-3.333,2-6.667,4-10,6c1-3,2-6,3-9
			c-3.333,0.666-6.667,1.334-10,2c1.667-3.334,3.333-6.668,5-10c-3.667,0.666-7.333,1.334-11,2c0.667-0.666,1.333-1.334,2-2
			c1.667-2.334,3.333-4.668,5-7c-3.667,0-7.333,0-11,0c1-1.334,2-2.668,3-4c1.667-1.334,3.333-2.668,5-4
			c-3.667-0.334-7.333-0.666-11-1c0.333-0.666,0.667-1.334,1-2c2.667-1.666,5.333-3.334,8-5c-3.333-1.334-6.667-2.668-10-4
			c3.333-1,6.667-2,10-3c-2.999-2.334-6.001-4.668-9-7c3.667-0.334,7.333-0.666,11-1c-1.333-1.666-2.667-3.334-4-5
			c-1.333-1-2.667-2-4-3c3.667,0,7.333,0,11,0c-1-1-2-2-3-3c-1.333-2-2.667-4-4-6c3.667,0.666,7.333,1.334,11,2
			c-1.667-3.334-3.333-6.668-5-10c3.667,1.332,7.333,2.666,11,4c-0.667-3.334-1.333-6.668-2-10c2.667,1.666,5.333,3.334,8,5
			c-0.333-3.666-0.667-7.334-1-11c2.333,2.332,4.667,4.666,7,7c0.667-0.334,1.333-0.666,2-1c0.333-3.334,0.667-6.668,1-10
			c1.587,3.77,3.481,6.127,7,8c0.667-3,1.333-6,2-9c0.333,0.666,0.667,1.334,1,2c1.333,2.332,2.667,4.666,4,7c0.333,0,0.667,0,1,0
			C-135.333,1054.406-134.333,1051.072-133.333,1047.74z"/>
		<circle fill="#F4F4F4" cx="-134.654" cy="1102.834" r="25.51"/>
		<circle opacity="0.1" enable-background="new    " cx="-134.103" cy="1103.765" r="6.239"/>
		<circle fill="#F67876" cx="-134.654" cy="1102.835" r="2.552"/>
		<path fill="#4A8D8A" d="M-134.654,1068.438c-18.945,0-34.303,15.357-34.303,34.303c0,18.943,15.358,34.303,34.303,34.303
			c18.945,0,34.302-15.357,34.302-34.303C-100.353,1083.795-115.709,1068.438-134.654,1068.438z M-134.654,1128.25
			c-14.089,0-25.51-11.422-25.51-25.51c0-14.09,11.42-25.51,25.51-25.51c14.088,0,25.51,11.42,25.51,25.51
			C-109.144,1116.828-120.566,1128.25-134.654,1128.25z"/>
		<path fill="#4A8D8A" d="M-134.654,1082.188c-11.351,0-20.553,9.201-20.553,20.553s9.202,20.553,20.553,20.553
			c11.351,0,20.552-9.201,20.552-20.553S-123.303,1082.188-134.654,1082.188z M-134.654,1118.023
			c-8.442,0-15.284-6.842-15.284-15.283s6.842-15.285,15.284-15.285c8.441,0,15.284,6.844,15.284,15.285
			S-126.213,1118.023-134.654,1118.023z"/>
		<circle fill="none" stroke="#4A8D8A" stroke-width="10" stroke-miterlimit="10" cx="-134.654" cy="1102.835" r="4.806"/>
	</g>
	<g id="Exercice_rédactionnel">
		<path fill="#434E52" d="M-133.333,527.74c2.129,2.406,3.407,10.18,6,9c1.333-2.666,2.667-5.334,4-8c0.334,0,0.666,0,1,0
			c0.334,3.666,0.666,7.334,1,11c3-2.334,6-4.668,9-7c-0.334,3.332-0.666,6.666-1,10c3-2,6-4,9-6c-0.666,3.666-1.334,7.334-2,11
			c3.333-1.666,6.667-3.334,10-5c-1.333,3.332-2.667,6.666-4,10c3.333-0.666,6.667-1.334,10-2c0,0.334,0,0.666,0,1
			c-1.666,2.666-3.334,5.334-5,8c3.666-0.334,7.334-0.666,11-1c-2.333,2.666-4.667,5.334-7,8c0.666,0,1.334,0,2,0
			c2.666,0.334,5.334,0.666,8,1c-2.666,2-5.334,4-8,6c0.334,0.666,0.666,1.334,1,2c3,0.666,6,1.334,9,2c0,0.334,0,0.666,0,1
			c-3,1.332-6,2.666-9,4c0,0.334,0,0.666,0,1c2.666,1.332,5.334,2.666,8,4c0,0.334,0,0.666,0,1c-3,0.666-6,1.334-9,2
			c0.334,0.666,0.666,1.334,1,2c2.333,1.666,4.667,3.334,7,5c-3.333,0.334-6.667,0.666-10,1c2.333,2.666,4.667,5.334,7,8
			c-3.666,0-7.334,0-11,0c1.666,2.666,3.334,5.334,5,8c-3.333-0.666-6.667-1.334-10-2c1.333,3.332,2.667,6.666,4,10
			c-3.333-1.334-6.667-2.668-10-4c0.666,3.332,1.334,6.666,2,10c-3-2-6-4-9-6c0,3.332,0,6.666,0,10c-2.666-2.334-5.334-4.668-8-7
			c-0.334,3.666-0.666,7.334-1,11c-0.666-0.334-1.334-0.666-2-1c-1.666-2.666-3.334-5.334-5-8c0,0.666,0,1.334,0,2
			c-1,2.666-2,5.334-3,8c-0.334,0-0.667,0-1,0c-1.333-3-2.667-6-4-9c-0.333,0-0.667,0-1,0c-1.333,2.666-2.667,5.334-4,8
			c-0.333,0-0.667,0-1,0c-0.667-3.334-1.333-6.668-2-10c-0.667,0.334-1.333,0.666-2,1c-1.497,3.633-2.642,5.188-6,7
			c0-3.334,0-6.668,0-10c-2.999,2-6.001,4-9,6c0.667-3.666,1.333-7.334,2-11c-3.333,2-6.667,4-10,6c1-3,2-6,3-9
			c-3.333,0.666-6.667,1.334-10,2c1.667-3.334,3.333-6.668,5-10c-3.667,0.666-7.333,1.334-11,2c0.667-0.666,1.333-1.334,2-2
			c1.667-2.334,3.333-4.668,5-7c-3.667,0-7.333,0-11,0c1-1.334,2-2.668,3-4c1.667-1.334,3.333-2.668,5-4
			c-3.667-0.334-7.333-0.666-11-1c0.333-0.666,0.667-1.334,1-2c2.667-1.666,5.333-3.334,8-5c-3.333-1.334-6.667-2.668-10-4
			c3.333-1,6.667-2,10-3c-2.999-2.334-6.001-4.668-9-7c3.667-0.334,7.333-0.666,11-1c-1.333-1.666-2.667-3.334-4-5
			c-1.333-1-2.667-2-4-3c3.667,0,7.333,0,11,0c-1-1-2-2-3-3c-1.333-2-2.667-4-4-6c3.667,0.666,7.333,1.334,11,2
			c-1.667-3.334-3.333-6.668-5-10c3.667,1.332,7.333,2.666,11,4c-0.667-3.334-1.333-6.668-2-10c2.667,1.666,5.333,3.334,8,5
			c-0.333-3.666-0.667-7.334-1-11c2.333,2.332,4.667,4.666,7,7c0.667-0.334,1.333-0.666,2-1c0.333-3.334,0.667-6.668,1-10
			c1.587,3.768,3.481,6.127,7,8c0.667-3,1.333-6,2-9c0.333,0.666,0.667,1.334,1,2c1.333,2.332,2.667,4.666,4,7c0.333,0,0.667,0,1,0
			C-135.333,534.406-134.333,531.072-133.333,527.74z"/>
		<g>
			<g>
				<path fill="#E0E2E0" stroke="#231F20" stroke-miterlimit="10" d="M-119.281,559.615c0.989,0,1.801,0.813,1.801,1.803v51.646
					c0,0.988-0.813,1.801-1.801,1.801h-45.576c-0.99,0-1.801-0.813-1.801-1.801v-58.762c0-0.992,0.811-1.805,1.801-1.805h38.207
					c0.99,0,1.801,0.813,1.801,1.805v3.512c0,0.99,0.811,1.801,1.801,1.801H-119.281z"/>
			</g>
			<rect x="-160.533" y="558.021" fill="#4A8D8A" width="12.249" height="12.248"/>
			<rect x="-146.178" y="558.098" fill="#F67876" width="17.938" height="1.514"/>
			<rect x="-146.16" y="562.168" fill="#F67876" width="21.391" height="1.514"/>
			<rect x="-146.16" y="565.715" fill="#F67876" width="21.391" height="1.514"/>
			<rect x="-146.009" y="568.93" fill="#F67876" width="21.465" height="1.691"/>
			<rect x="-161.472" y="579.438" fill="#231F20" width="39.18" height="1.691"/>
			<rect x="-161.32" y="583.49" fill="#231F20" width="39.179" height="1.691"/>
			<rect x="-161.32" y="587.543" fill="#231F20" width="39.179" height="1.691"/>
			<rect x="-161.169" y="607.059" fill="#231F20" width="39.179" height="1.688"/>
			<polygon fill="#FFFFFF" points="-132.506,591.117 -135.894,591.869 -139,596.832 -139,601.201 -133.769,602.117 
				-128.703,599.035 -127.901,594.701 -129.168,592.559 -132.427,591.451 			"/>
			<polygon fill="#4A8D8A" points="-112.625,570.27 -130.636,588.389 -125.204,594.623 -106.22,575.207 -95.053,563.682 
				-100.726,558.098 			"/>
			<path fill="#231F20" d="M-117.356,559.523c0.594,0.576,0.798,1.328,0.461,1.682l0,0c-0.338,0.35-1.098,0.164-1.692-0.41
				l-7.068-6.859c-0.595-0.576-0.802-1.328-0.462-1.678l0,0c0.339-0.352,1.099-0.168,1.692,0.408L-117.356,559.523z"/>
			<g>
				<path d="M-140.244,603.797v-1.004c0-0.303,0.043-7.482,3.791-11.193c1.129-1.119,2.623-1.734,4.207-1.734
					s3.073,0.617,4.194,1.736c1.125,1.125,1.742,2.621,1.742,4.211c-0.002,1.586-0.621,3.076-1.744,4.193
					c-3.732,3.721-10.885,3.787-11.188,3.787L-140.244,603.797z M-132.246,591.865c-1.054,0-2.048,0.41-2.8,1.154
					c-2.389,2.365-2.993,6.719-3.146,8.719c1.998-0.158,6.344-0.773,8.729-3.148c0.742-0.738,1.152-1.727,1.154-2.777
					c0-1.057-0.41-2.049-1.156-2.795C-130.208,592.273-131.196,591.865-132.246,591.865z"/>
			</g>
			<g>
				<path d="M-139.244,603.793c-0.256,0-0.513-0.098-0.707-0.293c-0.392-0.391-0.392-1.023,0-1.414l5.657-5.656
					c0.391-0.391,1.023-0.391,1.414,0s0.391,1.023,0,1.414l-5.657,5.656C-138.731,603.695-138.988,603.793-139.244,603.793z"/>
			</g>
			<g>
				<path d="M-125.333,595.539L-125.333,595.539c-0.266,0-0.52-0.104-0.707-0.293l-5.655-5.658c-0.391-0.391-0.391-1.021,0-1.414
					l31.111-31.111c0.188-0.188,0.441-0.293,0.707-0.293l0,0c0.265,0,0.52,0.105,0.707,0.293l5.656,5.658
					c0.391,0.391,0.391,1.021,0,1.412l-31.112,31.113C-124.813,595.434-125.068,595.539-125.333,595.539z M-129.575,588.881
					l4.241,4.244l29.699-29.699l-4.242-4.242L-129.575,588.881z"/>
			</g>
			<g>
				<path d="M-118.263,571.498c-0.256,0-0.512-0.098-0.707-0.293c-0.391-0.391-0.391-1.023,0-1.414l11.313-11.314
					c1.949-1.949,5.123-1.949,7.072,0c0.391,0.391,0.391,1.023,0,1.414s-1.023,0.391-1.414,0c-1.171-1.17-3.075-1.17-4.244,0
					l-11.313,11.314C-117.75,571.4-118.007,571.498-118.263,571.498z"/>
			</g>
			<g>
				<path d="M-105.534,575.742c-0.256,0-0.512-0.1-0.707-0.295l-5.655-5.656c-0.392-0.391-0.392-1.023,0-1.414
					c0.391-0.391,1.022-0.391,1.414,0l5.655,5.656c0.392,0.391,0.392,1.023,0,1.414
					C-105.021,575.643-105.278,575.742-105.534,575.742z"/>
			</g>
			<path fill="#E0E2E0" d="M-124.979,555.016l4.129,4.006c0,0-3.203,0.318-3.62-0.166S-124.979,555.016-124.979,555.016z"/>
		</g>
	</g>
	<g id="Exercice">
		<path fill="#434E52" d="M-133.333,267.74c2.129,2.406,3.407,10.181,6,9c1.333-2.666,2.667-5.334,4-8c0.334,0,0.666,0,1,0
			c0.334,3.666,0.666,7.334,1,11c3-2.334,6-4.668,9-7c-0.334,3.332-0.666,6.666-1,10c3-2,6-4,9-6c-0.666,3.666-1.334,7.334-2,11
			c3.333-1.666,6.667-3.334,10-5c-1.333,3.332-2.667,6.666-4,10c3.333-0.666,6.667-1.334,10-2c0,0.334,0,0.666,0,1
			c-1.666,2.666-3.334,5.334-5,8c3.666-0.334,7.334-0.666,11-1c-2.333,2.666-4.667,5.334-7,8c0.666,0,1.334,0,2,0
			c2.666,0.334,5.334,0.666,8,1c-2.666,2-5.334,4-8,6c0.334,0.666,0.666,1.334,1,2c3,0.666,6,1.334,9,2c0,0.334,0,0.666,0,1
			c-3,1.332-6,2.666-9,4c0,0.334,0,0.666,0,1c2.666,1.332,5.334,2.666,8,4c0,0.334,0,0.666,0,1c-3,0.666-6,1.334-9,2
			c0.334,0.666,0.666,1.334,1,2c2.333,1.666,4.667,3.334,7,5c-3.333,0.334-6.667,0.666-10,1c2.333,2.666,4.667,5.334,7,8
			c-3.666,0-7.334,0-11,0c1.666,2.666,3.334,5.334,5,8c-3.333-0.666-6.667-1.334-10-2c1.333,3.332,2.667,6.666,4,10
			c-3.333-1.334-6.667-2.668-10-4c0.666,3.332,1.334,6.666,2,10c-3-2-6-4-9-6c0,3.332,0,6.666,0,10c-2.666-2.334-5.334-4.668-8-7
			c-0.334,3.666-0.666,7.334-1,11c-0.666-0.334-1.334-0.666-2-1c-1.666-2.666-3.334-5.334-5-8c0,0.666,0,1.334,0,2
			c-1,2.666-2,5.334-3,8c-0.334,0-0.667,0-1,0c-1.333-3-2.667-6-4-9c-0.333,0-0.667,0-1,0c-1.333,2.666-2.667,5.334-4,8
			c-0.333,0-0.667,0-1,0c-0.667-3.334-1.333-6.668-2-10c-0.667,0.334-1.333,0.666-2,1c-1.497,3.633-2.642,5.188-6,7
			c0-3.334,0-6.668,0-10c-2.999,2-6.001,4-9,6c0.667-3.666,1.333-7.334,2-11c-3.333,2-6.667,4-10,6c1-3,2-6,3-9
			c-3.333,0.666-6.667,1.334-10,2c1.667-3.334,3.333-6.668,5-10c-3.667,0.666-7.333,1.334-11,2c0.667-0.666,1.333-1.334,2-2
			c1.667-2.334,3.333-4.668,5-7c-3.667,0-7.333,0-11,0c1-1.334,2-2.668,3-4c1.667-1.334,3.333-2.668,5-4
			c-3.667-0.334-7.333-0.666-11-1c0.333-0.666,0.667-1.334,1-2c2.667-1.666,5.333-3.334,8-5c-3.333-1.334-6.667-2.668-10-4
			c3.333-1,6.667-2,10-3c-2.999-2.334-6.001-4.668-9-7c3.667-0.334,7.333-0.666,11-1c-1.333-1.666-2.667-3.334-4-5
			c-1.333-1-2.667-2-4-3c3.667,0,7.333,0,11,0c-1-1-2-2-3-3c-1.333-2-2.667-4-4-6c3.667,0.666,7.333,1.334,11,2
			c-1.667-3.334-3.333-6.668-5-10c3.667,1.332,7.333,2.666,11,4c-0.667-3.334-1.333-6.668-2-10c2.667,1.666,5.333,3.334,8,5
			c-0.333-3.666-0.667-7.334-1-11c2.333,2.332,4.667,4.666,7,7c0.667-0.334,1.333-0.666,2-1c0.333-3.334,0.667-6.668,1-10
			c1.587,3.769,3.481,6.127,7,8c0.667-3,1.333-6,2-9c0.333,0.666,0.667,1.334,1,2c1.333,2.332,2.667,4.666,4,7c0.333,0,0.667,0,1,0
			C-135.333,274.407-134.333,271.072-133.333,267.74z"/>
		<path id="clipboard-list" fill="#E0E2E0" d="M-148.163,293.777c0-1.297,1.039-2.33,2.322-2.33h4.676l0,0v-2.338
			c0-2.564,2.094-4.66,4.677-4.66h2.311c2.59,0,4.677,2.087,4.677,4.66v2.338h4.675c1.285,0,2.324,1.044,2.324,2.33v2.338
			c0,1.297-1.039,2.33-2.324,2.33h-21.015c-1.285,0-2.322-1.043-2.322-2.33L-148.163,293.777 M-120.169,293.779h2.338
			c2.583,0,4.661,2.093,4.661,4.676v48.973c0,2.6-2.087,4.674-4.661,4.674h-35.003c-2.581,0-4.66-2.092-4.66-4.674v-48.973
			c0-2.6,2.086-4.676,4.66-4.676h2.339c0,0.006,0,0.011,0,0.013v2.31c0,2.584,2.084,4.678,4.672,4.678h20.982
			c2.581,0,4.672-2.086,4.672-4.678v-2.31C-120.169,293.79-120.169,293.785-120.169,293.779L-120.169,293.779L-120.169,293.779z
			 M-135.333,291.447c0.645,0,1.166-0.523,1.166-1.166s-0.521-1.168-1.166-1.168s-1.166,0.525-1.166,1.168
			S-135.977,291.447-135.333,291.447L-135.333,291.447z M-138.832,312.443v2.332h18.662v-2.332H-138.832L-138.832,312.443z
			 M-150.496,310.109v6.998h6.998v-6.998H-150.496L-150.496,310.109z M-148.163,312.443v2.332h2.332v-2.332H-148.163
			L-148.163,312.443z M-150.496,321.773v6.998h6.998v-6.998H-150.496L-150.496,321.773z M-148.163,324.107v2.332h2.332v-2.332
			H-148.163L-148.163,324.107z M-138.832,324.107v2.332h18.662v-2.332H-138.832L-138.832,324.107z M-150.496,333.438v7h6.998v-7
			H-150.496L-150.496,333.438z M-148.163,335.771v2.332h2.332v-2.332H-148.163L-148.163,335.771z M-138.832,335.771v2.332h18.662
			v-2.332H-138.832L-138.832,335.771z"/>
		<path fill="#F67876" d="M-145.84,298.445h21.015c1.285,0,2.324-1.033,2.324-2.33v-2.338c0-1.286-1.039-2.33-2.324-2.33h-4.675
			v-2.338c0-2.573-2.087-4.66-4.677-4.66h-2.311c-2.583,0-4.677,2.096-4.677,4.66v2.338h-4.676c-1.283,0-2.322,1.033-2.322,2.33
			v2.338C-148.163,297.402-147.125,298.445-145.84,298.445z M-135.333,289.113c0.645,0,1.166,0.525,1.166,1.168
			s-0.521,1.166-1.166,1.166s-1.166-0.523-1.166-1.166S-135.977,289.113-135.333,289.113z"/>
		<path fill="#4A8D8A" d="M-141.288,306.988c-0.146-0.146-0.383-0.146-0.527,0l-5.557,5.531c-0.146,0.146-0.383,0.146-0.528,0
			l-2.435-2.479c-0.071-0.073-0.166-0.108-0.262-0.108c-0.096-0.002-0.192,0.033-0.266,0.108l-1.076,0.968
			c-0.071,0.072-0.11,0.165-0.11,0.262c0,0.098,0.039,0.196,0.111,0.271l2.454,2.575c0.146,0.148,0.384,0.386,0.528,0.531
			l1.056,1.064c0.146,0.146,0.382,0.146,0.528,0l7.139-7.127c0.146-0.146,0.146-0.387,0-0.531L-141.288,306.988z"/>
	</g>
	<g id="Introduction">
		<path fill="#434E52" d="M-133.333,137.74c2.129,2.406,3.407,10.181,6,9c1.333-2.666,2.667-5.334,4-8c0.334,0,0.666,0,1,0
			c0.334,3.666,0.666,7.334,1,11c3-2.333,6-4.668,9-7c-0.334,3.332-0.666,6.667-1,10c3-2,6-4,9-6c-0.666,3.666-1.334,7.334-2,11
			c3.333-1.666,6.667-3.334,10-5c-1.333,3.332-2.667,6.667-4,10c3.333-0.666,6.667-1.334,10-2c0,0.334,0,0.667,0,1
			c-1.666,2.666-3.334,5.334-5,8c3.666-0.333,7.334-0.666,11-1c-2.333,2.666-4.667,5.334-7,8c0.666,0,1.334,0,2,0
			c2.666,0.334,5.334,0.667,8,1c-2.666,2-5.334,4-8,6c0.334,0.666,0.666,1.334,1,2c3,0.666,6,1.334,9,2c0,0.334,0,0.667,0,1
			c-3,1.332-6,2.667-9,4c0,0.334,0,0.667,0,1c2.666,1.332,5.334,2.667,8,4c0,0.334,0,0.667,0,1c-3,0.666-6,1.334-9,2
			c0.334,0.666,0.666,1.334,1,2c2.333,1.666,4.667,3.334,7,5c-3.333,0.334-6.667,0.667-10,1c2.333,2.666,4.667,5.334,7,8
			c-3.666,0-7.334,0-11,0c1.666,2.666,3.334,5.334,5,8c-3.333-0.666-6.667-1.334-10-2c1.333,3.332,2.667,6.667,4,10
			c-3.333-1.333-6.667-2.668-10-4c0.666,3.332,1.334,6.667,2,10c-3-2-6-4-9-6c0,3.332,0,6.667,0,10c-2.666-2.333-5.334-4.668-8-7
			c-0.334,3.666-0.666,7.334-1,11c-0.666-0.333-1.334-0.666-2-1c-1.666-2.666-3.334-5.334-5-8c0,0.666,0,1.334,0,2
			c-1,2.666-2,5.334-3,8c-0.334,0-0.667,0-1,0c-1.333-3-2.667-6-4-9c-0.333,0-0.667,0-1,0c-1.333,2.666-2.667,5.334-4,8
			c-0.333,0-0.667,0-1,0c-0.667-3.333-1.333-6.668-2-10c-0.667,0.334-1.333,0.667-2,1c-1.497,3.633-2.642,5.188-6,7
			c0-3.333,0-6.668,0-10c-2.999,2-6.001,4-9,6c0.667-3.666,1.333-7.334,2-11c-3.333,2-6.667,4-10,6c1-3,2-6,3-9
			c-3.333,0.666-6.667,1.334-10,2c1.667-3.333,3.333-6.668,5-10c-3.667,0.666-7.333,1.334-11,2c0.667-0.666,1.333-1.334,2-2
			c1.667-2.333,3.333-4.668,5-7c-3.667,0-7.333,0-11,0c1-1.333,2-2.668,3-4c1.667-1.333,3.333-2.668,5-4
			c-3.667-0.333-7.333-0.666-11-1c0.333-0.666,0.667-1.334,1-2c2.667-1.666,5.333-3.334,8-5c-3.333-1.333-6.667-2.668-10-4
			c3.333-1,6.667-2,10-3c-2.999-2.333-6.001-4.668-9-7c3.667-0.333,7.333-0.666,11-1c-1.333-1.666-2.667-3.334-4-5
			c-1.333-1-2.667-2-4-3c3.667,0,7.333,0,11,0c-1-1-2-2-3-3c-1.333-2-2.667-4-4-6c3.667,0.666,7.333,1.334,11,2
			c-1.667-3.333-3.333-6.668-5-10c3.667,1.332,7.333,2.667,11,4c-0.667-3.333-1.333-6.668-2-10c2.667,1.666,5.333,3.334,8,5
			c-0.333-3.666-0.667-7.334-1-11c2.333,2.332,4.667,4.667,7,7c0.667-0.333,1.333-0.666,2-1c0.333-3.333,0.667-6.668,1-10
			c1.587,3.769,3.481,6.127,7,8c0.667-3,1.333-6,2-9c0.333,0.666,0.667,1.334,1,2c1.333,2.332,2.667,4.667,4,7c0.333,0,0.667,0,1,0
			C-135.333,144.406-134.333,141.072-133.333,137.74z"/>
		<path fill="#FFFFFF" d="M-134.529,200.244c2.484,0.578,4.989-0.979,5.568-3.461l1.686-7.225c0.211-0.904,1.219-1.146,1.791-0.535
			c1.196,0.994,2.619,2.039,3.748,2.304c3.159,0.737,6.223-1.167,6.96-4.327c0.737-3.161-1.167-6.223-4.327-6.961
			c-1.128-0.264-2.868,0.045-4.379,0.406c-0.783,0.293-1.528-0.594-1.37-1.272l2.213-9.481c0.579-2.482-0.979-4.987-3.462-5.567
			l-5.418-1.265c-1.355-0.315-2.799,0.774-2.665,2.234c0.188,1.234,0.151,2.416-0.007,3.092c-0.737,3.162-3.801,5.065-6.96,4.328
			c-3.162-0.738-5.064-3.801-4.327-6.961c0.158-0.678,0.648-1.754,1.363-2.777c0.541-1.301-0.046-2.866-1.4-3.182l-5.418-1.266
			c-2.484-0.58-4.99,0.979-5.569,3.462l-6.321,27.091c-0.58,2.482,0.979,4.988,3.462,5.568L-134.529,200.244z"/>
		<path fill="#E0E2E0" d="M-159.941,181.318c-2.548,0.102-4.55,2.268-4.45,4.815l0.292,7.412c0.036,0.927-0.872,1.427-1.585,0.991
			c-1.416-0.641-3.066-1.271-4.224-1.227c-3.242,0.127-5.69,2.775-5.562,6.02c0.128,3.244,2.776,5.689,6.019,5.563
			c1.158-0.047,2.753-0.806,4.115-1.555c0.677-0.49,1.631,0.167,1.658,0.862l0.382,9.729c0.101,2.549,2.269,4.551,4.816,4.449
			l5.559-0.219c1.39-0.057,2.493-1.491,1.976-2.862c-0.509-1.14-0.787-2.289-0.813-2.983c-0.129-3.244,2.32-5.892,5.562-6.02
			c3.244-0.128,5.891,2.318,6.02,5.563c0.027,0.695-0.159,1.863-0.577,3.041c-0.176,1.397,0.805,2.75,2.194,2.697l5.559-0.221
			c2.549-0.102,4.551-2.268,4.452-4.814l-1.096-27.797c-0.1-2.549-2.268-4.551-4.816-4.449L-159.941,181.318z"/>
		<path fill="#4A8D8A" d="M-153.733,194.408c-2.218,1.259-3.003,4.104-1.746,6.32l3.659,6.453c0.458,0.807-0.121,1.668-0.954,1.607
			c-1.552,0.079-3.308,0.275-4.316,0.848c-2.822,1.602-3.783,5.076-2.183,7.899c1.602,2.823,5.077,3.782,7.9,2.185
			c1.008-0.572,2.077-1.979,2.944-3.27c0.376-0.747,1.526-0.6,1.869,0.006l4.802,8.471c1.259,2.219,4.103,3.004,6.321,1.745
			l4.839-2.743c1.21-0.688,1.532-2.468,0.443-3.449c-0.974-0.779-1.749-1.674-2.091-2.278c-1.602-2.823-0.641-6.3,2.182-7.899
			c2.824-1.602,6.299-0.641,7.9,2.184c0.342,0.604,0.712,1.728,0.881,2.965c0.485,1.322,1.978,2.076,3.188,1.39l4.839-2.743
			c2.219-1.259,3.005-4.103,1.747-6.32l-13.722-24.198c-1.257-2.218-4.102-3.004-6.32-1.745L-153.733,194.408z"/>
		<path fill="#F67876" d="M-116.62,168.988c-1.983-1.604-4.916-1.293-6.52,0.689l-4.666,5.768c-0.583,0.722-1.596,0.498-1.845-0.299
			c-0.643-1.416-1.468-2.979-2.369-3.707c-2.522-2.041-6.109-1.662-8.15,0.86c-2.041,2.523-1.662,6.109,0.86,8.15
			c0.901,0.729,2.601,1.21,4.119,1.543c0.833,0.077,1.116,1.2,0.679,1.741l-6.125,7.57c-1.604,1.982-1.293,4.916,0.689,6.521
			l4.325,3.499c1.082,0.875,2.857,0.521,3.372-0.852c0.369-1.19,0.917-2.238,1.355-2.779c2.041-2.523,5.628-2.901,8.15-0.86
			c2.524,2.042,2.902,5.627,0.861,8.149c-0.438,0.541-1.347,1.297-2.437,1.906c-1.054,0.937-1.208,2.6-0.127,3.475l4.325,3.5
			c1.983,1.604,4.917,1.295,6.521-0.688l17.496-21.628c1.604-1.982,1.293-4.916-0.689-6.521L-116.62,168.988z"/>
	</g>
	<g id="Conclusion">
		<path fill="#434E52" d="M-133.333,657.74c2.129,2.406,3.407,10.182,6,9c1.333-2.666,2.667-5.334,4-8c0.334,0,0.666,0,1,0
			c0.334,3.666,0.666,7.334,1,11c3-2.334,6-4.668,9-7c-0.334,3.332-0.666,6.666-1,10c3-2,6-4,9-6c-0.666,3.666-1.334,7.334-2,11
			c3.333-1.666,6.667-3.334,10-5c-1.333,3.332-2.667,6.666-4,10c3.333-0.666,6.667-1.334,10-2c0,0.334,0,0.666,0,1
			c-1.666,2.666-3.334,5.334-5,8c3.666-0.334,7.334-0.666,11-1c-2.333,2.666-4.667,5.334-7,8c0.666,0,1.334,0,2,0
			c2.666,0.334,5.334,0.666,8,1c-2.666,2-5.334,4-8,6c0.334,0.666,0.666,1.334,1,2c3,0.666,6,1.334,9,2c0,0.334,0,0.666,0,1
			c-3,1.332-6,2.666-9,4c0,0.334,0,0.666,0,1c2.666,1.332,5.334,2.666,8,4c0,0.334,0,0.666,0,1c-3,0.666-6,1.334-9,2
			c0.334,0.666,0.666,1.334,1,2c2.333,1.666,4.667,3.334,7,5c-3.333,0.334-6.667,0.666-10,1c2.333,2.666,4.667,5.334,7,8
			c-3.666,0-7.334,0-11,0c1.666,2.666,3.334,5.334,5,8c-3.333-0.666-6.667-1.334-10-2c1.333,3.332,2.667,6.666,4,10
			c-3.333-1.334-6.667-2.668-10-4c0.666,3.332,1.334,6.666,2,10c-3-2-6-4-9-6c0,3.332,0,6.666,0,10c-2.666-2.334-5.334-4.668-8-7
			c-0.334,3.666-0.666,7.334-1,11c-0.666-0.334-1.334-0.666-2-1c-1.666-2.666-3.334-5.334-5-8c0,0.666,0,1.334,0,2
			c-1,2.666-2,5.334-3,8c-0.334,0-0.667,0-1,0c-1.333-3-2.667-6-4-9c-0.333,0-0.667,0-1,0c-1.333,2.666-2.667,5.334-4,8
			c-0.333,0-0.667,0-1,0c-0.667-3.334-1.333-6.668-2-10c-0.667,0.334-1.333,0.666-2,1c-1.497,3.633-2.642,5.188-6,7
			c0-3.334,0-6.668,0-10c-2.999,2-6.001,4-9,6c0.667-3.666,1.333-7.334,2-11c-3.333,2-6.667,4-10,6c1-3,2-6,3-9
			c-3.333,0.666-6.667,1.334-10,2c1.667-3.334,3.333-6.668,5-10c-3.667,0.666-7.333,1.334-11,2c0.667-0.666,1.333-1.334,2-2
			c1.667-2.334,3.333-4.668,5-7c-3.667,0-7.333,0-11,0c1-1.334,2-2.668,3-4c1.667-1.334,3.333-2.668,5-4
			c-3.667-0.334-7.333-0.666-11-1c0.333-0.666,0.667-1.334,1-2c2.667-1.666,5.333-3.334,8-5c-3.333-1.334-6.667-2.668-10-4
			c3.333-1,6.667-2,10-3c-2.999-2.334-6.001-4.668-9-7c3.667-0.334,7.333-0.666,11-1c-1.333-1.666-2.667-3.334-4-5
			c-1.333-1-2.667-2-4-3c3.667,0,7.333,0,11,0c-1-1-2-2-3-3c-1.333-2-2.667-4-4-6c3.667,0.666,7.333,1.334,11,2
			c-1.667-3.334-3.333-6.668-5-10c3.667,1.332,7.333,2.666,11,4c-0.667-3.334-1.333-6.668-2-10c2.667,1.666,5.333,3.334,8,5
			c-0.333-3.666-0.667-7.334-1-11c2.333,2.332,4.667,4.666,7,7c0.667-0.334,1.333-0.666,2-1c0.333-3.334,0.667-6.668,1-10
			c1.587,3.77,3.481,6.127,7,8c0.667-3,1.333-6,2-9c0.333,0.666,0.667,1.334,1,2c1.333,2.332,2.667,4.666,4,7c0.333,0,0.667,0,1,0
			C-135.333,664.406-134.333,661.072-133.333,657.74z"/>
		<path fill="#F67876" d="M-107.833,725.301c0.507-2.035-0.742-4.115-2.777-4.623l-5.919-1.477c-0.74-0.186-0.925-1.018-0.417-1.479
			c0.832-0.971,1.71-2.129,1.94-3.053c0.646-2.59-0.881-5.133-3.471-5.777c-2.59-0.646-5.132,0.881-5.778,3.471
			c-0.23,0.924,0.001,2.357,0.28,3.605c0.231,0.646-0.508,1.25-1.063,1.109l-7.769-1.938c-2.035-0.506-4.115,0.744-4.623,2.777
			l-1.107,4.439c-0.277,1.109,0.602,2.313,1.804,2.219c1.017-0.139,1.988-0.094,2.543,0.045c2.59,0.646,4.117,3.188,3.471,5.777
			c-0.646,2.59-3.188,4.117-5.778,3.471c-0.555-0.139-1.434-0.555-2.267-1.154c-1.063-0.461-2.358,0.002-2.635,1.111l-1.107,4.439
			c-0.508,2.035,0.742,4.115,2.776,4.623l22.198,5.535c2.035,0.508,4.115-0.742,4.622-2.777L-107.833,725.301z"/>
		<path fill="#FFFFFF" d="M-147.243,741.127c2.035,0.508,4.115-0.742,4.623-2.777l1.476-5.918c0.185-0.74,1.017-0.926,1.479-0.418
			c0.972,0.832,2.128,1.709,3.053,1.939c2.589,0.646,5.132-0.881,5.778-3.471s-0.881-5.133-3.471-5.777
			c-0.925-0.23-2.358,0-3.606,0.279c-0.647,0.23-1.249-0.508-1.11-1.063l1.938-7.77c0.507-2.035-0.742-4.115-2.777-4.623
			l-4.439-1.107c-1.11-0.275-2.312,0.604-2.219,1.805c0.139,1.018,0.094,1.988-0.044,2.543c-0.646,2.59-3.188,4.117-5.778,3.473
			c-2.59-0.646-4.117-3.188-3.471-5.777c0.138-0.557,0.554-1.436,1.155-2.268c0.461-1.063-0.001-2.357-1.111-2.635l-4.44-1.107
			c-2.034-0.508-4.115,0.742-4.622,2.777l-5.537,22.197c-0.507,2.035,0.742,4.115,2.777,4.623L-147.243,741.127z"/>
		<path fill="#4A8D8A" d="M-123.59,686.061c-2.035-0.508-4.115,0.742-4.623,2.777l-1.477,5.92c-0.185,0.738-1.017,0.926-1.479,0.416
			c-0.972-0.832-2.128-1.709-3.053-1.939c-2.589-0.645-5.132,0.881-5.778,3.471c-0.646,2.592,0.881,5.133,3.471,5.777
			c0.925,0.23,2.358,0,3.606-0.279c0.647-0.229,1.249,0.51,1.11,1.064l-1.938,7.77c-0.507,2.035,0.742,4.113,2.777,4.623
			l4.439,1.105c1.11,0.277,2.312-0.604,2.219-1.803c-0.139-1.02-0.094-1.988,0.045-2.545c0.646-2.59,3.188-4.117,5.778-3.471
			c2.589,0.646,4.117,3.188,3.471,5.777c-0.139,0.555-0.554,1.434-1.155,2.266c-0.462,1.064,0.001,2.359,1.111,2.637l4.439,1.107
			c2.035,0.506,4.115-0.744,4.623-2.777l5.536-22.197c0.507-2.033-0.742-4.115-2.777-4.621L-123.59,686.061z"/>
		<path fill="#E0E2E0" d="M-162.972,701.781c-0.508,2.035,0.742,4.115,2.777,4.623l5.919,1.477c0.74,0.184,0.925,1.018,0.417,1.479
			c-0.832,0.971-1.709,2.127-1.94,3.053c-0.646,2.59,0.882,5.133,3.472,5.777c2.589,0.646,5.131-0.881,5.777-3.471
			c0.231-0.926-0.001-2.357-0.279-3.605c-0.232-0.646,0.508-1.25,1.063-1.111l7.77,1.938c2.035,0.508,4.114-0.74,4.622-2.777
			l1.107-4.438c0.277-1.109-0.603-2.313-1.804-2.219c-1.018,0.139-1.989,0.094-2.543-0.045c-2.59-0.646-4.117-3.188-3.471-5.777
			s3.188-4.117,5.778-3.471c0.555,0.139,1.434,0.553,2.266,1.152c1.064,0.463,2.358,0,2.636-1.109l1.107-4.439
			c0.507-2.035-0.742-4.115-2.777-4.623l-22.198-5.537c-2.035-0.506-4.115,0.744-4.623,2.777L-162.972,701.781z"/>
	</g>
</g>
<g id="blocks">
	<g id="Attention">
		<polygon fill="#EE1C25" points="-49.896,54.283 -15.053,54.522 -33.132,23.75 		"/>
		<path fill="#FFFFFF" d="M-31.549,44.912c0,0.627-0.43,1.175-0.96,1.175h-0.958c-0.531,0-0.958-0.548-0.958-1.175l-1.016-12.494
			c0-0.628,0.428-1.116,0.958-1.116h2.989c0.529,0,0.959,0.488,0.959,1.116L-31.549,44.912z"/>
		<ellipse fill="#FFFFFF" cx="-33.062" cy="50.056" rx="1.895" ry="2.237"/>
	</g>
	<path id="Méthode" fill="#434E52" d="M-46.742,224.955c0,2.316,1.874,4.191,4.192,4.191c1.155,0,2.233-0.438,2.994-1.199
		l7.641-7.645l2.048,2.047c-0.275,1.006-0.012,2.133,0.785,2.935l2.97,2.971c1.185,1.179,3.083,1.19,4.251,0.022
		s1.156-3.064-0.024-4.25l-2.97-2.971c-0.802-0.798-1.928-1.061-2.934-0.785l-2.048-2.041l1.317-1.317
		c2.802,0.707,5.892-0.03,8.078-2.167c1.503-1.475,2.33-3.342,2.443-5.275v-0.102c0-0.654-0.539-1.182-1.204-1.182
		c-0.329,0-0.629,0.133-0.851,0.342l-0.353,0.349l-1.209,1.185c-0.761,0.742-1.844,1.181-3.012,1.181
		c-1.162,0-2.186-0.509-2.946-1.259c-0.749-0.76-1.263-1.789-1.263-2.95c0-1.168,0.437-2.253,1.179-3.013l1.186-1.209l0.347-0.354
		c0.209-0.223,0.342-0.521,0.342-0.852c0-0.664-0.527-1.203-1.18-1.203h-0.102c-1.934,0.113-3.802,0.939-5.275,2.443
		c-2.138,2.186-2.868,5.274-2.162,8.071l-1.322,1.322l-5.527-5.532v-1.516l-3.593-1.797l-1.796,1.797l1.796,3.593h1.509l5.533,5.526
		l-7.641,7.646C-46.305,222.721-46.742,223.8-46.742,224.955z M-43.749,224.654c0-0.825,0.671-1.496,1.497-1.496
		s1.497,0.671,1.497,1.496c0,0.826-0.671,1.498-1.497,1.498C-43.077,226.152-43.749,225.48-43.749,224.654z"/>
	<g id="Définition">
		<path fill="#434E52" d="M-37.333,59.507c-5.902,0-10.594,4.691-10.594,10.594c0,5.903,4.692,10.594,10.594,10.594
			s10.594-4.69,10.594-10.594C-26.739,64.198-31.431,59.507-37.333,59.507z M-39.604,71.614c-2.119,0-3.784-1.665-3.784-3.783
			c0-2.119,1.665-3.784,3.784-3.784s3.783,1.665,3.783,3.784C-35.82,69.949-37.485,71.614-39.604,71.614z"/>
		<path fill="#434E52" d="M-28.253,73.128l-6.054,6.054l3.027,3.027l0,0h3.027v3.025l0,0h3.027v3.027l1.059,1.059
			c0.303,0.305,0.605,0.455,1.06,0.455h3.935c0.908,0,1.513-0.604,1.513-1.514v-3.936c0-0.453-0.151-0.758-0.454-1.059
			L-28.253,73.128z"/>
	</g>
	<path id="Remarque" fill="#434E52" d="M-16.802,120.893l-7.559-7.56c1.079-1.763,1.733-3.813,1.733-6.034
		c0-6.434-5.219-11.65-11.651-11.65c-6.434,0-11.651,5.218-11.651,11.65c0,6.434,5.218,11.651,11.651,11.651
		c2.22,0,4.272-0.654,6.034-1.729l7.559,7.557c0.531,0.529,1.411,0.527,1.942,0l1.942-1.942
		C-16.271,122.305-16.271,121.423-16.802,120.893z M-34.279,115.066c-4.29,0-7.768-3.479-7.768-7.769s3.478-7.769,7.768-7.769
		s7.768,3.479,7.768,7.769S-29.989,115.066-34.279,115.066z"/>
	<path id="Texte_légal" fill="#434E52" d="M-32.305,135.624c1.162-0.034,2.084-0.956,2.119-2.118
		c0.034-1.265-0.991-2.29-2.256-2.256c-1.162,0.034-2.084,0.956-2.119,2.118C-34.595,134.633-33.57,135.658-32.305,135.624z
		 M-16.448,148.747h-0.615l-4.34-8.406c0.615-0.069,1.23-0.308,1.777-0.547c0.82-0.376,0.991-1.47,0.376-2.118l-0.034-0.035
		c-0.376-0.375-0.957-0.512-1.47-0.272c-0.479,0.204-1.162,0.444-1.811,0.444c-1.914,0-2.769-2.188-9.808-2.188
		c-7.04,0-7.895,2.188-9.808,2.188c-0.684,0-1.333-0.205-1.812-0.444c-0.513-0.205-1.094-0.103-1.47,0.272l-0.034,0.035
		c-0.615,0.648-0.444,1.708,0.376,2.118c0.547,0.272,1.162,0.478,1.777,0.547l-4.34,8.406h-0.615c-0.273,0-0.479,0.239-0.444,0.513
		c0.376,2.188,3.145,3.862,6.527,3.862c3.384,0,6.152-1.675,6.527-3.862c0.035-0.273-0.171-0.513-0.444-0.513h-0.616l-4.34-8.372
		c2.836-0.24,4.34-1.675,6.527-1.675v16.608c-1.196,0-2.188,0.991-2.188,2.188h-2.426c-0.957,0-1.948,0.99-1.948,2.188h17.498
		c0-1.195-0.991-2.188-2.426-2.188H-28c0-1.195-0.991-2.188-2.187-2.188V138.7c2.187,0,3.69,1.435,6.527,1.675l-4.34,8.372h-0.615
		c-0.273,0-0.479,0.239-0.445,0.513c0.376,2.188,3.144,3.862,6.527,3.862c3.384,0,6.152-1.675,6.528-3.862
		C-15.97,148.986-16.175,148.747-16.448,148.747z M-38.936,148.747h-6.562l3.281-6.151L-38.936,148.747z M-25.812,148.747
		l3.28-6.151l3.281,6.151H-25.812z"/>
	<g id="Rappel">
		<g id="Group" transform="translate(-720.000000, 0.000000)">
			<path id="Rectangle_143" fill="#434E52" d="M676.024,184.504h5.842v1.947h-5.842V184.504z M679.91,166.979h17.541
				c1.072,0,1.939,0.879,1.939,1.961v23.34c0,1.084-0.867,1.961-1.939,1.961H679.91c-1.072,0-1.938-0.879-1.938-1.961v-3.881h3.895
				c1.075,0,1.947-0.863,1.947-1.945v-1.951c0-1.074-0.864-1.945-1.947-1.945h-3.895v-3.894h3.895c1.075,0,1.947-0.863,1.947-1.946
				v-1.951c0-1.074-0.864-1.943-1.947-1.943h-3.895v-3.883C677.971,167.854,678.839,166.979,679.91,166.979z M676.024,174.77h5.842
				v1.945h-5.842V174.77z"/>
		</g>
	</g>
	<g id="Conseil">
		<g>
			<path id="path-1" fill="#434E52" d="M-19.308,240.379c0.723,0,1.308,0.577,1.308,1.288v20.739c0,0.71-0.569,1.285-1.298,1.285
				h-25.896c-0.717,0-1.298-0.575-1.298-1.285v-20.739c0-0.711,0.574-1.288,1.307-1.288h3.874v1.296l-3.886,0.062v20.66h25.902
				v-20.722h-3.885v-1.296H-19.308L-19.308,240.379z M-28.361,240.379h-1.295v1.296h1.295V240.379z M-34.836,240.379h-1.295v1.296
				h1.295V240.379z M-39.734,246.854c-0.157,0-0.283,0.117-0.283,0.262v0.775c0,0.145,0.125,0.26,0.283,0.26h14.975
				c0.157,0,0.283-0.114,0.283-0.26v-0.775c0-0.145-0.125-0.262-0.283-0.262H-39.734z M-39.734,252.035
				c-0.157,0-0.283,0.115-0.283,0.261v0.776c0,0.143,0.125,0.258,0.283,0.258h14.975c0.157,0,0.283-0.113,0.283-0.258v-0.776
				c0-0.146-0.125-0.261-0.283-0.261H-39.734z M-39.734,257.216c-0.157,0-0.283,0.116-0.283,0.261v0.776
				c0,0.144,0.125,0.259,0.283,0.259h14.975c0.157,0,0.283-0.113,0.283-0.259v-0.776c0-0.145-0.125-0.261-0.283-0.261H-39.734z
				 M-38.722,242.971c0.715,0,1.295-1.16,1.295-2.592c0-1.429-0.58-2.59-1.295-2.59c-0.715,0-1.295,1.161-1.295,2.59
				C-40.017,241.811-39.437,242.971-38.722,242.971z M-32.247,242.971c0.716,0,1.295-1.16,1.295-2.592c0-1.429-0.58-2.59-1.295-2.59
				s-1.295,1.161-1.295,2.59C-33.542,241.811-32.961,242.971-32.247,242.971z M-25.771,242.971c0.716,0,1.295-1.16,1.295-2.592
				c0-1.429-0.58-2.59-1.295-2.59s-1.295,1.161-1.295,2.59C-27.066,241.811-26.487,242.971-25.771,242.971z"/>
		</g>
		<g>
			<path id="path-1_1_" fill="#434E52" d="M-19.308,240.379c0.723,0,1.308,0.577,1.308,1.288v20.739c0,0.71-0.569,1.285-1.298,1.285
				h-25.896c-0.717,0-1.298-0.575-1.298-1.285v-20.739c0-0.711,0.574-1.288,1.307-1.288h3.874v1.296l-3.886,0.062v20.66h25.902
				v-20.722h-3.885v-1.296H-19.308L-19.308,240.379z M-28.361,240.379h-1.295v1.296h1.295V240.379z M-34.836,240.379h-1.295v1.296
				h1.295V240.379z M-39.734,246.854c-0.157,0-0.283,0.117-0.283,0.262v0.775c0,0.145,0.125,0.26,0.283,0.26h14.975
				c0.157,0,0.283-0.114,0.283-0.26v-0.775c0-0.145-0.125-0.262-0.283-0.262H-39.734z M-39.734,252.035
				c-0.157,0-0.283,0.115-0.283,0.261v0.776c0,0.143,0.125,0.258,0.283,0.258h14.975c0.157,0,0.283-0.113,0.283-0.258v-0.776
				c0-0.146-0.125-0.261-0.283-0.261H-39.734z M-39.734,257.216c-0.157,0-0.283,0.116-0.283,0.261v0.776
				c0,0.144,0.125,0.259,0.283,0.259h14.975c0.157,0,0.283-0.113,0.283-0.259v-0.776c0-0.145-0.125-0.261-0.283-0.261H-39.734z
				 M-38.722,242.971c0.715,0,1.295-1.16,1.295-2.592c0-1.429-0.58-2.59-1.295-2.59c-0.715,0-1.295,1.161-1.295,2.59
				C-40.017,241.811-39.437,242.971-38.722,242.971z M-32.247,242.971c0.716,0,1.295-1.16,1.295-2.592c0-1.429-0.58-2.59-1.295-2.59
				s-1.295,1.161-1.295,2.59C-33.542,241.811-32.961,242.971-32.247,242.971z M-25.771,242.971c0.716,0,1.295-1.16,1.295-2.592
				c0-1.429-0.58-2.59-1.295-2.59s-1.295,1.161-1.295,2.59C-27.066,241.811-26.487,242.971-25.771,242.971z"/>
		</g>
	</g>
	<g id="Complément">
		<polygon fill="#434E52" points="-24.503,272.926 -38.307,272.926 -44.116,278.121 -44.116,298.482 -30.302,298.482 
			-30.302,296.654 -42.059,296.654 -42.059,280.111 -36.1,280.111 -36.1,274.752 -26.561,274.752 -26.561,280.412 -24.503,280.412 
					"/>
		<polygon fill="#434E52" points="-27.406,288.814 -27.406,283.171 -23.024,283.171 -23.024,288.814 -17,288.814 -17,292.909 
			-23.024,292.909 -23.024,298.555 -27.406,298.555 -27.406,292.909 -33.419,292.909 -33.419,288.814 		"/>
	</g>
	<g id="Fondamental">
		<path fill="#434E52" d="M-30.779,305.063c-5.954,0-10.779,4.824-10.779,10.777c0,3.951,3.614,8.137,4.93,11.813
			c1.963,5.484,1.745,8.767,5.849,8.767c4.165,0,3.885-3.267,5.849-8.741c1.321-3.686,4.93-7.916,4.93-11.837
			C-20,309.887-24.827,305.063-30.779,305.063z M-28.239,331.689l-4.858,0.606c-0.173-0.501-0.359-1.088-0.585-1.854
			c-0.003-0.01-0.007-0.021-0.009-0.03l6.064-0.759c-0.086,0.289-0.178,0.595-0.259,0.865
			C-28.015,330.96-28.13,331.343-28.239,331.689z M-33.978,329.469c-0.178-0.59-0.379-1.211-0.602-1.869h7.609
			c-0.121,0.353-0.241,0.703-0.345,1.037L-33.978,329.469z M-30.779,334.458c-0.993,0-1.449-0.114-1.957-1.226l4.153-0.521
			C-29.185,334.334-29.623,334.458-30.779,334.458z M-26.201,325.639h-9.146c-0.488-1.058-1.074-2.115-1.652-3.15
			c-1.278-2.289-2.599-4.655-2.599-6.647c0-4.862,3.956-8.817,8.819-8.817c4.863,0,8.819,3.955,8.819,8.817
			c0,1.978-1.322,4.356-2.603,6.658C-25.135,323.529-25.717,324.587-26.201,325.639z"/>
		<path fill="#434E52" d="M-30.779,309.961c-3.243,0-5.879,2.637-5.879,5.879c0,0.271,0.22,0.49,0.49,0.49
			c0.271,0,0.49-0.221,0.49-0.49c0-2.701,2.198-4.898,4.899-4.898c0.271,0,0.49-0.221,0.49-0.489S-30.509,309.961-30.779,309.961z"
			/>
	</g>
	<g id="Simulation">
		<path fill="#434E52" stroke="#434E52" stroke-miterlimit="10" d="M-28.935,348.201c1.42,0,2.579-1.158,2.579-2.579
			c0-1.42-1.159-2.58-2.579-2.58s-2.581,1.159-2.581,2.579C-31.516,347.042-30.357,348.201-28.935,348.201z"/>
		<path fill="#434E52" stroke="#434E52" stroke-miterlimit="10" d="M-43.511,360.62c1.421,0,2.58-1.158,2.58-2.577
			c0-1.421-1.158-2.581-2.58-2.581c-1.42,0-2.578,1.159-2.578,2.581C-46.088,359.463-44.93,360.62-43.511,360.62z"/>
		<path fill="#434E52" stroke="#434E52" stroke-miterlimit="10" d="M-24.578,362.572c1.419,0,2.578-1.156,2.578-2.576
			c0-1.421-1.159-2.58-2.578-2.58c-1.422,0-2.581,1.159-2.581,2.58C-27.158,361.416-26,362.572-24.578,362.572z"/>
		<path fill="#434E52" stroke="#434E52" stroke-miterlimit="10" d="M-31.189,371.438c1.42,0,2.579-1.158,2.579-2.578
			c0-1.422-1.159-2.578-2.579-2.578c-1.419,0-2.579,1.156-2.579,2.578C-33.768,370.279-32.611,371.438-31.189,371.438z"/>
		<path fill="#434E52" stroke="#434E52" stroke-miterlimit="10" d="M-32.642,359.369c1.724,0,3.13-1.407,3.13-3.131
			c0-1.721-1.406-3.129-3.13-3.129s-3.13,1.408-3.13,3.129C-35.772,357.962-34.366,359.369-32.642,359.369z"/>
		
			<line fill="none" stroke="#434E52" stroke-width="0.9621" stroke-miterlimit="2.6131" x1="-29.361" y1="347.499" x2="-32.367" y2="356.014"/>
		
			<line fill="none" stroke="#434E52" stroke-width="0.9618" stroke-miterlimit="2.6131" x1="-24.399" y1="360.141" x2="-32.479" y2="356.113"/>
		
			<line fill="none" stroke="#434E52" stroke-width="1.0003" stroke-miterlimit="2.6131" x1="-31.71" y1="367.482" x2="-32.209" y2="356.253"/>
		
			<line fill="none" stroke="#434E52" stroke-width="0.9621" stroke-miterlimit="2.6131" x1="-41.313" y1="357.988" x2="-32.521" y2="355.93"/>
	</g>
	<g id="Exemple">
		<g>
			<path fill="#434E52" d="M-29.589,408.74c0,1.102-0.895,2-2,2s-2-0.898-2-2c0-1.109,0.895-2,2-2S-29.589,407.631-29.589,408.74z"
				/>
			<path fill="#434E52" d="M-31.513,404.717c-1.336,0-2.59-0.521-3.535-1.469c-0.945-1.105-1.465-2.359-1.465-3.695
				s0.52-2.59,1.465-3.371l6.688-6.688c0.755-0.758,1.171-1.762,1.171-2.828c0-1.07-0.416-2.074-1.172-2.828
				c-1.559-1.559-4.096-1.563-5.654,0c-0.758,0.754-1.174,1.758-1.174,2.828h-4c0-2.137,0.834-4.148,2.348-5.66
				c3.02-3.021,8.285-3.02,11.309,0.004c1.511,1.508,2.343,3.516,2.343,5.656c0,2.137-0.832,4.145-2.344,5.656l-6.688,6.523
				c-0.389,0.391-0.389,1.021,0,1.414c0.391,0.391,1.023,0.391,1.414,0c0.255-0.259,0.293-0.557,0.293-0.712h4
				c0,1.337-0.521,2.595-1.465,3.698C-28.923,404.193-30.177,404.717-31.513,404.717L-31.513,404.717z"/>
		</g>
	</g>
	<rect x="-44.93" y="417.24" fill="none" width="32.93" height="29"/>
	<text id="Syntax" transform="matrix(1 0 0 1 -44.9302 438)" fill="#434E52" font-family="'MyriadPro-BoldCond'" font-size="30">Aa</text>
</g>
<g id="quiz">
	<g id="Validate">
		<path fill="#9E1B69" d="M1,14.998C1,23.285,7.72,30,16.002,30C24.284,30,31,23.285,31,14.998C31,6.718,24.284,0,16.002,0
			C7.72,0,1,6.718,1,14.998z"/>
		<path fill="#FFFFFF" d="M25.701,6.66c-0.277-0.279-0.729-0.279-1.006,0L14.106,17.201c-0.277,0.281-0.73,0.281-1.006,0
			l-4.64-4.724c-0.137-0.141-0.318-0.21-0.499-0.211c-0.183-0.001-0.368,0.068-0.508,0.211l-2.05,1.843
			c-0.137,0.141-0.211,0.315-0.211,0.498c0,0.185,0.074,0.376,0.211,0.516l4.679,4.909c0.277,0.281,0.73,0.735,1.005,1.015
			l2.013,2.027c0.276,0.277,0.728,0.277,1.005,0L27.713,9.702c0.278-0.278,0.278-0.736,0-1.014L25.701,6.66z"/>
	</g>
	<g>
		<path fill="#9E1B69" stroke="#FFFFFF" d="M15.999,43.333C24.281,43.333,31,50.048,31,58.331c0,8.287-6.719,15.002-15.001,15.002
			S1,66.618,1,58.331C1,50.048,7.716,43.333,15.999,43.333"/>
		<g id="_x32__audio_simple_repeat_2">
			<g>
				<path fill="#FFFFFF" d="M25.234,61.287c0.277-0.884,0.437-1.818,0.437-2.792c0-5.19-4.19-9.416-9.364-9.482v3.047
					c3.496,0.065,6.32,2.925,6.32,6.436c0,0.487-0.063,0.957-0.167,1.413l-2.849-1.413l1.984,5.894l5.893-1.985L25.234,61.287z"/>
				<path fill="#FFFFFF" d="M10.77,58.815c0-0.489,0.063-0.958,0.167-1.415l2.848,1.415l-1.983-5.894l-5.891,1.985l2.251,1.115
					c-0.276,0.885-0.437,1.82-0.437,2.793c0,5.191,4.19,9.414,9.365,9.481v-3.044C13.595,65.186,10.77,62.326,10.77,58.815z"/>
			</g>
		</g>
	</g>
	<g id="Validate_1_">
		<path fill="#FFFFFF" stroke="#9E1B69" d="M1,101.665c0,8.287,6.72,15.002,15.002,15.002c8.282,0,14.998-6.715,14.998-15.002
			c0-8.28-6.716-14.998-14.998-14.998C7.72,86.667,1,93.385,1,101.665z"/>
		<path fill="#9E1B69" d="M25.701,93.327c-0.277-0.279-0.729-0.279-1.006,0l-10.589,10.541c-0.277,0.28-0.73,0.28-1.006,0
			l-4.64-4.724c-0.137-0.142-0.318-0.211-0.499-0.211c-0.183-0.002-0.368,0.067-0.508,0.211l-2.05,1.842
			c-0.137,0.142-0.211,0.316-0.211,0.498c0,0.186,0.074,0.377,0.211,0.517l4.679,4.909c0.277,0.281,0.73,0.734,1.005,1.015
			l2.013,2.027c0.276,0.276,0.728,0.276,1.005,0L27.712,96.37c0.278-0.278,0.278-0.736,0-1.015L25.701,93.327z"/>
	</g>
	<g>
		<path fill="none" stroke="#9E1B69" d="M15.999,130C24.281,130,31,136.715,31,144.998C31,153.285,24.281,160,15.999,160
			S1,153.285,1,144.998C1,136.715,7.716,130,15.999,130"/>
		<g id="_x32__audio_simple_repeat_2_1_">
			<g>
				<path fill="#9E1B69" d="M25.234,147.954c0.277-0.884,0.437-1.817,0.437-2.792c0-5.189-4.19-9.416-9.364-9.482v3.047
					c3.496,0.065,6.32,2.926,6.32,6.437c0,0.487-0.063,0.957-0.167,1.413l-2.849-1.413l1.984,5.894l5.893-1.984L25.234,147.954z"/>
				<path fill="#9E1B69" d="M10.77,145.482c0-0.489,0.063-0.959,0.167-1.416l2.848,1.416l-1.983-5.895l-5.891,1.984l2.251,1.115
					c-0.276,0.885-0.437,1.82-0.437,2.793c0,5.191,4.19,9.414,9.365,9.481v-3.044C13.595,151.854,10.77,148.993,10.77,145.482z"/>
			</g>
		</g>
	</g>
</g>
</svg>
