<?xml version="1.0" encoding="UTF-8" standalone="no"?>
<!-- Created with Inkscape (http://www.inkscape.org/) -->

<svg
   xmlns:dc="http://purl.org/dc/elements/1.1/"
   xmlns:cc="http://creativecommons.org/ns#"
   xmlns:rdf="http://www.w3.org/1999/02/22-rdf-syntax-ns#"
   xmlns:svg="http://www.w3.org/2000/svg"
   xmlns="http://www.w3.org/2000/svg"
   xmlns:sodipodi="http://sodipodi.sourceforge.net/DTD/sodipodi-0.dtd"
   xmlns:inkscape="http://www.inkscape.org/namespaces/inkscape"
   version="1.1"
   width="19.446787"
   height="376.03384"
   id="svg2"
   inkscape:version="0.91 r13725"
   sodipodi:docname="inputs.svg">
  <sodipodi:namedview
     pagecolor="#ffffff"
     bordercolor="#666666"
     borderopacity="1"
     objecttolerance="10"
     gridtolerance="10"
     guidetolerance="10"
     inkscape:pageopacity="0"
     inkscape:pageshadow="2"
     inkscape:window-width="1871"
     inkscape:window-height="1056"
     id="namedview41"
     showgrid="false"
     inkscape:object-nodes="true"
     fit-margin-top="0"
     fit-margin-left="0"
     fit-margin-right="0"
     fit-margin-bottom="0"
     inkscape:zoom="1.4142136"
     inkscape:cx="-224.34483"
     inkscape:cy="117.95562"
     inkscape:window-x="49"
     inkscape:window-y="24"
     inkscape:window-maximized="1"
     inkscape:current-layer="svg2"
     inkscape:snap-global="false"
     inkscape:snap-object-midpoints="true"
     inkscape:snap-center="true"
     inkscape:snap-intersection-paths="true"
     inkscape:snap-midpoints="true"
     inkscape:snap-smooth-nodes="true"
     inkscape:snap-bbox="true"
     inkscape:bbox-paths="true" />
  <defs
     id="defs4" />
  <metadata
     id="metadata7">
    <rdf:RDF>
      <cc:Work
         rdf:about="">
        <dc:format>image/svg+xml</dc:format>
        <dc:type
           rdf:resource="http://purl.org/dc/dcmitype/StillImage" />
        <dc:title></dc:title>
      </cc:Work>
    </rdf:RDF>
  </metadata>
  <g
     id="g18833"
     transform="matrix(0.64221605,0,0,0.64221605,-774.47706,313.47113)"
     inkscape:export-filename="/home/lalejand/Téléchargements/carreOK.png"
     inkscape:export-xdpi="150"
     inkscape:export-ydpi="150"
     style="display:inline;fill:#a41c6d;fill-opacity:1">
    <g
       style="display:inline;fill:#a41c6d;fill-opacity:1"
       id="g18835"
       transform="matrix(1.5524813,0,0,1.5524813,1146.951,-447.49502)">
      <path
         inkscape:connector-curvature="0"
         style="color:#000000;font-style:normal;font-variant:normal;font-weight:normal;font-stretch:normal;font-size:medium;line-height:normal;font-family:'!CRASS ROOTS OFL';-inkscape-font-specification:'!CRASS ROOTS OFL';text-indent:0;text-align:start;text-decoration:none;text-decoration-line:none;letter-spacing:normal;word-spacing:normal;text-transform:none;direction:ltr;block-progression:tb;writing-mode:lr-tb;text-anchor:start;display:inline;overflow:visible;visibility:visible;fill:#9d9d9d;fill-opacity:1;fill-rule:nonzero;stroke:none;stroke-width:0.0716275;marker:none;enable-background:accumulate"
         d="M 40.15625,295.125 C 38.983983,295.125 38,296.10943 38,297.28125 l 0,11.4375 c 0,1.17182 0.983983,2.15625 2.15625,2.15625 l 11.9375,0 c 1.172267,0 2.15625,-0.98443 2.15625,-2.15625 l 0,-11.4375 c 0,-1.17182 -0.983983,-2.15625 -2.15625,-2.15625 l -11.9375,0 z m 0,1.75 11.9375,0 c 0.242988,0 0.40625,0.1599 0.40625,0.40625 l 0,11.4375 c 0,0.24635 -0.163262,0.40625 -0.40625,0.40625 l -11.9375,0 c -0.242988,0 -0.40625,-0.1599 -0.40625,-0.40625 l 0,-11.4375 c 0,-0.24635 0.163262,-0.40625 0.40625,-0.40625 z"
         id="path18837" />
      <path
         sodipodi:type="inkscape:offset"
         inkscape:radius="0.30912048"
         inkscape:original="M 55.46875 293.15625 A 0.6200561 0.6200561 0 0 0 55.34375 293.21875 C 52.006599 294.92235 48.354561 298.76019 45.59375 302.84375 C 45.264451 302.16088 44.937977 301.56417 44.59375 301.15625 C 44.217547 300.71043 43.77789 300.375 43.21875 300.375 C 42.541316 300.375 41.937199 300.74083 41.3125 301.28125 A 0.6200561 0.6200561 0 0 0 41.65625 302.375 C 41.878225 302.39642 42.11328 302.50774 42.40625 302.90625 C 42.694104 303.29813 43.130485 304.17422 43.65625 305.40625 L 43.90625 305.96875 C 44.122627 306.48523 44.236381 306.84208 44.28125 307.03125 A 0.6200561 0.6200561 0 0 0 45.28125 307.34375 C 45.531895 307.12566 45.84872 306.89001 46.21875 306.65625 L 46.25 306.65625 L 46.6875 306.375 A 0.6200561 0.6200561 0 0 0 46.96875 306.0625 C 47.555241 304.52201 48.470525 302.88657 49.75 301.15625 A 0.6200561 0.6200561 0 0 0 49.75 301.125 C 51.536891 298.57299 53.853237 296.53872 56.28125 294.8125 A 0.6200561 0.6200561 0 0 0 56.46875 294 L 56.15625 293.46875 A 0.6200561 0.6200561 0 0 0 55.53125 293.15625 A 0.6200561 0.6200561 0 0 0 55.46875 293.15625 z "
         style="color:#000000;clip-rule:nonzero;display:inline;overflow:visible;visibility:visible;opacity:1;isolation:auto;mix-blend-mode:normal;color-interpolation:sRGB;color-interpolation-filters:linearRGB;solid-color:#000000;solid-opacity:1;fill:#606060;fill-opacity:1;fill-rule:nonzero;stroke:#fdfdfd;stroke-width:1.28826022;stroke-linecap:butt;stroke-linejoin:miter;stroke-miterlimit:4;stroke-dasharray:none;stroke-dashoffset:0;stroke-opacity:1;marker:none;color-rendering:auto;image-rendering:auto;shape-rendering:auto;text-rendering:auto;enable-background:accumulate"
         id="path18839"
         d="m 55.453125,292.84766 a 0.30915139,0.30915139 0 0 0 -0.08984,0.0176 c -0.06077,0.0222 -0.118987,0.0516 -0.173828,0.0859 -3.310732,1.69503 -6.825982,5.37504 -9.568359,9.33594 -0.254312,-0.49236 -0.504174,-0.99016 -0.791016,-1.33008 -0.403472,-0.47813 -0.92856,-0.89062 -1.611328,-0.89062 -0.78645,0 -1.45816,0.41919 -2.103516,0.97656 -0.280514,0.23415 -0.400571,0.6436 -0.291015,0.99219 0.109372,0.348 0.43942,0.61612 0.802734,0.64843 0.14082,0.0136 0.266793,0.0492 0.529297,0.40625 0.245966,0.33486 0.692551,1.21361 1.214844,2.4375 a 0.30915139,0.30915139 0 0 0 0.002,0.004 l 0.25,0.5625 c 0.209314,0.50061 0.3197,0.85073 0.357422,1.00977 a 0.30915139,0.30915139 0 0 0 0.002,0.008 c 0.08062,0.30105 0.323617,0.55352 0.621094,0.64648 0.297476,0.093 0.639258,0.0238 0.876953,-0.17773 a 0.30915139,0.30915139 0 0 0 0.0039,-0.004 c 0.224336,-0.1952 0.51909,-0.41038 0.853516,-0.625 a 0.30915139,0.30915139 0 0 0 0.08008,-0.0351 l 0.4375,-0.28125 -0.02148,0.0117 c 0.188831,-0.10123 0.341026,-0.26838 0.421875,-0.46679 a 0.30915139,0.30915139 0 0 0 0.002,-0.008 c 0.574326,-1.50854 1.474221,-3.11992 2.740235,-4.83204 a 0.30915139,0.30915139 0 0 0 0.04492,-0.0859 c 1.753445,-2.48722 4.021627,-4.48621 6.414062,-6.1875 0.375328,-0.2604 0.504516,-0.81826 0.28125,-1.2168 a 0.30915139,0.30915139 0 0 0 -0.0039,-0.006 l -0.308594,-0.52539 c -2.34e-4,-4.2e-4 -0.0017,4.2e-4 -0.002,0 -0.180853,-0.32311 -0.566648,-0.51857 -0.933594,-0.46875 l 0.05664,-0.002 c -0.03119,-0.002 -0.06256,-0.002 -0.09375,0 z" />
    </g>
  </g>
  <g
     style="display:inline;fill:#a41c6d;fill-opacity:1"
     inkscape:export-ydpi="150"
     inkscape:export-xdpi="150"
     inkscape:export-filename="/home/lalejand/Téléchargements/carreOK.png"
     transform="matrix(0.64221605,0,0,0.64221605,-774.47706,353.47113)"
     id="g8773">
    <g
       transform="matrix(1.5524813,0,0,1.5524813,1146.951,-447.49502)"
       id="g8775"
       style="display:inline;fill:#a41c6d;fill-opacity:1">
      <path
         id="path8777"
         d="M 40.15625,295.125 C 38.983983,295.125 38,296.10943 38,297.28125 l 0,11.4375 c 0,1.17182 0.983983,2.15625 2.15625,2.15625 l 11.9375,0 c 1.172267,0 2.15625,-0.98443 2.15625,-2.15625 l 0,-11.4375 c 0,-1.17182 -0.983983,-2.15625 -2.15625,-2.15625 l -11.9375,0 z m 0,1.75 11.9375,0 c 0.242988,0 0.40625,0.1599 0.40625,0.40625 l 0,11.4375 c 0,0.24635 -0.163262,0.40625 -0.40625,0.40625 l -11.9375,0 c -0.242988,0 -0.40625,-0.1599 -0.40625,-0.40625 l 0,-11.4375 c 0,-0.24635 0.163262,-0.40625 0.40625,-0.40625 z"
         style="color:#000000;font-style:normal;font-variant:normal;font-weight:normal;font-stretch:normal;font-size:medium;line-height:normal;font-family:'!CRASS ROOTS OFL';-inkscape-font-specification:'!CRASS ROOTS OFL';text-indent:0;text-align:start;text-decoration:none;text-decoration-line:none;letter-spacing:normal;word-spacing:normal;text-transform:none;direction:ltr;block-progression:tb;writing-mode:lr-tb;text-anchor:start;display:inline;overflow:visible;visibility:visible;fill:#9d9d9d;fill-opacity:1;fill-rule:nonzero;stroke:none;stroke-width:0.0716275;marker:none;enable-background:accumulate"
         inkscape:connector-curvature="0" />
      <path
         d="m 55.453125,292.84766 a 0.30915139,0.30915139 0 0 0 -0.08984,0.0176 c -0.06077,0.0222 -0.118987,0.0516 -0.173828,0.0859 -3.310732,1.69503 -6.825982,5.37504 -9.568359,9.33594 -0.254312,-0.49236 -0.504174,-0.99016 -0.791016,-1.33008 -0.403472,-0.47813 -0.92856,-0.89062 -1.611328,-0.89062 -0.78645,0 -1.45816,0.41919 -2.103516,0.97656 -0.280514,0.23415 -0.400571,0.6436 -0.291015,0.99219 0.109372,0.348 0.43942,0.61612 0.802734,0.64843 0.14082,0.0136 0.266793,0.0492 0.529297,0.40625 0.245966,0.33486 0.692551,1.21361 1.214844,2.4375 a 0.30915139,0.30915139 0 0 0 0.002,0.004 l 0.25,0.5625 c 0.209314,0.50061 0.3197,0.85073 0.357422,1.00977 a 0.30915139,0.30915139 0 0 0 0.002,0.008 c 0.08062,0.30105 0.323617,0.55352 0.621094,0.64648 0.297476,0.093 0.639258,0.0238 0.876953,-0.17773 a 0.30915139,0.30915139 0 0 0 0.0039,-0.004 c 0.224336,-0.1952 0.51909,-0.41038 0.853516,-0.625 a 0.30915139,0.30915139 0 0 0 0.08008,-0.0351 l 0.4375,-0.28125 -0.02148,0.0117 c 0.188831,-0.10123 0.341026,-0.26838 0.421875,-0.46679 a 0.30915139,0.30915139 0 0 0 0.002,-0.008 c 0.574326,-1.50854 1.474221,-3.11992 2.740235,-4.83204 a 0.30915139,0.30915139 0 0 0 0.04492,-0.0859 c 1.753445,-2.48722 4.021627,-4.48621 6.414062,-6.1875 0.375328,-0.2604 0.504516,-0.81826 0.28125,-1.2168 a 0.30915139,0.30915139 0 0 0 -0.0039,-0.006 l -0.308594,-0.52539 c -2.34e-4,-4.2e-4 -0.0017,4.2e-4 -0.002,0 -0.180853,-0.32311 -0.566648,-0.51857 -0.933594,-0.46875 l 0.05664,-0.002 c -0.03119,-0.002 -0.06256,-0.002 -0.09375,0 z"
         id="path8779"
         style="color:#000000;clip-rule:nonzero;display:inline;overflow:visible;visibility:visible;opacity:1;isolation:auto;mix-blend-mode:normal;color-interpolation:sRGB;color-interpolation-filters:linearRGB;solid-color:#000000;solid-opacity:1;fill:#2fb300;fill-opacity:1;fill-rule:nonzero;stroke:#fdfdfd;stroke-width:1.28826022;stroke-linecap:butt;stroke-linejoin:miter;stroke-miterlimit:4;stroke-dasharray:none;stroke-dashoffset:0;stroke-opacity:1;marker:none;color-rendering:auto;image-rendering:auto;shape-rendering:auto;text-rendering:auto;enable-background:accumulate"
         inkscape:original="M 55.46875 293.15625 A 0.6200561 0.6200561 0 0 0 55.34375 293.21875 C 52.006599 294.92235 48.354561 298.76019 45.59375 302.84375 C 45.264451 302.16088 44.937977 301.56417 44.59375 301.15625 C 44.217547 300.71043 43.77789 300.375 43.21875 300.375 C 42.541316 300.375 41.937199 300.74083 41.3125 301.28125 A 0.6200561 0.6200561 0 0 0 41.65625 302.375 C 41.878225 302.39642 42.11328 302.50774 42.40625 302.90625 C 42.694104 303.29813 43.130485 304.17422 43.65625 305.40625 L 43.90625 305.96875 C 44.122627 306.48523 44.236381 306.84208 44.28125 307.03125 A 0.6200561 0.6200561 0 0 0 45.28125 307.34375 C 45.531895 307.12566 45.84872 306.89001 46.21875 306.65625 L 46.25 306.65625 L 46.6875 306.375 A 0.6200561 0.6200561 0 0 0 46.96875 306.0625 C 47.555241 304.52201 48.470525 302.88657 49.75 301.15625 A 0.6200561 0.6200561 0 0 0 49.75 301.125 C 51.536891 298.57299 53.853237 296.53872 56.28125 294.8125 A 0.6200561 0.6200561 0 0 0 56.46875 294 L 56.15625 293.46875 A 0.6200561 0.6200561 0 0 0 55.53125 293.15625 A 0.6200561 0.6200561 0 0 0 55.46875 293.15625 z "
         inkscape:radius="0.30912048"
         sodipodi:type="inkscape:offset" />
    </g>
  </g>
  <g
     style="display:inline;fill:#a41c6d;fill-opacity:1"
     inkscape:export-ydpi="150"
     inkscape:export-xdpi="150"
     inkscape:export-filename="/home/lalejand/Téléchargements/carreNO.png"
     transform="matrix(0.64221605,0,0,0.64221605,-774.47706,273.47113)"
     id="g10498-7-4">
    <g
       transform="matrix(1.5524813,0,0,1.5524813,1146.951,-447.49502)"
       id="g5606-1-0-7"
       style="display:inline;fill:#a41c6d;fill-opacity:1">
      <path
         id="rect5549-9-6-0-6"
         d="M 40.15625,295.125 C 38.983983,295.125 38,296.10943 38,297.28125 l 0,11.4375 c 0,1.17182 0.983983,2.15625 2.15625,2.15625 l 11.9375,0 c 1.172267,0 2.15625,-0.98443 2.15625,-2.15625 l 0,-11.4375 c 0,-1.17182 -0.983983,-2.15625 -2.15625,-2.15625 l -11.9375,0 z m 0,1.75 11.9375,0 c 0.242988,0 0.40625,0.1599 0.40625,0.40625 l 0,11.4375 c 0,0.24635 -0.163262,0.40625 -0.40625,0.40625 l -11.9375,0 c -0.242988,0 -0.40625,-0.1599 -0.40625,-0.40625 l 0,-11.4375 c 0,-0.24635 0.163262,-0.40625 0.40625,-0.40625 z"
         style="color:#000000;font-style:normal;font-variant:normal;font-weight:normal;font-stretch:normal;font-size:medium;line-height:normal;font-family:'!CRASS ROOTS OFL';-inkscape-font-specification:'!CRASS ROOTS OFL';text-indent:0;text-align:start;text-decoration:none;text-decoration-line:none;letter-spacing:normal;word-spacing:normal;text-transform:none;direction:ltr;block-progression:tb;writing-mode:lr-tb;text-anchor:start;display:inline;overflow:visible;visibility:visible;fill:#9d9d9d;fill-opacity:1;fill-rule:nonzero;stroke:none;stroke-width:0.0716275;marker:none;enable-background:accumulate"
         inkscape:connector-curvature="0" />
    </g>
  </g>
  <ellipse
     style="color:#000000;clip-rule:nonzero;display:inline;overflow:visible;visibility:visible;opacity:1;isolation:auto;mix-blend-mode:normal;color-interpolation:sRGB;color-interpolation-filters:linearRGB;solid-color:#000000;solid-opacity:1;fill:#000000;fill-opacity:0;fill-rule:nonzero;stroke:#9d9d9d;stroke-width:1.92664814;stroke-linecap:butt;stroke-linejoin:miter;stroke-miterlimit:4;stroke-dasharray:none;stroke-dashoffset:0;stroke-opacity:1;marker:none;marker-start:none;marker-mid:none;marker-end:none;color-rendering:auto;image-rendering:auto;shape-rendering:auto;text-rendering:auto;enable-background:accumulate"
     id="ellipse18723"
     cx="8.241106"
     cy="88.016945"
     rx="7.2774949"
     ry="7.0535774"
     inkscape:export-filename="/home/lalejand/Téléchargements/rondNO.png"
     inkscape:export-xdpi="150"
     inkscape:export-ydpi="150" />
  <g
     id="g18725"
     transform="matrix(0.9,0,0,0.9,-3614.6555,-1844.9874)">
    <ellipse
       inkscape:export-ydpi="150"
       inkscape:export-xdpi="150"
       inkscape:export-filename="/home/lalejand/Téléchargements/rondOK.png"
       style="color:#000000;clip-rule:nonzero;display:inline;overflow:visible;visibility:visible;opacity:1;isolation:auto;mix-blend-mode:normal;color-interpolation:sRGB;color-interpolation-filters:linearRGB;solid-color:#000000;solid-opacity:1;fill:#000000;fill-opacity:0;fill-rule:nonzero;stroke:#9d9d9d;stroke-width:2.14072013;stroke-linecap:butt;stroke-linejoin:miter;stroke-miterlimit:4;stroke-dasharray:none;stroke-dashoffset:0;stroke-opacity:1;marker:none;marker-start:none;marker-mid:none;marker-end:none;color-rendering:auto;image-rendering:auto;shape-rendering:auto;text-rendering:auto;enable-background:accumulate"
       id="ellipse18727"
       cx="4025.4407"
       cy="2192.2271"
       rx="8.0861053"
       ry="7.8373084" />
    <path
       inkscape:export-ydpi="150"
       inkscape:export-xdpi="150"
       inkscape:export-filename="/home/lalejand/Téléchargements/rondOK.png"
       sodipodi:type="inkscape:offset"
       inkscape:radius="0.30912048"
       inkscape:original="M 55.46875 293.15625 A 0.6200561 0.6200561 0 0 0 55.34375 293.21875 C 52.006599 294.92235 48.354561 298.76019 45.59375 302.84375 C 45.264451 302.16088 44.937977 301.56417 44.59375 301.15625 C 44.217547 300.71043 43.77789 300.375 43.21875 300.375 C 42.541316 300.375 41.937199 300.74083 41.3125 301.28125 A 0.6200561 0.6200561 0 0 0 41.65625 302.375 C 41.878225 302.39642 42.11328 302.50774 42.40625 302.90625 C 42.694104 303.29813 43.130485 304.17422 43.65625 305.40625 L 43.90625 305.96875 C 44.122627 306.48523 44.236381 306.84208 44.28125 307.03125 A 0.6200561 0.6200561 0 0 0 45.28125 307.34375 C 45.531895 307.12566 45.84872 306.89001 46.21875 306.65625 L 46.25 306.65625 L 46.6875 306.375 A 0.6200561 0.6200561 0 0 0 46.96875 306.0625 C 47.555241 304.52201 48.470525 302.88657 49.75 301.15625 A 0.6200561 0.6200561 0 0 0 49.75 301.125 C 51.536891 298.57299 53.853237 296.53872 56.28125 294.8125 A 0.6200561 0.6200561 0 0 0 56.46875 294 L 56.15625 293.46875 A 0.6200561 0.6200561 0 0 0 55.53125 293.15625 A 0.6200561 0.6200561 0 0 0 55.46875 293.15625 z "
       style="color:#000000;clip-rule:nonzero;display:inline;overflow:visible;visibility:visible;opacity:1;isolation:auto;mix-blend-mode:normal;color-interpolation:sRGB;color-interpolation-filters:linearRGB;solid-color:#000000;solid-opacity:1;fill:#606060;fill-opacity:1;fill-rule:nonzero;stroke:#fdfdfd;stroke-width:1.37160051;stroke-linecap:butt;stroke-linejoin:miter;stroke-miterlimit:4;stroke-dasharray:none;stroke-dashoffset:0;stroke-opacity:1;marker:none;color-rendering:auto;image-rendering:auto;shape-rendering:auto;text-rendering:auto;enable-background:accumulate"
       id="path18729"
       d="m 55.453125,292.84766 a 0.30915139,0.30915139 0 0 0 -0.08984,0.0176 c -0.06077,0.0222 -0.118987,0.0516 -0.173828,0.0859 -3.310732,1.69503 -6.825982,5.37504 -9.568359,9.33594 -0.254312,-0.49236 -0.504174,-0.99016 -0.791016,-1.33008 -0.403472,-0.47813 -0.92856,-0.89062 -1.611328,-0.89062 -0.78645,0 -1.45816,0.41919 -2.103516,0.97656 -0.280514,0.23415 -0.400571,0.6436 -0.291015,0.99219 0.109372,0.348 0.43942,0.61612 0.802734,0.64843 0.14082,0.0136 0.266793,0.0492 0.529297,0.40625 0.245966,0.33486 0.692551,1.21361 1.214844,2.4375 a 0.30915139,0.30915139 0 0 0 0.002,0.004 l 0.25,0.5625 c 0.209314,0.50061 0.3197,0.85073 0.357422,1.00977 a 0.30915139,0.30915139 0 0 0 0.002,0.008 c 0.08062,0.30105 0.323617,0.55352 0.621094,0.64648 0.297476,0.093 0.639258,0.0238 0.876953,-0.17773 a 0.30915139,0.30915139 0 0 0 0.0039,-0.004 c 0.224336,-0.1952 0.51909,-0.41038 0.853516,-0.625 a 0.30915139,0.30915139 0 0 0 0.08008,-0.0351 l 0.4375,-0.28125 -0.02148,0.0117 c 0.188831,-0.10123 0.341026,-0.26838 0.421875,-0.46679 a 0.30915139,0.30915139 0 0 0 0.002,-0.008 c 0.574326,-1.50854 1.474221,-3.11992 2.740235,-4.83204 a 0.30915139,0.30915139 0 0 0 0.04492,-0.0859 c 1.753445,-2.48722 4.021627,-4.48621 6.414062,-6.1875 0.375328,-0.2604 0.504516,-0.81826 0.28125,-1.2168 a 0.30915139,0.30915139 0 0 0 -0.0039,-0.006 l -0.308594,-0.52539 c -2.34e-4,-4.2e-4 -0.0017,4.2e-4 -0.002,0 -0.180853,-0.32311 -0.566648,-0.51857 -0.933594,-0.46875 l 0.05664,-0.002 c -0.03119,-0.002 -0.06256,-0.002 -0.09375,0 z"
       transform="matrix(1.0406854,0,0,1.0403094,3977.7531,1876.899)" />
  </g>
  <g
     transform="matrix(0.9,0,0,0.9,-3614.6555,-1804.9874)"
     id="g17085">
    <ellipse
       ry="7.8373084"
       rx="8.0861053"
       cy="2192.2271"
       cx="4025.4407"
       id="ellipse17087"
       style="color:#000000;clip-rule:nonzero;display:inline;overflow:visible;visibility:visible;opacity:1;isolation:auto;mix-blend-mode:normal;color-interpolation:sRGB;color-interpolation-filters:linearRGB;solid-color:#000000;solid-opacity:1;fill:#000000;fill-opacity:0;fill-rule:nonzero;stroke:#9d9d9d;stroke-width:2.14072013;stroke-linecap:butt;stroke-linejoin:miter;stroke-miterlimit:4;stroke-dasharray:none;stroke-dashoffset:0;stroke-opacity:1;marker:none;marker-start:none;marker-mid:none;marker-end:none;color-rendering:auto;image-rendering:auto;shape-rendering:auto;text-rendering:auto;enable-background:accumulate"
       inkscape:export-filename="/home/lalejand/Téléchargements/rondOK.png"
       inkscape:export-xdpi="150"
       inkscape:export-ydpi="150" />
    <path
       transform="matrix(1.0406854,0,0,1.0403094,3977.7531,1876.899)"
       d="m 55.453125,292.84766 a 0.30915139,0.30915139 0 0 0 -0.08984,0.0176 c -0.06077,0.0222 -0.118987,0.0516 -0.173828,0.0859 -3.310732,1.69503 -6.825982,5.37504 -9.568359,9.33594 -0.254312,-0.49236 -0.504174,-0.99016 -0.791016,-1.33008 -0.403472,-0.47813 -0.92856,-0.89062 -1.611328,-0.89062 -0.78645,0 -1.45816,0.41919 -2.103516,0.97656 -0.280514,0.23415 -0.400571,0.6436 -0.291015,0.99219 0.109372,0.348 0.43942,0.61612 0.802734,0.64843 0.14082,0.0136 0.266793,0.0492 0.529297,0.40625 0.245966,0.33486 0.692551,1.21361 1.214844,2.4375 a 0.30915139,0.30915139 0 0 0 0.002,0.004 l 0.25,0.5625 c 0.209314,0.50061 0.3197,0.85073 0.357422,1.00977 a 0.30915139,0.30915139 0 0 0 0.002,0.008 c 0.08062,0.30105 0.323617,0.55352 0.621094,0.64648 0.297476,0.093 0.639258,0.0238 0.876953,-0.17773 a 0.30915139,0.30915139 0 0 0 0.0039,-0.004 c 0.224336,-0.1952 0.51909,-0.41038 0.853516,-0.625 a 0.30915139,0.30915139 0 0 0 0.08008,-0.0351 l 0.4375,-0.28125 -0.02148,0.0117 c 0.188831,-0.10123 0.341026,-0.26838 0.421875,-0.46679 a 0.30915139,0.30915139 0 0 0 0.002,-0.008 c 0.574326,-1.50854 1.474221,-3.11992 2.740235,-4.83204 a 0.30915139,0.30915139 0 0 0 0.04492,-0.0859 c 1.753445,-2.48722 4.021627,-4.48621 6.414062,-6.1875 0.375328,-0.2604 0.504516,-0.81826 0.28125,-1.2168 a 0.30915139,0.30915139 0 0 0 -0.0039,-0.006 l -0.308594,-0.52539 c -2.34e-4,-4.2e-4 -0.0017,4.2e-4 -0.002,0 -0.180853,-0.32311 -0.566648,-0.51857 -0.933594,-0.46875 l 0.05664,-0.002 c -0.03119,-0.002 -0.06256,-0.002 -0.09375,0 z"
       id="path17089"
       style="color:#000000;display:inline;overflow:visible;visibility:visible;fill:#2fb300;fill-opacity:1;fill-rule:nonzero;stroke:#fdfdfd;stroke-width:1.37160051;stroke-linecap:butt;stroke-linejoin:miter;stroke-miterlimit:4;stroke-dasharray:none;stroke-dashoffset:0;stroke-opacity:1;marker:none;enable-background:accumulate"
       inkscape:original="M 55.46875 293.15625 A 0.6200561 0.6200561 0 0 0 55.34375 293.21875 C 52.006599 294.92235 48.354561 298.76019 45.59375 302.84375 C 45.264451 302.16088 44.937977 301.56417 44.59375 301.15625 C 44.217547 300.71043 43.77789 300.375 43.21875 300.375 C 42.541316 300.375 41.937199 300.74083 41.3125 301.28125 A 0.6200561 0.6200561 0 0 0 41.65625 302.375 C 41.878225 302.39642 42.11328 302.50774 42.40625 302.90625 C 42.694104 303.29813 43.130485 304.17422 43.65625 305.40625 L 43.90625 305.96875 C 44.122627 306.48523 44.236381 306.84208 44.28125 307.03125 A 0.6200561 0.6200561 0 0 0 45.28125 307.34375 C 45.531895 307.12566 45.84872 306.89001 46.21875 306.65625 L 46.25 306.65625 L 46.6875 306.375 A 0.6200561 0.6200561 0 0 0 46.96875 306.0625 C 47.555241 304.52201 48.470525 302.88657 49.75 301.15625 A 0.6200561 0.6200561 0 0 0 49.75 301.125 C 51.536891 298.57299 53.853237 296.53872 56.28125 294.8125 A 0.6200561 0.6200561 0 0 0 56.46875 294 L 56.15625 293.46875 A 0.6200561 0.6200561 0 0 0 55.53125 293.15625 A 0.6200561 0.6200561 0 0 0 55.46875 293.15625 z "
       inkscape:radius="0.30912048"
       sodipodi:type="inkscape:offset"
       inkscape:export-filename="/home/lalejand/Téléchargements/rondOK.png"
       inkscape:export-xdpi="150"
       inkscape:export-ydpi="150" />
  </g>
  <ellipse
     style="color:#000000;clip-rule:nonzero;display:inline;overflow:visible;visibility:visible;opacity:1;isolation:auto;mix-blend-mode:normal;color-interpolation:sRGB;color-interpolation-filters:linearRGB;solid-color:#000000;solid-opacity:1;fill:#000000;fill-opacity:0;fill-rule:nonzero;stroke:#a41c6d;stroke-width:1.92664814;stroke-linecap:butt;stroke-linejoin:miter;stroke-miterlimit:4;stroke-dasharray:none;stroke-dashoffset:0;stroke-opacity:1;marker:none;marker-start:none;marker-mid:none;marker-end:none;color-rendering:auto;image-rendering:auto;shape-rendering:auto;text-rendering:auto;enable-background:accumulate"
     id="ellipse17081-4-1"
     cx="8.241106"
     cy="8.016901"
     rx="7.2774949"
     ry="7.0535774"
     inkscape:export-filename="/home/lalejand/Téléchargements/rondNO.png"
     inkscape:export-xdpi="150"
     inkscape:export-ydpi="150" />
  <g
     transform="matrix(0.9,0,0,0.9,-3614.6558,-1924.9874)"
     id="g17085-9-2">
    <ellipse
       ry="7.8373084"
       rx="8.0861053"
       cy="2192.2271"
       cx="4025.4407"
       id="ellipse17087-6-7"
       style="color:#000000;clip-rule:nonzero;display:inline;overflow:visible;visibility:visible;opacity:1;isolation:auto;mix-blend-mode:normal;color-interpolation:sRGB;color-interpolation-filters:linearRGB;solid-color:#000000;solid-opacity:1;fill:#000000;fill-opacity:0;fill-rule:nonzero;stroke:#a41c6d;stroke-width:2.14072013;stroke-linecap:butt;stroke-linejoin:miter;stroke-miterlimit:4;stroke-dasharray:none;stroke-dashoffset:0;stroke-opacity:1;marker:none;marker-start:none;marker-mid:none;marker-end:none;color-rendering:auto;image-rendering:auto;shape-rendering:auto;text-rendering:auto;enable-background:accumulate"
       inkscape:export-filename="/home/lalejand/Téléchargements/rondOK.png"
       inkscape:export-xdpi="150"
       inkscape:export-ydpi="150" />
    <path
       transform="matrix(1.0406854,0,0,1.0403094,3977.7531,1876.899)"
       d="m 55.453125,292.84766 a 0.30915139,0.30915139 0 0 0 -0.08984,0.0176 c -0.06077,0.0222 -0.118987,0.0516 -0.173828,0.0859 -3.310732,1.69503 -6.825982,5.37504 -9.568359,9.33594 -0.254312,-0.49236 -0.504174,-0.99016 -0.791016,-1.33008 -0.403472,-0.47813 -0.92856,-0.89062 -1.611328,-0.89062 -0.78645,0 -1.45816,0.41919 -2.103516,0.97656 -0.280514,0.23415 -0.400571,0.6436 -0.291015,0.99219 0.109372,0.348 0.43942,0.61612 0.802734,0.64843 0.14082,0.0136 0.266793,0.0492 0.529297,0.40625 0.245966,0.33486 0.692551,1.21361 1.214844,2.4375 a 0.30915139,0.30915139 0 0 0 0.002,0.004 l 0.25,0.5625 c 0.209314,0.50061 0.3197,0.85073 0.357422,1.00977 a 0.30915139,0.30915139 0 0 0 0.002,0.008 c 0.08062,0.30105 0.323617,0.55352 0.621094,0.64648 0.297476,0.093 0.639258,0.0238 0.876953,-0.17773 a 0.30915139,0.30915139 0 0 0 0.0039,-0.004 c 0.224336,-0.1952 0.51909,-0.41038 0.853516,-0.625 a 0.30915139,0.30915139 0 0 0 0.08008,-0.0351 l 0.4375,-0.28125 -0.02148,0.0117 c 0.188831,-0.10123 0.341026,-0.26838 0.421875,-0.46679 a 0.30915139,0.30915139 0 0 0 0.002,-0.008 c 0.574326,-1.50854 1.474221,-3.11992 2.740235,-4.83204 a 0.30915139,0.30915139 0 0 0 0.04492,-0.0859 c 1.753445,-2.48722 4.021627,-4.48621 6.414062,-6.1875 0.375328,-0.2604 0.504516,-0.81826 0.28125,-1.2168 a 0.30915139,0.30915139 0 0 0 -0.0039,-0.006 l -0.308594,-0.52539 c -2.34e-4,-4.2e-4 -0.0017,4.2e-4 -0.002,0 -0.180853,-0.32311 -0.566648,-0.51857 -0.933594,-0.46875 l 0.05664,-0.002 c -0.03119,-0.002 -0.06256,-0.002 -0.09375,0 z"
       id="path17089-7-0"
       style="color:#000000;display:inline;overflow:visible;visibility:visible;fill:#a41c6d;fill-opacity:1;fill-rule:nonzero;stroke:#fdfdfd;stroke-width:1.37160051;stroke-linecap:butt;stroke-linejoin:miter;stroke-miterlimit:4;stroke-dasharray:none;stroke-dashoffset:0;stroke-opacity:1;marker:none;enable-background:accumulate"
       inkscape:original="M 55.46875 293.15625 A 0.6200561 0.6200561 0 0 0 55.34375 293.21875 C 52.006599 294.92235 48.354561 298.76019 45.59375 302.84375 C 45.264451 302.16088 44.937977 301.56417 44.59375 301.15625 C 44.217547 300.71043 43.77789 300.375 43.21875 300.375 C 42.541316 300.375 41.937199 300.74083 41.3125 301.28125 A 0.6200561 0.6200561 0 0 0 41.65625 302.375 C 41.878225 302.39642 42.11328 302.50774 42.40625 302.90625 C 42.694104 303.29813 43.130485 304.17422 43.65625 305.40625 L 43.90625 305.96875 C 44.122627 306.48523 44.236381 306.84208 44.28125 307.03125 A 0.6200561 0.6200561 0 0 0 45.28125 307.34375 C 45.531895 307.12566 45.84872 306.89001 46.21875 306.65625 L 46.25 306.65625 L 46.6875 306.375 A 0.6200561 0.6200561 0 0 0 46.96875 306.0625 C 47.555241 304.52201 48.470525 302.88657 49.75 301.15625 A 0.6200561 0.6200561 0 0 0 49.75 301.125 C 51.536891 298.57299 53.853237 296.53872 56.28125 294.8125 A 0.6200561 0.6200561 0 0 0 56.46875 294 L 56.15625 293.46875 A 0.6200561 0.6200561 0 0 0 55.53125 293.15625 A 0.6200561 0.6200561 0 0 0 55.46875 293.15625 z "
       inkscape:radius="0.30912048"
       sodipodi:type="inkscape:offset"
       inkscape:export-filename="/home/lalejand/Téléchargements/rondOK.png"
       inkscape:export-xdpi="150"
       inkscape:export-ydpi="150" />
  </g>
  <g
     style="display:inline;fill:#a41c6d;fill-opacity:1"
     inkscape:export-ydpi="150"
     inkscape:export-xdpi="150"
     inkscape:export-filename="/home/lalejand/Téléchargements/carreNO.png"
     transform="matrix(0.64221605,0,0,0.64221605,-774.47706,193.47113)"
     id="g10498-7-4-2-9">
    <g
       transform="matrix(1.5524813,0,0,1.5524813,1146.951,-447.49502)"
       id="g5606-1-0-7-1-3"
       style="display:inline;fill:#a41c6d;fill-opacity:1">
      <path
         id="rect5549-9-6-0-6-9-6"
         d="M 40.15625,295.125 C 38.983983,295.125 38,296.10943 38,297.28125 l 0,11.4375 c 0,1.17182 0.983983,2.15625 2.15625,2.15625 l 11.9375,0 c 1.172267,0 2.15625,-0.98443 2.15625,-2.15625 l 0,-11.4375 c 0,-1.17182 -0.983983,-2.15625 -2.15625,-2.15625 l -11.9375,0 z m 0,1.75 11.9375,0 c 0.242988,0 0.40625,0.1599 0.40625,0.40625 l 0,11.4375 c 0,0.24635 -0.163262,0.40625 -0.40625,0.40625 l -11.9375,0 c -0.242988,0 -0.40625,-0.1599 -0.40625,-0.40625 l 0,-11.4375 c 0,-0.24635 0.163262,-0.40625 0.40625,-0.40625 z"
         style="color:#000000;font-style:normal;font-variant:normal;font-weight:normal;font-stretch:normal;font-size:medium;line-height:normal;font-family:'!CRASS ROOTS OFL';-inkscape-font-specification:'!CRASS ROOTS OFL';text-indent:0;text-align:start;text-decoration:none;text-decoration-line:none;letter-spacing:normal;word-spacing:normal;text-transform:none;direction:ltr;block-progression:tb;writing-mode:lr-tb;text-anchor:start;display:inline;overflow:visible;visibility:visible;fill:#a41c6d;fill-opacity:1;fill-rule:nonzero;stroke:none;stroke-width:0.0716275;marker:none;enable-background:accumulate"
         inkscape:connector-curvature="0" />
    </g>
  </g>
  <g
     style="display:inline;fill:#a41c6d;fill-opacity:1"
     inkscape:export-ydpi="150"
     inkscape:export-xdpi="150"
     inkscape:export-filename="/home/lalejand/Téléchargements/carreOK.png"
     transform="matrix(0.64221605,0,0,0.64221605,-774.47706,233.47113)"
     id="g8773-1-0">
    <g
       transform="matrix(1.5524813,0,0,1.5524813,1146.951,-447.49502)"
       id="g8775-6-6"
       style="display:inline;fill:#a41c6d;fill-opacity:1">
      <path
         id="path8777-8-2"
         d="M 40.15625,295.125 C 38.983983,295.125 38,296.10943 38,297.28125 l 0,11.4375 c 0,1.17182 0.983983,2.15625 2.15625,2.15625 l 11.9375,0 c 1.172267,0 2.15625,-0.98443 2.15625,-2.15625 l 0,-11.4375 c 0,-1.17182 -0.983983,-2.15625 -2.15625,-2.15625 l -11.9375,0 z m 0,1.75 11.9375,0 c 0.242988,0 0.40625,0.1599 0.40625,0.40625 l 0,11.4375 c 0,0.24635 -0.163262,0.40625 -0.40625,0.40625 l -11.9375,0 c -0.242988,0 -0.40625,-0.1599 -0.40625,-0.40625 l 0,-11.4375 c 0,-0.24635 0.163262,-0.40625 0.40625,-0.40625 z"
         style="color:#000000;font-style:normal;font-variant:normal;font-weight:normal;font-stretch:normal;font-size:medium;line-height:normal;font-family:'!CRASS ROOTS OFL';-inkscape-font-specification:'!CRASS ROOTS OFL';text-indent:0;text-align:start;text-decoration:none;text-decoration-line:none;letter-spacing:normal;word-spacing:normal;text-transform:none;direction:ltr;block-progression:tb;writing-mode:lr-tb;text-anchor:start;display:inline;overflow:visible;visibility:visible;fill:#a41c6d;fill-opacity:1;fill-rule:nonzero;stroke:none;stroke-width:0.0716275;marker:none;enable-background:accumulate"
         inkscape:connector-curvature="0" />
      <path
         d="m 55.453125,292.84766 a 0.30915139,0.30915139 0 0 0 -0.08984,0.0176 c -0.06077,0.0222 -0.118987,0.0516 -0.173828,0.0859 -3.310732,1.69503 -6.825982,5.37504 -9.568359,9.33594 -0.254312,-0.49236 -0.504174,-0.99016 -0.791016,-1.33008 -0.403472,-0.47813 -0.92856,-0.89062 -1.611328,-0.89062 -0.78645,0 -1.45816,0.41919 -2.103516,0.97656 -0.280514,0.23415 -0.400571,0.6436 -0.291015,0.99219 0.109372,0.348 0.43942,0.61612 0.802734,0.64843 0.14082,0.0136 0.266793,0.0492 0.529297,0.40625 0.245966,0.33486 0.692551,1.21361 1.214844,2.4375 a 0.30915139,0.30915139 0 0 0 0.002,0.004 l 0.25,0.5625 c 0.209314,0.50061 0.3197,0.85073 0.357422,1.00977 a 0.30915139,0.30915139 0 0 0 0.002,0.008 c 0.08062,0.30105 0.323617,0.55352 0.621094,0.64648 0.297476,0.093 0.639258,0.0238 0.876953,-0.17773 a 0.30915139,0.30915139 0 0 0 0.0039,-0.004 c 0.224336,-0.1952 0.51909,-0.41038 0.853516,-0.625 a 0.30915139,0.30915139 0 0 0 0.08008,-0.0351 l 0.4375,-0.28125 -0.02148,0.0117 c 0.188831,-0.10123 0.341026,-0.26838 0.421875,-0.46679 a 0.30915139,0.30915139 0 0 0 0.002,-0.008 c 0.574326,-1.50854 1.474221,-3.11992 2.740235,-4.83204 a 0.30915139,0.30915139 0 0 0 0.04492,-0.0859 c 1.753445,-2.48722 4.021627,-4.48621 6.414062,-6.1875 0.375328,-0.2604 0.504516,-0.81826 0.28125,-1.2168 a 0.30915139,0.30915139 0 0 0 -0.0039,-0.006 l -0.308594,-0.52539 c -2.34e-4,-4.2e-4 -0.0017,4.2e-4 -0.002,0 -0.180853,-0.32311 -0.566648,-0.51857 -0.933594,-0.46875 l 0.05664,-0.002 c -0.03119,-0.002 -0.06256,-0.002 -0.09375,0 z"
         id="path8779-5-6"
         style="color:#000000;display:inline;overflow:visible;visibility:visible;fill:#a41c6d;fill-opacity:1;fill-rule:nonzero;stroke:#fdfdfd;stroke-width:1.28826022;stroke-linecap:butt;stroke-linejoin:miter;stroke-miterlimit:4;stroke-dasharray:none;stroke-dashoffset:0;stroke-opacity:1;marker:none;enable-background:accumulate"
         inkscape:original="M 55.46875 293.15625 A 0.6200561 0.6200561 0 0 0 55.34375 293.21875 C 52.006599 294.92235 48.354561 298.76019 45.59375 302.84375 C 45.264451 302.16088 44.937977 301.56417 44.59375 301.15625 C 44.217547 300.71043 43.77789 300.375 43.21875 300.375 C 42.541316 300.375 41.937199 300.74083 41.3125 301.28125 A 0.6200561 0.6200561 0 0 0 41.65625 302.375 C 41.878225 302.39642 42.11328 302.50774 42.40625 302.90625 C 42.694104 303.29813 43.130485 304.17422 43.65625 305.40625 L 43.90625 305.96875 C 44.122627 306.48523 44.236381 306.84208 44.28125 307.03125 A 0.6200561 0.6200561 0 0 0 45.28125 307.34375 C 45.531895 307.12566 45.84872 306.89001 46.21875 306.65625 L 46.25 306.65625 L 46.6875 306.375 A 0.6200561 0.6200561 0 0 0 46.96875 306.0625 C 47.555241 304.52201 48.470525 302.88657 49.75 301.15625 A 0.6200561 0.6200561 0 0 0 49.75 301.125 C 51.536891 298.57299 53.853237 296.53872 56.28125 294.8125 A 0.6200561 0.6200561 0 0 0 56.46875 294 L 56.15625 293.46875 A 0.6200561 0.6200561 0 0 0 55.53125 293.15625 A 0.6200561 0.6200561 0 0 0 55.46875 293.15625 z "
         inkscape:radius="0.30912048"
         sodipodi:type="inkscape:offset" />
    </g>
  </g>
</svg>
