<?xml version="1.0" encoding="UTF-8" standalone="no"?>
<!-- Created with Inkscape (http://www.inkscape.org/) -->

<svg
   xmlns:dc="http://purl.org/dc/elements/1.1/"
   xmlns:cc="http://creativecommons.org/ns#"
   xmlns:rdf="http://www.w3.org/1999/02/22-rdf-syntax-ns#"
   xmlns:svg="http://www.w3.org/2000/svg"
   xmlns="http://www.w3.org/2000/svg"
   xmlns:sodipodi="http://sodipodi.sourceforge.net/DTD/sodipodi-0.dtd"
   xmlns:inkscape="http://www.inkscape.org/namespaces/inkscape"
   width="7.3200836mm"
   height="7.3196092mm"
   viewBox="0 0 25.937304 25.935623"
   id="svg6019"
   version="1.1"
   inkscape:version="0.91 r13725"
   sodipodi:docname="find.svg">
  <defs
     id="defs6021" />
  <sodipodi:namedview
     id="base"
     pagecolor="#ffffff"
     bordercolor="#666666"
     borderopacity="1.0"
     inkscape:pageopacity="0.0"
     inkscape:pageshadow="2"
     inkscape:zoom="11.2"
     inkscape:cx="-14.50396"
     inkscape:cy="16.247411"
     inkscape:document-units="px"
     inkscape:current-layer="layer1"
     showgrid="false"
     fit-margin-top="0"
     fit-margin-left="0"
     fit-margin-right="0"
     fit-margin-bottom="0"
     inkscape:window-width="1871"
     inkscape:window-height="1056"
     inkscape:window-x="49"
     inkscape:window-y="24"
     inkscape:window-maximized="1" />
  <metadata
     id="metadata6024">
    <rdf:RDF>
      <cc:Work
         rdf:about="">
        <dc:format>image/svg+xml</dc:format>
        <dc:type
           rdf:resource="http://purl.org/dc/dcmitype/StillImage" />
        <dc:title></dc:title>
      </cc:Work>
    </rdf:RDF>
  </metadata>
  <g
     inkscape:label="Calque 1"
     inkscape:groupmode="layer"
     id="layer1"
     transform="translate(-418.46641,-236.53047)">
    <path
       inkscape:export-ydpi="90"
       inkscape:export-xdpi="90"
       inkscape:export-filename="/home/lalejand/generationsSCENARI/skinTopaze15_SCDLille2.skinset/mirageW/skin/img/search/find.svg"
       id="path4134"
       d="m 421.49441,256.82167 c -0.7213,0.7212 -0.7213,1.8951 0,2.6164 0.7213,0.7221 1.8943,0.7221 2.6114,0 l 5.3488,-5.3446 c 1.2478,0.7776 2.7189,1.2293 4.3025,1.2293 4.5016,0 8.1466,-3.6442 8.1466,-8.1466 0,-4.5015 -3.645,-8.1457 -8.1466,-8.1457 -4.5023,0 -8.1474,3.6442 -8.1474,8.1457 0,1.5795 0.4518,3.0548 1.2293,4.3026 z m 6.4429,-9.6455 c 0,-3.2117 2.6072,-5.8189 5.8198,-5.8189 3.2118,0 5.819,2.6063 5.819,5.8189 0,3.2127 -2.6064,5.8199 -5.819,5.8199 -3.2126,0 -5.8198,-2.6072 -5.8198,-5.8199 z"
       inkscape:connector-curvature="0"
       style="color:#000000;clip-rule:nonzero;display:inline;overflow:visible;visibility:visible;opacity:1;isolation:auto;mix-blend-mode:normal;color-interpolation:sRGB;color-interpolation-filters:linearRGB;solid-color:#000000;solid-opacity:1;fill:#fefcfd;fill-opacity:1;fill-rule:nonzero;stroke:#fefcfd;stroke-width:5;stroke-linecap:round;stroke-linejoin:round;stroke-miterlimit:4;stroke-dasharray:none;stroke-dashoffset:0;stroke-opacity:1;marker:none;marker-start:none;marker-mid:none;marker-end:none;color-rendering:auto;image-rendering:auto;shape-rendering:auto;text-rendering:auto;enable-background:accumulate"
       sodipodi:nodetypes="ccccssssccsssss" />
    <path
       style="clip-rule:evenodd;fill:#88175a;fill-opacity:1;fill-rule:evenodd"
       inkscape:connector-curvature="0"
       d="m 434.29201,244.61607 c 1.0059,0.2325 1.8062,1.089 2.0388,2.0244 0.08,0.4375 0.4609,0.7683 0.9169,0.7683 0.5122,0 0.9312,-0.419 0.9312,-0.9303 0,-0.6709 -0.5634,-1.6903 -1.3309,-2.4544 -0.754,-0.7448 -1.6525,-1.2705 -2.3931,-1.2705 -0.5114,0 -0.9304,0.4333 -0.9304,0.9447 0,0.4568 0.33,0.838 0.7675,0.9178 z m -12.7976,12.2056 c -0.7213,0.7212 -0.7213,1.8951 0,2.6164 0.7213,0.7221 1.8943,0.7221 2.6114,0 l 5.3488,-5.3446 c 1.2478,0.7776 2.7189,1.2293 4.3025,1.2293 4.5016,0 8.1466,-3.6442 8.1466,-8.1466 0,-4.5015 -3.645,-8.1457 -8.1466,-8.1457 -4.5023,0 -8.1474,3.6442 -8.1474,8.1457 0,1.5795 0.4518,3.0548 1.2293,4.3026 l -5.3446,5.3429 z m 6.4429,-9.6455 c 0,-3.2117 2.6072,-5.8189 5.8198,-5.8189 3.2118,0 5.819,2.6063 5.819,5.8189 0,3.2127 -2.6064,5.8199 -5.819,5.8199 -3.2126,0 -5.8198,-2.6072 -5.8198,-5.8199 z"
       id="path177-8"
       inkscape:export-filename="/home/lalejand/generationsSCENARI/skinTopaze15_SCDLille2.skinset/mirageW/skin/img/search/find.svg"
       inkscape:export-xdpi="90"
       inkscape:export-ydpi="90" />
  </g>
</svg>
